<svg xmlns="http://www.w3.org/2000/svg" width="24" height="24" viewBox="0 0 24 24" fill="none">
<path d="M15.0581 4.98116L16.538 2.26327M21.9127 7.6505L19.2188 9.11732M8.91063 19.411L7.42857 22.1329M2.04018 16.758L4.76567 15.2739M16.4998 22.0749L15.0492 19.4108M19.1965 15.2718L21.893 16.7401M7.46875 2.3442L8.86023 4.89969M4.75849 9.12392L2.04915 7.68982M17.4869 17.704C14.4414 20.7495 9.50843 20.7542 6.4687 17.7144C3.42902 14.6748 3.43366 9.74175 6.47906 6.69626C9.52455 3.65081 14.4575 3.64622 17.4973 6.6859C20.5369 9.72563 20.5324 14.6587 17.4869 17.704ZM12.022 7.68978C12.022 7.68978 7.37946 10.358 7.37946 13.1848C7.37946 14.5347 8.47367 15.6288 9.8234 15.6288C10.2758 15.6288 10.6993 15.5059 11.0625 15.2915L10.8783 16.662H13.1308L12.9526 15.3357C13.3145 15.5479 13.7359 15.6694 14.1857 15.6694C15.5354 15.6694 16.6296 14.5752 16.6296 13.2255C16.6296 10.3734 12.022 7.68978 12.022 7.68978ZM22.9634 12.1999C22.9634 18.2652 18.0468 23.1821 11.9817 23.1821C5.91665 23.1821 1 18.2652 1 12.1999C1 6.13465 5.91665 1.21777 11.9817 1.21777C18.0468 1.21777 22.9634 6.13465 22.9634 12.1999Z" stroke="white" stroke-width="0.571429" stroke-miterlimit="10" stroke-linecap="round" stroke-linejoin="round"/>
</svg>