<svg xmlns="http://www.w3.org/2000/svg" width="24" height="25" viewBox="0 0 24 25" fill="none">
<mask id="mask0_126_10480" style="mask-type:luminance" maskUnits="userSpaceOnUse" x="0" y="1" width="24" height="24">
<path d="M23.5669 1.42188H0.709717V24.279H23.5669V1.42188Z" fill="white"/>
</mask>
<g mask="url(#mask0_126_10480)">
<path d="M22.8529 17.1364H21.7814V16.065C21.7814 11.2336 18.209 7.22108 13.5671 6.52859V4.63644C13.5671 4.43894 13.4075 4.2793 13.21 4.2793H11.0671C10.8696 4.2793 10.71 4.43894 10.71 4.63644V6.52859C6.06821 7.22108 2.49571 11.2336 2.49571 16.065V17.1364H1.42428C1.22678 17.1364 1.06714 17.2961 1.06714 17.4935V18.2078C1.06714 18.2507 1.07464 18.2932 1.08964 18.3335L2.16107 21.1907C2.21357 21.3297 2.34678 21.4221 2.49571 21.4221H21.7814C21.9303 21.4221 22.0636 21.3297 22.1161 21.1907L23.1875 18.3335C23.2025 18.2932 23.21 18.2507 23.21 18.2078V17.4935C23.21 17.2961 23.0503 17.1364 22.8529 17.1364ZM11.4243 4.99358H12.8529V6.45145C12.6167 6.43394 12.3793 6.42215 12.1386 6.42215C11.8979 6.42215 11.6604 6.43394 11.4243 6.45145V4.99358ZM3.20999 16.065C3.20999 11.1418 7.21535 7.13644 12.1386 7.13644C17.0618 7.13644 21.0671 11.1418 21.0671 16.065V17.1364H3.20999V16.065ZM22.4957 18.1429L21.5339 20.7078H2.74321L1.78142 18.1429V17.8507H22.4957V18.1429ZM11.42 8.94679C11.4497 9.1418 11.3157 9.32394 11.1207 9.35358C8.69535 9.72215 6.64999 11.3843 5.78357 13.6907C5.72964 13.8339 5.59357 13.9221 5.44928 13.9221C5.4075 13.9221 5.365 13.9147 5.32357 13.8996C5.13856 13.8303 5.04535 13.6243 5.11464 13.4396C6.07285 10.8911 8.33285 9.05537 11.0136 8.64787C11.2089 8.61751 11.3904 8.7518 11.42 8.94679Z" fill="white"/>
</g>
</svg>