<svg xmlns="http://www.w3.org/2000/svg" width="21" height="21" viewBox="0 0 21 21" fill="none">
<mask id="mask0_126_10472" style="mask-type:luminance" maskUnits="userSpaceOnUse" x="0" y="0" width="21" height="21">
<path d="M20.9014 0.0488281H0V20.9502H20.9014V0.0488281Z" fill="white"/>
</mask>
<g mask="url(#mask0_126_10472)">
<path d="M9.61269 0.814829L6.87286 0.0804659C6.34713 -0.051799 5.80791 0.241663 5.63355 0.754999L2.79218 8.89756C2.62073 9.5241 2.70008 10.1928 3.01337 10.7618C3.26411 11.2216 3.66115 11.5843 4.14158 11.7926L2.47423 18.0148L2.31696 17.9724C1.70009 17.8085 1.04402 18.0154 0.632863 18.5037L0.188419 19.0165C0.0653419 19.1597 0.0815812 19.3756 0.224787 19.4987C0.263761 19.5322 0.309744 19.5565 0.359359 19.5697L5.46089 20.9372C5.64329 20.986 5.83073 20.8777 5.87953 20.6953C5.89278 20.6458 5.89474 20.5938 5.88517 20.5434L5.75833 19.876C5.64646 19.2478 5.18188 18.7406 4.56585 18.5741L4.4544 18.544L6.1221 12.3218C7.33505 12.4373 8.44961 11.6471 8.74226 10.4644L10.3477 2.01825C10.4533 1.48697 10.1336 0.963542 9.61269 0.814829ZM9.67697 1.89072L8.07697 10.3143C7.84659 11.252 6.9012 11.8267 5.96278 11.5995C5.78042 11.5505 5.59291 11.6587 5.54402 11.8411L3.70602 18.6989C3.6573 18.8813 3.76551 19.0685 3.94774 19.1174L4.38945 19.236C4.75136 19.3357 5.02321 19.6353 5.08722 20.0053L5.11252 20.1372L1.06329 19.0525L1.15116 18.9498C1.39163 18.6617 1.77662 18.5381 2.13987 18.6322L2.62705 18.7629C2.8094 18.8118 2.99692 18.7036 3.04581 18.5213L4.88376 11.6624C4.93248 11.48 4.82427 11.2927 4.64205 11.2439C4.20206 11.1255 3.82992 10.8317 3.61265 10.4313C3.38778 10.0247 3.32803 9.54727 3.44581 9.09791L6.27932 0.980974C6.33526 0.805298 6.51615 0.70145 6.69607 0.741664L9.43556 1.47568C9.61141 1.53064 9.71619 1.71077 9.67697 1.89072Z" fill="white"/>
<path d="M20.7826 19.1523C20.7694 19.1026 20.7451 19.0566 20.7117 19.0177L20.7102 19.0184L20.2658 18.5056C19.8553 18.017 19.1997 17.8092 18.5828 17.9723L18.4258 18.0143L16.7585 11.7921C17.2389 11.5838 17.6359 11.221 17.8866 10.7613C18.2028 10.1841 18.2796 9.50599 18.1007 8.87275L15.2661 0.754801C15.0914 0.241807 14.5526 -0.051483 14.0269 0.0802687L11.287 0.814631C10.7662 0.963344 10.4465 1.48672 10.5519 2.01805L12.1636 10.4902C12.4634 11.6626 13.5736 12.4408 14.778 12.323L16.4456 18.5452L16.3342 18.5753C15.7181 18.7418 15.2536 19.2489 15.1417 19.8772L15.0149 20.5445C14.9798 20.73 15.1016 20.9089 15.2872 20.944C15.3376 20.9535 15.3895 20.9517 15.4392 20.9384L20.5407 19.5708C20.7231 19.522 20.8314 19.3346 20.7826 19.1523ZM15.7871 20.1369L15.8124 20.005C15.8764 19.6351 16.1483 19.3355 16.5102 19.2358L16.9519 19.1172C17.1342 19.0682 17.2424 18.881 17.1937 18.6987L15.3557 11.8399C15.3158 11.6905 15.1804 11.5864 15.0258 11.5862C14.9958 11.5863 14.9659 11.5904 14.9368 11.5982C14.0077 11.8258 13.068 11.2642 12.8285 10.338L11.2217 1.89049C11.182 1.71027 11.2869 1.52971 11.463 1.47476L14.2035 0.741424C14.3835 0.701043 14.5645 0.804974 14.6203 0.980734L17.4462 9.0751C17.5712 9.53061 17.5141 10.0168 17.287 10.431C17.0699 10.8317 16.6979 11.1257 16.2579 11.2443C16.0756 11.2932 15.9675 11.4805 16.0162 11.6628L17.8541 18.5216C17.903 18.704 18.0904 18.8122 18.2729 18.7633L18.7601 18.6327C19.1234 18.5386 19.5084 18.6622 19.7488 18.9504L19.8367 19.0529L15.7871 20.1369Z" fill="white"/>
</g>
</svg>