<svg width="117" height="200" viewBox="0 0 117 200" fill="none" xmlns="http://www.w3.org/2000/svg">
<g clip-path="url(#clip0_126_10851)">
<path d="M3.36711 154.566C2.20597 155.727 1.37797 157.038 0.883624 158.5C0.388775 159.962 0.141846 161.304 0.141846 162.529C0.141846 166.205 1.30299 169.074 3.62504 171.137C5.92559 173.244 9.12936 174.297 13.2369 174.297C15.6449 174.297 17.3863 174.071 18.4618 173.62C18.7412 173.512 18.9184 173.416 18.9941 173.33C19.0691 173.244 19.1498 173.061 19.236 172.782C19.365 172.352 19.5047 171.664 19.6554 170.718C19.8056 169.773 19.8808 169.214 19.8808 169.042C19.8808 168.763 19.8056 168.623 19.6554 168.623C19.5262 168.623 19.4295 168.763 19.365 169.042C19.236 170.052 18.8814 170.869 18.3006 171.492C17.3544 172.459 15.6664 172.943 13.2369 172.943C10.205 172.943 7.69405 171.884 5.70541 169.767C3.71651 167.651 2.72206 165.162 2.72206 162.304C2.72206 158.886 3.5928 156.351 5.33452 154.695C6.79657 153.277 9.03264 152.567 12.0435 152.567C13.2474 152.567 14.3818 152.729 15.4462 153.051C16.5106 153.374 17.3114 153.772 17.849 154.244C18.666 154.932 19.0748 155.92 19.0748 157.21C19.0748 157.619 19.1603 157.823 19.3328 157.823C19.4827 157.823 19.5797 157.662 19.6229 157.339C19.6659 157.017 19.6764 156.372 19.6554 155.405V154.212C19.6554 153.782 19.6874 153.395 19.7519 153.051L19.8166 152.567C19.8166 152.353 19.6874 152.245 19.4295 152.245C18.8919 152.245 17.8919 152.116 16.4296 151.858C14.9673 151.6 13.5698 151.472 12.2369 151.472C8.38759 151.472 5.43123 152.503 3.36711 154.566Z" fill="url(#paint0_linear_126_10851)"/>
<path d="M30.8474 152.433L24.2354 170.52C23.8485 171.595 23.4341 172.331 22.9935 172.728C22.5526 173.126 21.8696 173.325 20.9454 173.325C20.7734 173.325 20.6875 173.379 20.6875 173.486C20.6875 173.701 20.8702 173.808 21.2358 173.808C21.7729 173.808 22.4502 173.792 23.2677 173.76C24.0844 173.727 24.5038 173.711 24.5255 173.711C24.6113 173.711 24.9449 173.727 25.5255 173.76C26.1061 173.792 26.5252 173.808 26.7834 173.808C27.0843 173.808 27.235 173.701 27.235 173.486C27.235 173.379 27.1382 173.325 26.9446 173.325H26.6544C26.3745 173.325 26.1223 173.249 25.8964 173.099C25.6704 172.949 25.5577 172.744 25.5577 172.486C25.5577 171.949 25.6867 171.293 25.9449 170.52L27.6863 165.361C27.7721 165.211 27.869 165.136 27.9767 165.136H34.2663C34.3736 165.136 34.4598 165.2 34.5243 165.329L37.2337 172.486C37.4054 172.959 37.787 173.626 38.3786 174.485C38.9699 175.344 39.5987 176.129 40.2655 176.839C42.5446 179.16 45.2325 180.32 48.3288 180.32C51.5326 180.32 54.6074 179.654 57.5535 178.322C57.7252 178.214 57.8114 178.106 57.8114 177.999C57.8114 177.87 57.7469 177.806 57.618 177.806C57.1449 177.999 56.715 178.155 56.3279 178.273C55.9407 178.391 55.5051 178.509 55.0215 178.628C54.5379 178.745 53.9733 178.853 53.328 178.95C52.683 179.047 52.0704 179.095 51.4898 179.095C51.4463 179.095 51.1884 179.106 50.7156 179.128C50.2422 179.149 49.8448 179.154 49.5222 179.143C49.1998 179.132 48.7102 179.074 48.0546 178.966C47.3986 178.858 46.813 178.692 46.2967 178.466C45.7808 178.241 45.173 177.902 44.4747 177.451C43.7754 177 43.1304 176.452 42.5393 175.807C41.9477 175.162 41.3299 174.334 40.6846 173.325C40.0396 172.314 39.448 171.175 38.9107 169.907L32.1375 152.369C31.8578 151.66 31.6424 151.305 31.4924 151.305C31.3417 151.305 31.1265 151.681 30.8474 152.433ZM28.2347 163.878L30.7829 156.012C30.9331 155.625 31.0838 155.625 31.2343 156.012L33.9759 163.878C34.0189 164.029 33.9864 164.104 33.8792 164.104H28.2994C28.1914 164.104 28.1702 164.029 28.2347 163.878Z" fill="url(#paint1_linear_126_10851)"/>
<path d="M47.8617 152.83C46.7756 153.787 46.2327 155.049 46.2327 156.618C46.2327 157.714 46.5014 158.746 47.0392 159.713C47.5763 160.68 48.5763 161.766 50.0388 162.969L51.3289 164.033C52.619 165.086 53.5005 165.973 53.9739 166.693C54.4465 167.413 54.6831 168.267 54.6831 169.256C54.6831 170.288 54.3175 171.196 53.5867 171.98C52.8555 172.765 51.8338 173.157 50.5227 173.157C49.318 173.157 48.2811 172.845 47.4101 172.222C46.5394 171.599 46.1038 170.556 46.1038 169.095C46.1038 168.88 46.0393 168.772 45.9103 168.772C45.7596 168.772 45.6846 168.933 45.6846 169.256C45.6846 169.32 45.6572 169.707 45.6039 170.416C45.5499 171.126 45.5232 171.76 45.5232 172.319C45.5232 172.727 45.5444 172.99 45.5877 173.109C45.6304 173.227 45.7596 173.34 45.9748 173.447C47.0282 173.963 48.3293 174.221 49.8776 174.221C51.1675 174.221 52.2854 174.011 53.2318 173.592C54.1778 173.173 54.8928 172.63 55.3767 171.964C55.8605 171.298 56.2099 170.648 56.4251 170.013C56.6396 169.38 56.7475 168.762 56.7475 168.16C56.7475 166.935 56.4516 165.812 55.8605 164.791C55.269 163.77 54.1453 162.614 52.4901 161.325L51.6838 160.68C50.2645 159.519 49.318 158.617 48.8454 157.972C48.3721 157.327 48.1356 156.597 48.1356 155.78C48.1356 154.748 48.4745 153.931 49.1518 153.33C49.8291 152.728 50.6839 152.427 51.7158 152.427C53.5432 152.427 54.7584 152.932 55.3604 153.942C55.4897 154.179 55.5809 154.458 55.6346 154.781C55.6881 155.103 55.7316 155.35 55.7638 155.522C55.7961 155.694 55.8655 155.78 55.9735 155.78C56.1022 155.78 56.1669 155.565 56.1669 155.135C56.1669 154.555 56.1777 154.018 56.1992 153.523C56.2204 153.029 56.2419 152.652 56.2637 152.395L56.2959 152.04C56.2959 151.868 56.1992 151.782 56.0055 151.782C55.8121 151.782 55.3552 151.718 54.6349 151.588C53.9141 151.46 53.1239 151.395 52.2644 151.395C50.4147 151.395 48.9471 151.874 47.8617 152.83Z" fill="url(#paint2_linear_126_10851)"/>
<path d="M62.5833 151.919H59.6481C59.3467 151.919 59.1965 151.983 59.1965 152.113C59.1965 152.242 59.2715 152.306 59.4222 152.306C59.8094 152.306 60.1103 152.338 60.3254 152.403C60.927 152.553 61.2609 153.101 61.3254 154.047C61.3681 154.67 61.3899 156.766 61.3899 160.333V165.46C61.3899 168.856 61.3359 170.962 61.2284 171.779C61.0777 172.767 60.7983 173.294 60.3899 173.358C60.0458 173.444 59.7554 173.487 59.5189 173.487C59.3682 173.487 59.2935 173.541 59.2935 173.648C59.2935 173.82 59.4435 173.906 59.7449 173.906C60.0028 173.906 60.3579 173.901 60.8093 173.89C61.2609 173.879 61.669 173.863 62.0349 173.842C62.4003 173.82 62.594 173.81 62.6155 173.81L63.1961 173.842C63.5832 173.863 64.0613 173.879 64.6314 173.89C65.2007 173.901 65.7225 173.906 66.1957 173.906C66.4966 173.906 66.647 173.82 66.647 173.648C66.647 173.541 66.5715 173.487 66.4213 173.487C66.0989 173.487 65.6578 173.444 65.099 173.358C64.4539 173.294 64.0775 172.767 63.9701 171.779C63.8624 170.962 63.8089 168.856 63.8089 165.46V160.333C63.8089 156.766 63.8301 154.67 63.8736 154.047C63.9163 153.51 64.0131 153.118 64.1638 152.87C64.314 152.623 64.5829 152.457 64.97 152.37C65.1847 152.328 65.4214 152.306 65.6796 152.306C65.8298 152.306 65.9052 152.242 65.9052 152.113C65.9052 151.983 65.7545 151.919 65.4539 151.919H62.5833Z" fill="url(#paint3_linear_126_10851)"/>
<path d="M70.8094 152.884L70.7769 169.552C70.7769 170.928 70.7231 171.868 70.6159 172.373C70.5079 172.878 70.2715 173.174 69.9061 173.26C69.6265 173.367 69.2286 173.421 68.7127 173.421C68.562 173.421 68.4868 173.485 68.4868 173.614C68.4868 173.743 68.6373 173.808 68.9387 173.808H71.7446H74.8409C75.1848 173.808 75.357 173.743 75.357 173.614C75.357 173.485 75.2815 173.421 75.131 173.421C74.529 173.421 74.0451 173.367 73.68 173.26C73.2711 173.152 72.9807 172.857 72.809 172.373C72.6366 171.89 72.5398 171.057 72.5186 169.875L72.1639 155.947L79.7436 164.297C80.6466 165.308 81.711 166.452 82.9367 167.731C84.1623 169.01 85.1672 170.036 85.9522 170.809C86.737 171.583 87.2049 172.045 87.3556 172.196C88.6022 173.421 89.3117 174.033 89.4842 174.033C89.5487 174.033 89.5916 174.017 89.6131 173.985C89.6344 173.953 89.6561 173.867 89.6776 173.727C89.6989 173.588 89.7151 173.383 89.7261 173.115C89.7366 172.846 89.7423 172.465 89.7423 171.97L89.8068 154.915C89.8068 153.991 89.8711 153.352 90.0003 152.997C90.1295 152.643 90.4301 152.422 90.9032 152.336C91.1179 152.272 91.3439 152.24 91.5805 152.24C91.7955 152.24 91.9032 152.175 91.9032 152.046C91.9032 151.961 91.7307 151.917 91.3871 151.917H88.9033H85.8715C85.4846 151.917 85.2912 151.961 85.2912 152.046C85.2912 152.175 85.3662 152.24 85.5169 152.24C85.9897 152.24 86.4736 152.283 86.9684 152.368C87.4198 152.497 87.7155 152.75 87.8554 153.126C87.9949 153.502 88.0756 154.174 88.0973 155.141L88.4197 169.939L81.4206 162.33C75.6149 156.098 72.5291 152.777 72.1639 152.368C71.6044 151.745 71.2607 151.433 71.1318 151.433C70.9166 151.433 70.8094 151.917 70.8094 152.884Z" fill="url(#paint4_linear_126_10851)"/>
<path d="M100.432 152.137C99.1313 152.631 98.0456 153.271 97.1749 154.055C96.3042 154.84 95.5622 155.737 94.9493 156.747C94.3365 157.758 93.8954 158.773 93.627 159.794C93.3583 160.815 93.2239 161.809 93.2239 162.776C93.2239 163.851 93.3583 164.92 93.627 165.984C93.8954 167.048 94.3255 168.079 94.9171 169.078C95.5082 170.078 96.2342 170.954 97.0942 171.706C97.9542 172.459 99.0239 173.066 100.304 173.527C101.583 173.99 102.986 174.221 104.513 174.221C107.953 174.221 110.748 173.071 112.899 170.771C115.048 168.472 116.124 165.656 116.124 162.324C116.124 158.993 115.054 156.339 112.915 154.361C110.775 152.384 108.039 151.395 104.706 151.395C103.158 151.395 101.733 151.642 100.432 152.137ZM98.6262 170.046C96.8525 167.993 95.9655 165.301 95.9655 161.97C95.9655 158.875 96.75 156.505 98.3198 154.861C99.8893 153.217 101.943 152.395 104.48 152.395C106.932 152.395 109.023 153.351 110.754 155.264C112.484 157.177 113.35 159.799 113.35 163.13C113.35 164.742 113.151 166.172 112.754 167.418C112.356 168.665 111.866 169.638 111.286 170.336C110.705 171.034 110.028 171.604 109.254 172.045C108.48 172.485 107.775 172.776 107.141 172.915C106.507 173.055 105.889 173.125 105.287 173.125C102.62 173.125 100.4 172.098 98.6262 170.046Z" fill="url(#paint5_linear_126_10851)"/>
<path d="M4.94553 129.934C4.18376 129.971 3.73864 129.989 3.61043 129.989C3.57369 129.989 3.3945 129.98 3.07384 129.961C2.75244 129.943 2.37631 129.925 1.94544 129.906C1.51407 129.888 1.13344 129.879 0.803288 129.879C0.527872 129.879 0.390411 129.943 0.390411 130.071C0.390411 130.181 0.463392 130.236 0.610597 130.236C1.03247 130.236 1.30763 130.255 1.43634 130.291C1.83947 130.383 2.11064 130.535 2.2481 130.745C2.38581 130.956 2.47253 131.282 2.50952 131.722C2.54601 132.254 2.56475 134.042 2.56475 137.086V141.46C2.56475 144.358 2.51852 146.156 2.42705 146.852C2.33507 147.696 2.09664 148.146 1.71126 148.2C1.4176 148.274 1.16993 148.31 0.96849 148.31C0.839779 148.31 0.775548 148.365 0.775548 148.476C0.775548 148.604 0.903757 148.668 1.16093 148.668C1.38111 148.668 1.68402 148.659 2.06915 148.641C2.45454 148.623 2.79394 148.609 3.0876 148.599C3.38076 148.59 3.53695 148.586 3.55545 148.586C3.57369 148.586 3.7434 148.59 4.06455 148.599C4.38545 148.609 4.78907 148.623 5.27567 148.641C5.76153 148.659 6.20665 148.668 6.61027 148.668C6.88569 148.668 7.02339 148.604 7.02339 148.476C7.02339 148.365 6.94991 148.31 6.80321 148.31C6.5093 148.31 6.14242 148.274 5.70205 148.2C5.13322 148.146 4.80307 147.696 4.71135 146.852C4.63787 146.156 4.60138 144.358 4.60138 141.46V131.254C4.60138 130.979 4.66536 130.814 4.79383 130.759C5.03225 130.667 5.38989 130.622 5.8675 130.622C7.33505 130.622 8.47245 131.034 9.28021 131.859C10.1974 132.795 10.6563 134.07 10.6563 135.683C10.6563 136.821 10.2434 137.783 9.41767 138.572C8.59192 139.361 7.57372 139.755 6.36284 139.755C6.06893 139.755 5.88549 139.764 5.81226 139.782C5.73878 139.801 5.70205 139.865 5.70205 139.975C5.70205 140.085 5.79377 140.14 5.97746 140.14C6.05044 140.158 6.22514 140.167 6.50031 140.167C8.27976 140.167 9.74332 139.617 10.8902 138.517C12.0366 137.416 12.6104 135.995 12.6104 134.253C12.6104 133.097 12.1973 132.107 11.3721 131.282C10.2889 130.346 8.74762 129.879 6.74798 129.879C6.30761 129.879 5.70655 129.897 4.94553 129.934Z" fill="url(#paint6_linear_126_10851)"/>
<path d="M31.5464 129.906C31.1608 129.925 30.8169 129.943 30.514 129.961C30.2113 129.98 30.0506 129.989 30.0326 129.989C30.0141 129.989 29.8487 129.98 29.537 129.961C29.2249 129.943 28.8443 129.925 28.3949 129.906C27.945 129.888 27.5554 129.879 27.2252 129.879C26.9501 129.879 26.8124 129.943 26.8124 130.071C26.8124 130.181 26.8856 130.236 27.0325 130.236C27.3992 130.236 27.6746 130.264 27.858 130.319C28.2614 130.392 28.5323 130.535 28.67 130.745C28.8078 130.956 28.8945 131.282 28.9315 131.722C28.9682 132.254 28.9867 134.042 28.9867 137.086V137.609C28.9867 137.719 28.9405 137.774 28.849 137.774H18.3077C18.1977 137.774 18.1428 137.719 18.1428 137.609V137.086C18.1428 134.042 18.1608 132.254 18.1977 131.722C18.2345 131.264 18.317 130.929 18.4454 130.717C18.5736 130.507 18.7938 130.374 19.106 130.319C19.3994 130.264 19.6106 130.236 19.739 130.236C19.8672 130.236 19.9317 130.181 19.9317 130.071C19.9317 129.943 19.803 129.879 19.5463 129.879C19.3261 129.879 19.0235 129.888 18.6381 129.906C18.253 129.925 17.9041 129.943 17.5922 129.961C17.28 129.98 17.1148 129.989 17.0971 129.989C17.0783 129.989 16.9131 129.98 16.6015 129.961C16.2893 129.943 15.9087 129.925 15.4596 129.906C15.0095 129.888 14.6198 129.879 14.2897 129.879C14.0325 129.879 13.9043 129.943 13.9043 130.071C13.9043 130.181 13.9683 130.236 14.097 130.236C14.4451 130.236 14.73 130.264 14.9502 130.319C15.3536 130.392 15.6245 130.535 15.762 130.745C15.8997 130.956 15.9864 131.282 16.0237 131.722C16.0416 132.254 16.0511 134.042 16.0511 137.086V141.46C16.0511 144.358 16.0142 146.156 15.9409 146.852C15.8125 147.696 15.5738 148.155 15.2254 148.228C15.0052 148.283 14.7575 148.31 14.4824 148.31C14.3352 148.31 14.2622 148.365 14.2622 148.476C14.2622 148.604 14.3999 148.668 14.6748 148.668C14.895 148.668 15.1979 148.659 15.583 148.641C15.9684 148.623 16.3126 148.609 16.6155 148.599C16.9179 148.59 17.0783 148.586 17.0971 148.586C17.1148 148.586 17.2895 148.59 17.6199 148.599C17.9501 148.609 18.3534 148.623 18.8308 148.641C19.3079 148.659 19.748 148.668 20.1519 148.668C20.4271 148.668 20.5648 148.604 20.5648 148.476C20.5648 148.365 20.5003 148.31 20.3721 148.31C19.9682 148.31 19.5921 148.283 19.2437 148.228C18.6561 148.136 18.3354 147.678 18.2802 146.852C18.1882 146.156 18.1428 144.358 18.1428 141.46V138.847C18.1428 138.755 18.1977 138.709 18.3077 138.709H28.849C28.9405 138.709 28.9867 138.755 28.9867 138.847V141.46C28.9867 144.358 28.9497 146.156 28.8765 146.852C28.748 147.696 28.5004 148.155 28.1335 148.228C27.9133 148.283 27.6656 148.31 27.3902 148.31C27.2617 148.31 27.1978 148.365 27.1978 148.476C27.1978 148.604 27.3257 148.668 27.5829 148.668C27.8033 148.668 28.11 148.659 28.5051 148.641C28.8992 148.623 29.2481 148.609 29.5508 148.599C29.8534 148.59 30.0141 148.586 30.0326 148.586L30.5277 148.613C30.8581 148.613 31.2663 148.623 31.7526 148.641C32.2385 148.659 32.6836 148.668 33.0872 148.668C33.3626 148.668 33.5003 148.604 33.5003 148.476C33.5003 148.365 33.4269 148.31 33.2801 148.31C32.8763 148.31 32.5094 148.283 32.179 148.228C31.8303 148.173 31.5917 148.035 31.4634 147.815C31.3352 147.595 31.2433 147.275 31.1885 146.852C31.1148 146.156 31.0783 144.358 31.0783 141.46V137.086C31.0783 134.042 31.0963 132.254 31.1333 131.722C31.1513 130.879 31.4542 130.411 32.0415 130.319C32.3349 130.264 32.5459 130.236 32.6746 130.236C32.8028 130.236 32.8673 130.181 32.8673 130.071C32.8673 129.943 32.7296 129.879 32.4544 129.879C32.2342 129.879 31.9313 129.888 31.5464 129.906Z" fill="url(#paint7_linear_126_10851)"/>
<path d="M40.7532 130.179C39.643 130.601 38.7163 131.147 37.9735 131.816C37.2302 132.485 36.5972 133.251 36.0744 134.113C35.5515 134.975 35.1751 135.842 34.9459 136.713C34.7168 137.584 34.6021 138.432 34.6021 139.257C34.6021 140.175 34.7168 141.087 34.9459 141.995C35.1751 142.903 35.542 143.783 36.0469 144.636C36.5515 145.489 37.1708 146.236 37.9045 146.878C38.6383 147.52 39.5513 148.038 40.6432 148.432C41.7346 148.826 42.9318 149.023 44.2349 149.023C47.1702 149.023 49.5555 148.043 51.3907 146.08C53.2251 144.118 54.1429 141.715 54.1429 138.872C54.1429 136.03 53.2299 133.765 51.4044 132.077C49.5782 130.39 47.2437 129.546 44.4001 129.546C43.079 129.546 41.8631 129.757 40.7532 130.179ZM39.2119 145.461C37.6981 143.71 36.9413 141.412 36.9413 138.57C36.9413 135.929 37.6109 133.907 38.9505 132.504C40.2896 131.101 42.042 130.399 44.2071 130.399C46.2987 130.399 48.0832 131.216 49.5602 132.847C51.0373 134.48 51.7758 136.717 51.7758 139.56C51.7758 140.936 51.6061 142.155 51.2667 143.219C50.9271 144.283 50.51 145.113 50.0144 145.708C49.5193 146.305 48.9412 146.791 48.2804 147.166C47.6201 147.543 47.0188 147.79 46.4779 147.909C45.9366 148.029 45.4088 148.088 44.8952 148.088C42.6201 148.088 40.7257 147.213 39.2119 145.461Z" fill="url(#paint8_linear_126_10851)"/>
<path d="M65.8683 129.7C65.7946 129.764 65.7399 129.796 65.7031 129.796C65.6846 129.815 65.538 129.819 65.2628 129.81C64.9876 129.801 64.7764 129.796 64.6297 129.796C63.4738 129.851 61.5747 129.879 58.9327 129.879C58.914 129.879 58.749 129.874 58.4371 129.865C58.125 129.856 57.7443 129.842 57.2952 129.824C56.8451 129.806 56.4555 129.796 56.1253 129.796C55.8681 129.796 55.7399 129.861 55.7399 129.989C55.7399 130.099 55.8042 130.154 55.9329 130.154C56.281 130.154 56.5657 130.181 56.7859 130.236C57.1712 130.31 57.4369 130.456 57.5841 130.677C57.7306 130.897 57.8133 131.218 57.8318 131.639C57.8683 132.171 57.8868 133.96 57.8868 137.004V141.378C57.8868 144.276 57.8498 146.073 57.7768 146.77C57.6481 147.614 57.4094 148.072 57.061 148.146C56.7309 148.219 56.4737 148.256 56.2905 148.256C56.1618 148.256 56.0978 148.301 56.0978 148.393C56.0978 148.522 56.2355 148.586 56.5107 148.586C56.8039 148.586 57.2812 148.567 57.9418 148.531H58.9327C59.0794 148.531 59.4096 148.544 59.9234 148.572C60.437 148.599 61.1483 148.623 62.0565 148.641C62.9645 148.659 63.9692 148.668 65.0701 148.668C65.4555 148.668 65.7169 148.659 65.8546 148.641C65.9921 148.623 66.1068 148.572 66.1988 148.489C66.2902 148.407 66.3637 148.256 66.4187 148.035C66.4737 147.797 66.5426 147.366 66.6251 146.742C66.7076 146.119 66.7491 145.743 66.7491 145.615C66.7491 145.358 66.6941 145.229 66.5836 145.229C66.4917 145.229 66.4187 145.358 66.3637 145.615C66.2167 146.55 65.8499 147.146 65.2628 147.403C64.8224 147.586 64.0242 147.678 62.8683 147.678C61.6574 147.678 60.8819 147.554 60.5427 147.306C60.2028 147.059 60.0151 146.504 59.9784 145.642V141.378V139.205C59.9784 139.094 60.0336 139.039 60.1436 139.039C61.923 139.039 63.1159 139.076 63.7215 139.15C64.4373 139.223 64.8679 139.517 65.0151 140.03C65.0701 140.232 65.0976 140.497 65.0976 140.828C65.0976 140.993 65.1618 141.075 65.2903 141.075C65.4005 141.075 65.4555 140.91 65.4555 140.58C65.4555 140.525 65.483 140.002 65.538 139.012C65.556 138.774 65.5837 138.544 65.6207 138.324C65.6572 138.104 65.6894 137.939 65.7169 137.829C65.7446 137.719 65.7581 137.646 65.7581 137.609C65.7581 137.481 65.7122 137.416 65.6207 137.416C65.547 137.416 65.428 137.527 65.2628 137.747C65.1158 137.912 64.7215 138.022 64.0794 138.077C63.694 138.114 62.3819 138.132 60.1436 138.132C60.0336 138.132 59.9784 138.049 59.9784 137.884V131.034C59.9784 130.869 60.0336 130.787 60.1436 130.787C61.8501 130.787 62.9782 130.805 63.5291 130.842C64.1524 130.915 64.5792 131.02 64.8089 131.158C65.0381 131.295 65.1983 131.474 65.2903 131.694C65.4005 131.933 65.4555 132.236 65.4555 132.602C65.4555 132.804 65.5197 132.905 65.6479 132.905C65.7581 132.905 65.8134 132.813 65.8134 132.63C65.8314 132.52 65.8589 132.231 65.8958 131.763C65.9323 131.295 65.9511 131.043 65.9511 131.007C65.9691 130.805 65.9966 130.617 66.0335 130.443C66.07 130.269 66.0975 130.131 66.116 130.03C66.134 129.929 66.1435 129.851 66.1435 129.796C66.1435 129.668 66.116 129.604 66.061 129.604C66.0058 129.604 65.9416 129.636 65.8683 129.7Z" fill="url(#paint9_linear_126_10851)"/>
<path d="M70.2982 130.816L70.2707 145.039C70.2707 146.213 70.2244 147.015 70.133 147.446C70.041 147.878 69.8396 148.13 69.5274 148.203C69.2887 148.295 68.9496 148.34 68.5092 148.34C68.3805 148.34 68.3168 148.395 68.3168 148.506C68.3168 148.615 68.4447 148.67 68.7019 148.67H71.0964H73.7386C74.0318 148.67 74.1787 148.615 74.1787 148.506C74.1787 148.395 74.1143 148.34 73.9863 148.34C73.4725 148.34 73.0593 148.295 72.7479 148.203C72.399 148.111 72.1511 147.859 72.0047 147.446C71.8577 147.034 71.775 146.323 71.7567 145.314L71.4541 133.43L77.9218 140.555C78.6926 141.417 79.6008 142.394 80.6465 143.485C81.6925 144.576 82.5502 145.452 83.22 146.112C83.8895 146.772 84.2887 147.167 84.4174 147.295C85.4811 148.34 86.0866 148.863 86.2336 148.863C86.2888 148.863 86.3253 148.85 86.3438 148.822C86.3618 148.794 86.3803 148.721 86.3988 148.602C86.417 148.483 86.4308 148.308 86.44 148.079C86.449 147.85 86.454 147.525 86.454 147.103L86.509 132.55C86.509 131.761 86.564 131.216 86.6739 130.913C86.7842 130.61 87.0408 130.422 87.4447 130.349C87.6279 130.294 87.8206 130.266 88.0228 130.266C88.2057 130.266 88.2977 130.211 88.2977 130.101C88.2977 129.973 88.1507 129.909 87.8576 129.909C87.4537 129.909 87.0088 129.922 86.5227 129.95C86.0364 129.977 85.7747 129.991 85.7382 129.991C85.72 129.991 85.3943 129.977 84.7613 129.95C84.1282 129.922 83.5916 129.909 83.1513 129.909C82.8209 129.909 82.6559 129.973 82.6559 130.101C82.6559 130.211 82.7199 130.266 82.8484 130.266C83.252 130.266 83.6646 130.303 84.087 130.376C84.4721 130.486 84.7243 130.702 84.8438 131.023C84.963 131.344 85.0317 131.917 85.0502 132.742L85.3254 145.369L79.3532 138.877C74.3992 133.558 71.766 130.725 71.4541 130.376C70.977 129.845 70.6833 129.579 70.5733 129.579C70.3899 129.579 70.2982 129.991 70.2982 130.816Z" fill="url(#paint10_linear_126_10851)"/>
<path d="M93.3336 129.996H90.8291C90.5719 129.996 90.4437 130.051 90.4437 130.161C90.4437 130.271 90.5079 130.326 90.6367 130.326C90.9668 130.326 91.2235 130.353 91.4069 130.408C91.9205 130.537 92.2052 131.005 92.2604 131.812C92.2967 132.344 92.3151 134.132 92.3151 137.176V141.55C92.3151 144.448 92.2694 146.245 92.1777 146.942C92.049 147.786 91.8106 148.235 91.4619 148.29C91.1685 148.364 90.9206 148.4 90.7191 148.4C90.5904 148.4 90.5262 148.446 90.5262 148.538C90.5262 148.684 90.6544 148.758 90.9116 148.758C91.1318 148.758 91.4347 148.753 91.8198 148.744C92.2052 148.735 92.5536 148.721 92.8657 148.703C93.1776 148.684 93.3426 148.675 93.3611 148.675L93.8567 148.703C94.1868 148.721 94.595 148.735 95.0813 148.744C95.5672 148.753 96.0125 148.758 96.4162 148.758C96.6731 148.758 96.8015 148.684 96.8015 148.538C96.8015 148.446 96.7368 148.4 96.6088 148.4C96.3337 148.4 95.9573 148.364 95.4804 148.29C94.9301 148.235 94.6087 147.786 94.517 146.942C94.425 146.245 94.3795 144.448 94.3795 141.55V137.176C94.3795 134.132 94.3975 132.344 94.4345 131.812C94.4712 131.353 94.5537 131.019 94.6822 130.808C94.8104 130.597 95.0401 130.455 95.3705 130.381C95.5537 130.344 95.7556 130.326 95.9758 130.326C96.104 130.326 96.1685 130.271 96.1685 130.161C96.1685 130.051 96.0398 129.996 95.7831 129.996H93.3336Z" fill="url(#paint11_linear_126_10851)"/>
<path d="M113.439 130.033C112.916 130.061 112.645 130.074 112.627 130.074C112.608 130.074 112.329 130.061 111.787 130.033C111.246 130.005 110.792 129.992 110.425 129.992C110.132 129.992 109.985 130.047 109.985 130.157C109.985 130.285 110.058 130.349 110.205 130.349C110.535 130.349 110.783 130.368 110.948 130.404C111.241 130.496 111.388 130.652 111.388 130.872C111.388 131.111 111.306 131.404 111.141 131.753C111.012 132.009 110.462 132.917 109.489 134.476C108.517 136.035 107.847 137.072 107.48 137.585C106.452 135.897 105.334 133.926 104.123 131.67C103.957 131.34 103.875 131.065 103.875 130.845C103.875 130.625 103.975 130.478 104.178 130.404C104.306 130.368 104.526 130.349 104.838 130.349C104.985 130.349 105.058 130.285 105.058 130.157C105.058 130.047 104.921 129.992 104.645 129.992C104.315 129.992 103.847 130.005 103.242 130.033C102.636 130.061 102.324 130.074 102.306 130.074C102.287 130.074 101.866 130.061 101.04 130.033C100.214 130.005 99.6638 129.992 99.3886 129.992C99.1134 129.992 98.9757 130.047 98.9757 130.157C98.9757 130.285 99.049 130.349 99.1959 130.349C99.5813 130.349 99.9297 130.404 100.242 130.514C100.627 130.662 100.966 130.89 101.26 131.202C101.553 131.514 101.866 131.945 102.196 132.495L106.159 139.18L101.673 146.305C101.251 146.966 100.893 147.443 100.6 147.736C100.306 148.029 99.9757 148.222 99.609 148.314C99.2601 148.387 98.939 148.424 98.6456 148.424C98.5169 148.424 98.4529 148.506 98.4529 148.671C98.4529 148.744 98.5353 148.781 98.7005 148.781C99.0309 148.781 99.4851 148.763 100.063 148.726C100.641 148.689 100.939 148.671 100.957 148.671C100.994 148.671 101.343 148.689 102.003 148.726C102.664 148.763 103.113 148.781 103.352 148.781C103.554 148.781 103.655 148.744 103.655 148.671C103.655 148.506 103.59 148.424 103.462 148.424C103.352 148.424 103.187 148.406 102.967 148.369C102.709 148.332 102.581 148.176 102.581 147.901C102.581 147.571 102.691 147.213 102.911 146.828L106.792 140.226L111.058 147.626C111.241 147.974 111.205 148.213 110.948 148.341C110.838 148.378 110.783 148.442 110.783 148.534C110.783 148.589 111.04 148.635 111.554 148.671C111.774 148.671 112.347 148.689 113.274 148.726C114.2 148.763 114.957 148.781 115.544 148.781C115.764 148.781 115.875 148.717 115.875 148.589C115.875 148.479 115.81 148.424 115.682 148.424C115.498 148.424 115.205 148.378 114.801 148.286C114.306 148.139 113.819 147.763 113.343 147.158C113.195 146.957 112.732 146.214 111.953 144.93C111.173 143.646 110.347 142.271 109.476 140.803C108.604 139.336 108.15 138.566 108.113 138.492L112.104 132.467C112.416 132.009 112.641 131.679 112.778 131.477C112.916 131.276 113.099 131.074 113.329 130.872C113.558 130.671 113.792 130.533 114.031 130.459C114.251 130.386 114.516 130.349 114.829 130.349C115.012 130.349 115.104 130.285 115.104 130.157C115.104 130.047 114.975 129.992 114.719 129.992C114.389 129.992 113.962 130.005 113.439 130.033Z" fill="url(#paint12_linear_126_10851)"/>
<path d="M42.8754 189.606C42.1731 190.053 41.5955 190.683 41.1431 191.497C40.6905 192.311 40.4644 193.261 40.4644 194.346C40.4644 195.197 40.6296 195.992 40.9595 196.732C41.2894 197.471 41.694 198.049 42.1731 198.463C43.3757 199.496 44.9562 200.012 46.9151 200.012C48.1388 200.012 49.161 199.794 49.9807 199.357C50.0657 199.304 50.1189 199.24 50.1404 199.166C50.1614 199.091 50.1724 198.895 50.1724 198.575V196.963C50.1724 196.272 50.1774 195.772 50.1881 195.463C50.2094 195.197 50.2574 195.003 50.3321 194.881C50.4063 194.758 50.5393 194.681 50.731 194.649C50.9012 194.617 51.0184 194.601 51.0824 194.601C51.1674 194.601 51.2101 194.569 51.2101 194.506C51.2101 194.431 51.1304 194.394 50.9707 194.394C50.8427 194.394 50.6672 194.396 50.4438 194.402C50.2201 194.407 50.0204 194.415 49.845 194.426C49.6693 194.436 49.5761 194.442 49.5656 194.442C49.5548 194.442 49.4564 194.436 49.2702 194.426C49.0837 194.415 48.8631 194.407 48.6076 194.402C48.3522 194.396 48.1285 194.394 47.9368 194.394C47.7771 194.394 47.6974 194.431 47.6974 194.506C47.6974 194.569 47.7346 194.601 47.8091 194.601C48.0328 194.601 48.1975 194.617 48.3042 194.649C48.5914 194.724 48.7723 194.843 48.8471 195.008C48.9215 195.173 48.9588 195.549 48.9588 196.133V198.575C48.9588 198.799 48.8631 198.969 48.6714 199.086C48.2985 199.288 47.7504 199.389 47.0269 199.389C45.5473 199.389 44.2857 198.873 43.2428 197.841C42.8809 197.49 42.5347 196.961 42.2051 196.253C41.8747 195.546 41.71 194.745 41.71 193.851C41.71 193.032 41.8402 192.303 42.1011 191.665C42.3618 191.026 42.7104 190.532 43.147 190.18C43.9346 189.553 44.9617 189.239 46.2286 189.239C47.0906 189.239 47.8196 189.356 48.4159 189.59C49.0118 189.824 49.4111 190.095 49.6136 190.404C49.7835 190.681 49.8847 191 49.9167 191.361C49.9382 191.5 49.9752 191.569 50.0284 191.569C50.1137 191.569 50.1564 191.468 50.1564 191.266C50.1564 190.84 50.1642 190.476 50.1801 190.173C50.1961 189.869 50.2121 189.643 50.2281 189.494C50.2441 189.345 50.2521 189.255 50.2521 189.223C50.2521 189.149 50.1934 189.106 50.0764 189.095C49.6613 189.074 49.2724 189.026 48.9108 188.952C48.1868 188.782 47.4525 188.696 46.7075 188.696C45.1319 188.696 43.8546 189 42.8754 189.606Z" fill="url(#paint13_linear_126_10851)"/>
<path d="M56.8858 189.113C56.2415 189.358 55.7042 189.674 55.2731 190.062C54.8419 190.451 54.4748 190.895 54.1714 191.395C53.868 191.895 53.6495 192.398 53.5166 192.903C53.3839 193.408 53.3171 193.901 53.3171 194.379C53.3171 194.912 53.3839 195.441 53.5166 195.967C53.6495 196.494 53.8625 197.005 54.1554 197.5C54.448 197.994 54.8074 198.428 55.2331 198.8C55.6587 199.173 56.1885 199.473 56.8218 199.702C57.4551 199.931 58.1497 200.045 58.9054 200.045C60.6084 200.045 61.9923 199.476 63.0567 198.337C64.1211 197.199 64.6534 195.805 64.6534 194.156C64.6534 192.507 64.1239 191.193 63.0649 190.214C62.0055 189.235 60.6512 188.746 59.0012 188.746C58.2349 188.746 57.5294 188.868 56.8858 189.113ZM55.9916 197.978C55.1134 196.962 54.6742 195.629 54.6742 193.98C54.6742 192.448 55.0626 191.275 55.8399 190.461C56.6166 189.647 57.6333 189.24 58.8894 189.24C60.1028 189.24 61.138 189.714 61.995 190.661C62.8517 191.608 63.2804 192.906 63.2804 194.555C63.2804 195.353 63.1819 196.061 62.985 196.677C62.7878 197.295 62.5458 197.776 62.2584 198.122C61.971 198.468 61.6356 198.75 61.2525 198.968C60.8693 199.186 60.5207 199.33 60.2066 199.399C59.8926 199.468 59.5865 199.502 59.2886 199.502C57.9687 199.502 56.8698 198.994 55.9916 197.978Z" fill="url(#paint14_linear_126_10851)"/>
<path d="M69.8442 189.257L66.5712 198.21C66.3797 198.742 66.1745 199.106 65.9566 199.303C65.7382 199.5 65.4 199.598 64.9427 199.598C64.8574 199.598 64.8147 199.625 64.8147 199.678C64.8147 199.784 64.9054 199.838 65.0864 199.838C65.352 199.838 65.6874 199.83 66.0921 199.814C66.4967 199.798 66.7041 199.79 66.7149 199.79C66.7574 199.79 66.9223 199.798 67.21 199.814C67.4974 199.83 67.7048 199.838 67.8325 199.838C67.9815 199.838 68.056 199.784 68.056 199.678C68.056 199.625 68.0082 199.598 67.9123 199.598H67.7686C67.6303 199.598 67.5051 199.561 67.3934 199.487C67.2817 199.412 67.226 199.311 67.226 199.183C67.226 198.896 67.2897 198.572 67.4174 198.21L68.2796 195.657C68.3219 195.582 68.3699 195.545 68.4234 195.545H71.5369C71.5899 195.545 71.6324 195.577 71.6646 195.641L73.0057 199.183C73.0694 199.343 73.0537 199.46 72.9577 199.535C72.862 199.609 72.814 199.652 72.814 199.662C72.814 199.779 73.7135 199.838 75.5124 199.838C75.7041 199.838 75.7999 199.784 75.7999 199.678C75.7999 199.625 75.7519 199.598 75.6564 199.598C75.1983 199.598 74.8419 199.468 74.5865 199.207C74.331 198.947 74.0806 198.513 73.836 197.907L70.483 189.225C70.3445 188.874 70.2378 188.698 70.1636 188.698C70.0891 188.698 69.9826 188.884 69.8442 189.257ZM68.5511 194.922L69.8124 191.028C69.8867 190.837 69.9611 190.837 70.0359 191.028L71.3932 194.922C71.4142 194.997 71.3982 195.034 71.3452 195.034H68.5828C68.5296 195.034 68.5191 194.997 68.5511 194.922Z" fill="url(#paint15_linear_126_10851)"/>
<path d="M1.99631 183.812H115.874" stroke="url(#paint16_linear_126_10851)" stroke-width="0.499848" stroke-miterlimit="10"/>
<path d="M72.6357 92.8106C96.3822 103.851 108.264 102.725 115.856 74.5034C101.555 86.4377 94.2114 90.8783 72.6357 92.8106Z" fill="url(#paint17_linear_126_10851)"/>
<path d="M61.7235 90.9449C61.0282 91.5339 60.3254 92.1147 59.6144 92.6851C58.1536 93.8569 56.6575 94.9858 55.1195 96.055C52.0934 98.158 48.8999 100.032 45.5272 101.524C41.7443 103.198 37.724 104.379 33.61 104.86C29.699 105.318 25.6807 105.015 21.7856 104.647C24.6275 106.797 28.5496 109.96 31.6531 111.713C34.4023 113.266 37.2614 114.655 40.2438 115.702C41.6001 116.178 42.9837 116.584 44.3923 116.874C45.9095 117.186 46.6286 116.447 47.9017 115.625C50.0738 114.222 52.1077 112.606 53.9686 110.81C56.4373 108.428 58.7801 105.833 60.3796 102.798C64.7458 94.5147 63.5317 89.4747 63.6516 89.3118C63.1973 89.9279 62.3088 90.4487 61.7235 90.9449Z" fill="url(#paint18_linear_126_10851)"/>
<path d="M50.3801 118.039C50.4933 118.028 50.6063 117.991 50.7193 118.004C55.3259 118.531 59.4626 118.883 64.2149 118.386C66.9681 118.098 70.537 117.698 73.3741 116.824C75.9014 116.046 77.1 115.737 78.4723 115.214C73.2374 112.052 67.5104 106.061 64.9117 96.9417C62.205 103.598 58.4757 112.474 50.3801 118.039Z" fill="url(#paint19_linear_126_10851)"/>
<path d="M82.1026 113.869C87.6556 112.204 93.049 109.387 98.536 103.341C87.117 102.736 74.5691 100.73 66.8632 92.8127C69.1747 102.196 76.3383 111.582 82.1026 113.869Z" fill="url(#paint20_linear_126_10851)"/>
<path d="M72.9344 70.95C72.746 70.9025 70.4344 73.0709 70.2245 73.2265C67.3981 75.3242 64.2881 77.1096 61.1145 78.6239C53.2124 82.3944 44.8717 85.0586 35.909 84.0116C29.046 83.2097 22.8387 80.6692 17.1737 76.8937C11.3822 73.0341 5.8651 68.8138 1.42395 63.4034C1.62664 68.8121 2.96948 74.2315 5.11233 79.1913C10.4824 91.6192 22.7092 103.898 37.5579 100.885C52.8078 97.7903 62.4366 85.4163 75.041 77.6569C78.1056 75.7703 81.4818 73.861 85.052 73.1725C86.578 72.8783 88.2443 72.7439 89.7493 73.2237C90.3974 73.4303 92.9406 74.6634 92.7239 75.6322C92.7591 75.4746 94.0338 69.4326 85.0223 68.2827C85.0223 68.2827 85.3656 66.5315 82.2109 66.242C81.3446 66.1591 80.2125 66.1885 78.7344 66.3976L78.375 66.4513C78.1818 66.4808 77.9804 66.513 77.7767 66.5478C74.8958 67.0491 72.8005 66.5827 71.3359 65.864C69.2758 64.856 68.4628 63.3517 68.4628 63.3517C68.4628 63.3517 68.8482 69.6937 72.9344 70.95Z" fill="url(#paint21_linear_126_10851)"/>
<path d="M60.4761 1.92887C45.0108 14.5094 33.2344 49.4232 42.3166 71.8164C46.7278 43.3902 64.05 20.385 89.8797 8.91862C82.7993 4.11222 74.5743 1.70654 67.0916 0.230148C66.4608 0.104988 65.8695 0.0430298 65.3081 0.0430298C63.5054 0.042778 62.0084 0.6828 60.4761 1.92887ZM57.5745 17.6096C57.5595 17.5621 58.0768 10.46 58.1868 7.12997C58.1868 6.97508 69.166 2.74076 69.6308 2.74076C69.5883 6.12072 69.3009 13.4702 69.2734 13.5501C69.2734 13.5501 57.8981 17.6113 57.581 17.6116C57.577 17.6116 57.575 17.6111 57.5745 17.6096Z" fill="url(#paint22_linear_126_10851)"/>
<path d="M69.6306 2.74445C69.5881 6.12441 69.3007 13.4739 69.2732 13.5538C69.2732 13.5538 57.6093 17.7182 57.5743 17.6133C57.5593 17.5658 58.0766 10.4637 58.1866 7.13365C58.1866 6.97877 69.1658 2.74445 69.6306 2.74445Z" fill="#D40000"/>
<path d="M21.6779 31.3649C20.9931 45.0996 29.8679 66.8158 42.3716 78.7793C29.5105 50.5855 37.6056 25.5143 51.7963 0.582985C29.9954 3.6282 22.6876 11.19 21.6779 31.3649ZM27.5686 20.4406C26.5614 19.6187 26.3515 18.1348 26.8838 16.6934C27.4587 15.1421 28.9182 13.9005 31.2325 13.7231C30.6777 13.0586 30.5702 12.3616 31.0326 11.4373C31.4999 10.5155 32.3672 9.63619 33.5743 8.78433C35.5737 7.37289 37.5531 6.79332 38.4703 7.73261C39.42 8.70689 38.9227 10.8878 36.9833 13.0361C38.1654 12.6539 39.0901 12.7089 39.6999 13.3884C40.3123 14.0754 40.4372 15.1196 40.2223 16.3986C39.8874 18.3996 38.8452 20.0534 37.3032 20.6854C36.4409 21.0426 35.5987 21.0351 34.8289 20.5955C34.0867 20.1683 33.5868 19.4888 33.4568 18.4846C33.1194 19.4214 33.0595 20.2807 33.2419 21.0751C33.3644 21.6072 33.6018 22.0469 33.9317 22.3991C34.0067 22.4816 34.1266 22.5715 34.0342 22.7264L29.7305 22.7638C29.7055 22.5665 29.9029 22.4616 30.0329 22.3617C30.8301 21.7346 31.46 20.9352 31.8648 19.956C32.0598 19.4813 32.2497 18.9917 32.2272 18.4846C31.4775 19.7386 30.4628 20.4531 29.3681 20.7553C29.1337 20.8203 28.9157 20.8508 28.7128 20.8508C28.2609 20.8508 27.8843 20.6991 27.5686 20.4406Z" fill="url(#paint23_linear_126_10851)"/>
<path d="M40.2236 16.3965C39.8887 18.3975 38.8466 20.0513 37.3045 20.6833C36.4423 21.0405 35.6 21.033 34.8303 20.5933C34.088 20.1662 33.5882 19.4867 33.4582 18.4824C33.1208 19.4192 33.0608 20.2786 33.2433 21.073C33.3657 21.6051 33.6032 22.0448 33.9331 22.397C34.008 22.4794 34.128 22.5694 34.0355 22.7242L29.7318 22.7617C29.7068 22.5644 29.9043 22.4594 30.0342 22.3595C30.8315 21.7325 31.4613 20.9331 31.8662 19.9538C32.0611 19.4792 32.2511 18.9896 32.2286 18.4824C31.4788 19.7365 30.4641 20.451 29.3694 20.7532C28.6122 20.9631 28.0273 20.8132 27.57 20.4385C26.5628 19.6166 26.3529 18.1327 26.8852 16.6913C27.46 15.1399 28.9196 13.8984 31.2339 13.721C30.679 13.0565 30.5716 12.3595 31.0339 11.4352C31.5013 10.5134 32.3685 9.63407 33.5757 8.78221C35.5751 7.37077 37.5544 6.79121 38.4717 7.7305C39.4214 8.70477 38.924 10.8856 36.9846 13.034C38.1668 12.6518 39.0915 12.7068 39.7013 13.3863C40.3136 14.0732 40.4386 15.1175 40.2236 16.3965Z" fill="black"/>
<path d="M51.6868 50.748C60.2692 44.0106 67.407 40.8405 77.3015 39.1018C87.3335 37.3381 103.773 37.0433 114.333 38.0351C111.184 29.6014 105.6 21.3576 98.8375 15.497C77.0266 17.7628 57.3651 35.1473 51.6868 50.748ZM87.291 21.7199C87.8983 20.0386 89.3054 19.4091 91.2573 19.5565C93.0842 19.6964 94.9162 20.3709 96.7456 21.1028C98.8 21.9272 103.364 23.0938 103.411 23.1288C103.471 23.1762 101.944 26.1016 101.414 27.8802C100.984 29.3291 100.242 30.793 98.9799 31.9347C97.5254 33.2537 95.2935 33.3036 93.2967 32.3743C90.1926 30.9254 90.1251 28.5297 91.9546 27.3556C92.0445 27.2982 92.167 27.2457 92.157 27.1033C91.5747 27.1758 91.0873 27.3906 90.6 27.6104C89.6253 28.0476 88.823 28.5922 88.2882 29.3042C88.1782 29.4465 87.8383 30.3234 87.4284 29.2867C86.9661 28.3748 86.5062 27.528 85.9789 26.6312C85.9214 26.5362 85.7615 26.4288 85.9414 26.3214C86.1113 26.2215 86.2913 26.2989 86.4437 26.3439C88.0183 26.826 89.6428 26.7885 91.1823 26.3139C91.3123 26.2739 91.4297 26.2215 91.5522 26.1765C91.4847 26.0466 91.3498 26.0866 91.2548 26.0916C91.1496 26.0991 91.0441 26.1026 90.9396 26.1026C88.5413 26.1026 86.3833 24.214 87.291 21.7199Z" fill="url(#paint24_linear_126_10851)"/>
<path d="M101.413 27.8823C100.983 29.3312 100.241 30.7951 98.9789 31.9368C97.5243 33.2558 95.2925 33.3057 93.2956 32.3764C90.1916 30.9275 90.1241 28.5318 91.9535 27.3577C92.0435 27.3003 92.166 27.2478 92.156 27.1054C91.5736 27.1778 91.0863 27.3927 90.5989 27.6125C89.6242 28.0497 88.822 28.5943 88.2871 29.3062C88.1772 29.4486 87.8373 30.3255 87.4274 29.2888C86.965 28.3769 86.5052 27.5301 85.9778 26.6333C85.9204 26.5383 85.7604 26.4309 85.9404 26.3235C86.1103 26.2236 86.2902 26.301 86.4427 26.346C88.0172 26.8281 89.6417 26.7906 91.1813 26.316C91.3112 26.276 91.4287 26.2236 91.5511 26.1786C91.4837 26.0487 91.3487 26.0887 91.2537 26.0937C88.7345 26.2685 86.3427 24.325 87.2899 21.7219C87.8973 20.0407 89.3043 19.4112 91.2562 19.5586C93.0832 19.6985 94.9151 20.373 96.7446 21.1049C98.7989 21.9293 103.363 23.0959 103.41 23.1309C103.47 23.1783 101.943 26.1036 101.413 27.8823Z" fill="black"/>
<path d="M15.6562 58.8342C13.921 58.9524 12.1431 59.063 11.0197 59.2969C10.29 59.4502 9.62801 59.4528 9.06632 59.0529C8.44444 58.6054 8.03069 58.2835 7.59438 57.6549C7.22075 57.1117 6.90229 56.5334 6.6064 55.9526C6.38824 55.5201 6.18764 55.0775 6.0422 54.6148C5.8767 54.0918 5.76135 53.5537 5.69114 53.0056C5.46797 51.2027 6.12746 49.5934 7.04272 49.8675C7.11544 49.8876 7.93039 50.2396 8.03069 50.2748C7.98305 50.1767 7.79498 49.9203 7.72728 49.8197C7.02266 48.7711 6.50861 47.6019 6.29797 46.3572C5.86416 43.81 5.58582 40.0056 8.06329 41.5947C9.91387 42.7791 11.4234 45.5702 12.3938 47.6748C13.0232 48.9396 13.4696 50.1315 13.8959 51.341C14.6582 53.511 15.1873 55.7112 15.5709 57.4789C15.6562 57.8812 15.7214 58.2684 15.764 58.6305C15.7765 58.7412 15.7765 58.8241 15.6562 58.8342Z" fill="#D40000"/>
<path d="M6.03426 60.7283C11.915 72.5469 32.2063 82.7442 42.963 81.1105C21.9694 67.7855 15.6588 44.0858 13.312 21.3578C4.75465 29.7016 0.081068 48.7323 6.03426 60.7283ZM7.74874 49.8614C7.04645 48.8197 6.5341 47.6581 6.32417 46.4215C5.8918 43.8909 5.61439 40.1113 8.08363 41.6901C9.92807 42.8667 11.4326 45.6396 12.3998 47.7305C13.0271 48.9871 13.472 50.1712 13.8969 51.3728C14.6566 53.5287 15.184 55.7145 15.5664 57.4707C15.6513 57.8704 15.7163 58.2551 15.7588 58.6149C15.7713 58.7248 15.7713 58.8072 15.6513 58.8172C13.9219 58.9346 12.1499 59.0445 11.0302 59.2769C10.303 59.4293 9.64316 59.4318 9.08333 59.0345C8.46352 58.5899 8.05115 58.2701 7.61628 57.6456C7.24389 57.106 6.92649 56.5314 6.63158 55.9544C6.41414 55.5247 6.2142 55.085 6.06925 54.6254C5.9043 54.1057 5.78934 53.5712 5.71936 53.0266C5.49692 51.2354 6.15422 49.6366 7.06644 49.9089C7.13892 49.9289 7.95117 50.2786 8.05114 50.3136C8.00366 50.2162 7.81622 49.9614 7.74874 49.8614Z" fill="url(#paint25_linear_126_10851)"/>
</g>
<defs>
<linearGradient id="paint0_linear_126_10851" x1="-14.8413" y1="126.982" x2="52.5526" y2="215.779" gradientUnits="userSpaceOnUse">
<stop stop-color="#E7C980"/>
<stop offset="1" stop-color="#9E8253"/>
</linearGradient>
<linearGradient id="paint1_linear_126_10851" x1="-4.0326" y1="118.774" x2="63.3613" y2="207.571" gradientUnits="userSpaceOnUse">
<stop stop-color="#E7C980"/>
<stop offset="1" stop-color="#9E8253"/>
</linearGradient>
<linearGradient id="paint2_linear_126_10851" x1="9.74911" y1="108.308" x2="77.143" y2="197.105" gradientUnits="userSpaceOnUse">
<stop stop-color="#E7C980"/>
<stop offset="1" stop-color="#9E8253"/>
</linearGradient>
<linearGradient id="paint3_linear_126_10851" x1="16.9725" y1="102.832" x2="84.3664" y2="191.629" gradientUnits="userSpaceOnUse">
<stop stop-color="#E7C980"/>
<stop offset="1" stop-color="#9E8253"/>
</linearGradient>
<linearGradient id="paint4_linear_126_10851" x1="28.1581" y1="94.342" x2="95.552" y2="183.139" gradientUnits="userSpaceOnUse">
<stop stop-color="#E7C980"/>
<stop offset="1" stop-color="#9E8253"/>
</linearGradient>
<linearGradient id="paint5_linear_126_10851" x1="43.7739" y1="82.483" x2="111.168" y2="171.28" gradientUnits="userSpaceOnUse">
<stop stop-color="#E7C980"/>
<stop offset="1" stop-color="#9E8253"/>
</linearGradient>
<linearGradient id="paint6_linear_126_10851" x1="-7.78944" y1="121.619" x2="59.6044" y2="210.416" gradientUnits="userSpaceOnUse">
<stop stop-color="#E7C980"/>
<stop offset="1" stop-color="#9E8253"/>
</linearGradient>
<linearGradient id="paint7_linear_126_10851" x1="3.59214" y1="112.981" x2="70.986" y2="201.778" gradientUnits="userSpaceOnUse">
<stop stop-color="#E7C980"/>
<stop offset="1" stop-color="#9E8253"/>
</linearGradient>
<linearGradient id="paint8_linear_126_10851" x1="16.8483" y1="102.919" x2="84.2422" y2="191.716" gradientUnits="userSpaceOnUse">
<stop stop-color="#E7C980"/>
<stop offset="1" stop-color="#9E8253"/>
</linearGradient>
<linearGradient id="paint9_linear_126_10851" x1="27.5182" y1="94.8238" x2="94.9121" y2="183.621" gradientUnits="userSpaceOnUse">
<stop stop-color="#E7C980"/>
<stop offset="1" stop-color="#9E8253"/>
</linearGradient>
<linearGradient id="paint10_linear_126_10851" x1="38.3042" y1="86.6394" x2="105.698" y2="175.436" gradientUnits="userSpaceOnUse">
<stop stop-color="#E7C980"/>
<stop offset="1" stop-color="#9E8253"/>
</linearGradient>
<linearGradient id="paint11_linear_126_10851" x1="47.8161" y1="79.4245" x2="115.21" y2="168.221" gradientUnits="userSpaceOnUse">
<stop stop-color="#E7C980"/>
<stop offset="1" stop-color="#9E8253"/>
</linearGradient>
<linearGradient id="paint12_linear_126_10851" x1="56.3117" y1="72.9728" x2="123.706" y2="161.77" gradientUnits="userSpaceOnUse">
<stop stop-color="#E7C980"/>
<stop offset="1" stop-color="#9E8253"/>
</linearGradient>
<linearGradient id="paint13_linear_126_10851" x1="-7.03964" y1="123.79" x2="60.3543" y2="212.587" gradientUnits="userSpaceOnUse">
<stop stop-color="#E7C980"/>
<stop offset="1" stop-color="#9E8253"/>
</linearGradient>
<linearGradient id="paint14_linear_126_10851" x1="0.857006" y1="117.798" x2="68.2509" y2="206.595" gradientUnits="userSpaceOnUse">
<stop stop-color="#E7C980"/>
<stop offset="1" stop-color="#9E8253"/>
</linearGradient>
<linearGradient id="paint15_linear_126_10851" x1="6.31561" y1="113.657" x2="73.7095" y2="202.453" gradientUnits="userSpaceOnUse">
<stop stop-color="#E7C980"/>
<stop offset="1" stop-color="#9E8253"/>
</linearGradient>
<linearGradient id="paint16_linear_126_10851" x1="nan" y1="nan" x2="nan" y2="nan" gradientUnits="userSpaceOnUse">
<stop stop-color="#E7C980"/>
<stop offset="1" stop-color="#9E8253"/>
</linearGradient>
<linearGradient id="paint17_linear_126_10851" x1="-15.9882" y1="86.9079" x2="80.0958" y2="86.9079" gradientUnits="userSpaceOnUse">
<stop stop-color="#E7C980"/>
<stop offset="1" stop-color="#9E8253"/>
</linearGradient>
<linearGradient id="paint18_linear_126_10851" x1="-15.9845" y1="103.129" x2="80.0995" y2="103.129" gradientUnits="userSpaceOnUse">
<stop stop-color="#E7C980"/>
<stop offset="1" stop-color="#9E8253"/>
</linearGradient>
<linearGradient id="paint19_linear_126_10851" x1="-15.9855" y1="107.783" x2="80.0984" y2="107.783" gradientUnits="userSpaceOnUse">
<stop stop-color="#E7C980"/>
<stop offset="1" stop-color="#9E8253"/>
</linearGradient>
<linearGradient id="paint20_linear_126_10851" x1="-15.9859" y1="103.341" x2="80.098" y2="103.341" gradientUnits="userSpaceOnUse">
<stop stop-color="#E7C980"/>
<stop offset="1" stop-color="#9E8253"/>
</linearGradient>
<linearGradient id="paint21_linear_126_10851" x1="-15.9866" y1="82.3486" x2="80.0973" y2="82.3486" gradientUnits="userSpaceOnUse">
<stop stop-color="#E7C980"/>
<stop offset="1" stop-color="#9E8253"/>
</linearGradient>
<linearGradient id="paint22_linear_126_10851" x1="-15.988" y1="35.9297" x2="80.0971" y2="35.9297" gradientUnits="userSpaceOnUse">
<stop stop-color="#E7C980"/>
<stop offset="1" stop-color="#9E8253"/>
</linearGradient>
<linearGradient id="paint23_linear_126_10851" x1="-15.9882" y1="39.6811" x2="80.0976" y2="39.6811" gradientUnits="userSpaceOnUse">
<stop stop-color="#E7C980"/>
<stop offset="1" stop-color="#9E8253"/>
</linearGradient>
<linearGradient id="paint24_linear_126_10851" x1="-15.9888" y1="33.1225" x2="80.0957" y2="33.1225" gradientUnits="userSpaceOnUse">
<stop stop-color="#E7C980"/>
<stop offset="1" stop-color="#9E8253"/>
</linearGradient>
<linearGradient id="paint25_linear_126_10851" x1="-15.9898" y1="51.3205" x2="80.0949" y2="51.3205" gradientUnits="userSpaceOnUse">
<stop stop-color="#E7C980"/>
<stop offset="1" stop-color="#9E8253"/>
</linearGradient>
<clipPath id="clip0_126_10851">
<rect width="116.265" height="199.999" fill="white" transform="matrix(1 0 0 -1 0 200)"/>
</clipPath>
</defs>
</svg>
