<svg xmlns="http://www.w3.org/2000/svg" width="16" height="25" viewBox="0 0 16 25" fill="none">
<g clip-path="url(#clip0_126_10488)">
<path d="M11.2997 6.30542L15.5852 7.84525L15.7198 7.47027C16.4885 5.33247 15.3738 2.9684 13.2368 2.20041L8.6259 0.543779C8.17599 0.381881 7.70743 0.299805 7.23316 0.299805C5.50024 0.299805 3.94237 1.39573 3.35619 3.02703L3.2215 3.40201L7.8101 5.05067C7.92532 5.09231 7.985 5.21941 7.94396 5.33418C7.90345 5.44602 7.77545 5.50908 7.6606 5.46805L3.0717 3.81886L2.34083 5.85295L6.92943 7.50176C7.04466 7.54318 7.10441 7.67027 7.0633 7.78512C7.02264 7.89704 6.89403 7.9601 6.77994 7.91906L2.19134 6.26987L1.46047 8.30396L6.04907 9.95278C6.16429 9.99426 6.22404 10.1213 6.18293 10.2365C6.14265 10.3483 6.01442 10.4119 5.89957 10.37L1.31037 8.7208L0.579878 10.7551L5.16825 12.4038C5.2241 12.4237 5.26867 12.4645 5.29415 12.5182C5.31925 12.5715 5.32218 12.6318 5.30212 12.6874C5.26183 12.7991 5.13285 12.8623 5.01876 12.8209L0.419709 11.1683L0.297873 11.569C-0.288461 13.4943 0.603028 15.5232 2.34504 16.421V19.7331L2.35572 19.737L2.34504 24.2999H5.19449L5.24199 20.8158L5.25484 20.8209L8.53481 18.5285C8.63718 18.536 8.73955 18.5414 8.84229 18.5414C10.5092 18.5414 12.0009 17.5458 12.6428 16.005L12.8039 15.6185L8.50835 14.0742C8.45273 14.0547 8.40838 14.0142 8.38268 13.9605C8.35773 13.9068 8.35502 13.8464 8.37449 13.7908C8.41417 13.6791 8.54383 13.6157 8.65792 13.657L12.9433 15.1969L13.6743 13.163L9.38879 11.6229C9.33317 11.6031 9.28883 11.5624 9.2635 11.5089C9.23862 11.4556 9.23546 11.395 9.25538 11.3392C9.29544 11.2275 9.42464 11.1643 9.53874 11.2057L13.8242 12.7454L14.5551 10.7114L10.2697 9.17155C10.1549 9.13013 10.0949 9.00281 10.1362 8.88781C10.1763 8.77612 10.3051 8.71329 10.4196 8.7541L14.7047 10.2942L15.4355 8.26007L11.1505 6.72023C11.0949 6.70017 11.0505 6.65995 11.0248 6.60621C10.9999 6.55225 10.9972 6.49212 11.0166 6.43673C11.056 6.32722 11.1852 6.26438 11.2997 6.30542ZM14.2237 9.27693L10.6886 8.00617C10.1726 7.82135 9.57008 8.1066 9.38563 8.6207C9.19532 9.1496 9.47132 9.73384 9.99978 9.92391L13.5352 11.1944L13.3433 11.7282L9.80789 10.4577C9.29183 10.2712 8.68971 10.5577 8.50527 11.0719C8.41297 11.3279 8.42627 11.6047 8.54225 11.8511C8.6586 12.0972 8.86326 12.2835 9.11941 12.3749L12.6549 13.6456L12.463 14.1792L8.92752 12.9089C8.41147 12.7221 7.80897 13.0094 7.62453 13.5231C7.53245 13.7792 7.54553 14.0555 7.66151 14.3015C7.77741 14.5478 7.98282 14.7342 8.23867 14.8257L11.7207 16.0773C11.1343 17.1029 10.0445 17.7458 8.84192 17.7458C8.46047 17.7458 8.08354 17.6796 7.72141 17.5493L3.11064 15.8925C1.5784 15.3418 0.693522 13.778 0.962675 12.2117L4.74878 13.5721C5.26604 13.7589 5.86733 13.4717 6.052 12.958C6.14407 12.7019 6.13077 12.4255 6.0148 12.179C5.89882 11.9326 5.69386 11.7466 5.43778 11.6545L1.59899 10.2752L1.79065 9.74142L5.62944 11.1209C6.14708 11.3077 6.74837 11.0199 6.93267 10.5068C7.12252 9.97825 6.84683 9.39373 6.31852 9.20358L2.47973 7.82405L2.67139 7.29041L6.51018 8.66978C7.02745 8.85678 7.62874 8.56935 7.81341 8.05563C8.00349 7.52732 7.72795 6.94249 7.19926 6.7524L3.36047 5.37312L3.55213 4.83955L7.39055 6.21883C7.90819 6.40509 8.5091 6.11924 8.694 5.60469C8.88431 5.07639 8.60831 4.49155 8.08001 4.30147L4.26399 2.93015C4.82191 1.81941 5.97023 1.09719 7.23354 1.09719C7.61536 1.09719 7.99342 1.16341 8.35652 1.29411L12.967 2.95089C13.8026 3.25101 14.4705 3.85831 14.8491 4.66141C15.1702 5.34253 15.2496 6.09564 15.083 6.81817L11.5697 5.55598C11.0533 5.36996 10.4516 5.65602 10.2667 6.17013C10.1745 6.42643 10.1877 6.70257 10.3037 6.94895C10.4196 7.19533 10.6247 7.38135 10.8809 7.47298L14.416 8.7435L14.2237 9.27693ZM5.22921 19.8669L3.14138 19.1399V17.037L7.4591 18.3077L5.22921 19.8669ZM4.44806 20.5208L4.4074 23.5043H3.14333L3.1513 20.0358V19.9879L4.44888 20.4394L4.44806 20.5208Z" fill="white"/>
</g>
<defs>
<clipPath id="clip0_126_10488">
<rect width="16" height="24" fill="white" transform="translate(0 0.299805)"/>
</clipPath>
</defs>
</svg>