<svg xmlns="http://www.w3.org/2000/svg" width="24" height="24" viewBox="0 0 24 24" fill="none">
<g clip-path="url(#clip0_126_10527)">
<mask id="mask0_126_10527" style="mask-type:luminance" maskUnits="userSpaceOnUse" x="0" y="0" width="24" height="24">
<path d="M24 0H0V24H24V0Z" fill="white"/>
</mask>
<g mask="url(#mask0_126_10527)">
<path d="M3.69426 9.37048C3.89808 9.37173 4.09924 9.32495 4.28078 9.2341C4.46231 9.14324 4.61893 9.01096 4.73743 8.8484L5.84196 7.3423L12.4578 15.1687L12.521 15.2451V20.7101L10.5574 21.8737C10.4408 21.9419 10.3504 22.0459 10.3001 22.1695C10.2498 22.2931 10.2424 22.4295 10.2791 22.5576C10.3157 22.6857 10.3944 22.7985 10.5029 22.8784C10.6114 22.9584 10.7438 23.0011 10.8796 23H16.2182C16.3537 23.0004 16.4856 22.9572 16.5936 22.8769C16.7017 22.7967 16.7798 22.6838 16.816 22.5558C16.8522 22.4278 16.8444 22.2916 16.794 22.1683C16.7435 22.045 16.6531 21.9414 16.5366 21.8734L14.5706 20.7083V15.2457L21.0477 7.58108C21.0511 7.57717 21.0548 7.57357 21.0579 7.56936L22.9294 5.35592C22.9666 5.31196 22.9902 5.25854 22.9976 5.20191C23.0049 5.14527 22.9956 5.08777 22.9708 5.0361C22.9461 4.98444 22.9068 4.94075 22.8576 4.91016C22.8085 4.87956 22.7514 4.86331 22.6932 4.8633H16.4605C16.3881 3.7836 15.9224 2.76534 15.1482 1.99403C14.374 1.22272 13.3429 0.749688 12.2427 0.661128C11.1425 0.572567 10.0464 0.874365 9.15423 1.51154C8.26203 2.14871 7.63304 3.07886 7.38187 4.13251C7.34825 3.70421 7.21461 3.28923 6.99129 2.91963C6.65975 2.36882 6.14297 1.94829 5.52963 1.73021C5.65474 1.61356 5.81215 1.53563 5.98218 1.50615C6.15717 1.48805 6.33249 1.53722 6.47124 1.64329C6.51744 1.6829 6.5747 1.70802 6.63562 1.71539C6.69654 1.72277 6.75831 1.71207 6.81295 1.68467C6.8676 1.65728 6.91261 1.61444 6.94216 1.56171C6.97171 1.50898 6.98444 1.44877 6.97872 1.38887C6.97872 1.37383 6.80598 -0.137084 4.85586 0.011481C4.41041 0.0424688 3.99478 0.242234 3.69702 0.56845C3.39986 0.240949 2.98364 0.0405779 2.53756 0.0102779C0.587134 -0.138287 0.416851 1.37263 0.415317 1.38796C0.409649 1.44778 0.422386 1.50789 0.451887 1.56054C0.481387 1.6132 0.5263 1.65599 0.580836 1.68339C0.635372 1.7108 0.697032 1.72157 0.75787 1.71432C0.818708 1.70706 0.875935 1.68211 0.922176 1.64269C1.06144 1.53623 1.23746 1.48695 1.41308 1.50525C1.58367 1.53491 1.74152 1.61327 1.86686 1.73051C1.45531 1.87669 1.08395 2.11441 0.781929 2.425C0.479912 2.73558 0.255469 3.11057 0.126229 3.52051C-0.003011 3.93045 -0.0335285 4.36418 0.0370737 4.78763C0.107676 5.21108 0.277475 5.61272 0.533134 5.961L2.65016 8.8481C2.76872 9.01084 2.92546 9.14326 3.10718 9.23417C3.28889 9.32509 3.49024 9.37184 3.69426 9.37048ZM16.7124 11.7671C16.5946 11.8964 15.2465 13.3285 13.5452 13.3285C11.7819 13.3285 10.385 11.7695 10.3543 11.737L10.3497 11.734L6.76947 7.49628C7.64788 7.13028 10.1779 6.34324 13.4274 7.6695C14.6553 8.18332 15.9753 8.4523 17.3104 8.46075C18.1549 8.46319 18.9953 8.34476 19.8048 8.10918L16.7124 11.7671ZM14.161 14.7862L14.0257 14.9486C13.9811 15.0023 13.9568 15.0694 13.9569 15.1387V20.8768C13.9569 20.9282 13.9703 20.9788 13.996 21.0237C14.0216 21.0687 14.0585 21.1064 14.1033 21.1333L16.2249 22.3964C16.2227 22.3967 16.2204 22.3967 16.2182 22.3964L10.8765 22.3883L12.8509 21.2178L12.9828 21.1426C13.0293 21.1163 13.068 21.0784 13.0949 21.0328C13.1219 20.9872 13.1361 20.9355 13.1362 20.8828V15.1387C13.1362 15.0697 13.1121 15.0028 13.0678 14.9492L11.9019 13.5682C12.4158 13.8058 12.9769 13.9293 13.5452 13.93C14.1134 13.9307 14.6749 13.8085 15.1894 13.5721L14.161 14.7862ZM20.609 7.15644C20.212 7.35613 17.4049 8.64029 13.6636 7.11404C9.96833 5.60673 7.16986 6.64067 6.3614 7.01389L6.06287 6.66082V6.65842L5.05253 5.46388H8.80028H8.8055H14.9265H14.9317H22.0394L20.609 7.15644ZM10.0174 3.16684L11.2668 4.8624H9.12949C9.20489 4.21007 9.52062 3.60715 10.0174 3.16684ZM14.6034 4.8624H12.467L13.7167 3.16684C14.2129 3.60742 14.5282 4.21028 14.6034 4.8624ZM11.8663 4.65189L10.5145 2.81738C10.9263 2.587 11.3923 2.46583 11.8664 2.46583C12.3406 2.46583 12.8066 2.587 13.2184 2.81738L11.8663 4.65189ZM11.8663 1.24872C12.8723 1.24962 13.8411 1.62204 14.5795 2.29176C15.3179 2.96149 15.7717 3.87933 15.8506 4.8624H15.2186C15.1745 4.39683 15.0299 3.94577 14.7944 3.53915C14.5589 3.13254 14.2379 2.77969 13.8526 2.50401C13.8471 2.4995 13.8443 2.49288 13.8382 2.48867C13.8328 2.48596 13.8273 2.48355 13.8216 2.48145C13.2523 2.07935 12.5683 1.86298 11.8666 1.86298C11.1649 1.86298 10.4809 2.07935 9.91156 2.48145C9.90601 2.48355 9.90058 2.48596 9.8953 2.48867C9.88917 2.49288 9.88641 2.4995 9.88058 2.50401C9.49521 2.77965 9.17406 3.13249 8.93845 3.5391C8.70285 3.94571 8.55817 4.39679 8.51402 4.8624H7.88137C7.96037 3.87896 8.41449 2.9608 9.15323 2.29087C9.89197 1.62093 10.8611 1.24841 11.8675 1.24752L11.8663 1.24872ZM4.90157 0.611155C5.10573 0.576915 5.31493 0.58494 5.51573 0.634715C5.71653 0.68449 5.90447 0.774913 6.06747 0.900165C6.01847 0.899433 5.96947 0.901944 5.92082 0.907684C5.70315 0.941983 5.49464 1.01842 5.30742 1.13253C5.12021 1.24664 4.95805 1.39614 4.83039 1.57232C4.8218 1.57232 4.81168 1.57232 4.80309 1.57232C4.7945 1.57232 4.78713 1.57232 4.77977 1.57232C4.70767 1.5669 4.63464 1.56239 4.55641 1.56239H3.80471L3.80655 1.55608C3.83615 1.4823 3.86974 1.41012 3.90718 1.33985C3.92529 1.30436 3.9394 1.26406 3.95873 1.23038C4.04996 1.05708 4.18451 0.909274 4.34982 0.800775C4.51513 0.692276 4.70581 0.626624 4.90403 0.609952L4.90157 0.611155ZM1.33454 0.898962H1.32564C1.48872 0.773858 1.67668 0.683527 1.87745 0.633758C2.07822 0.58399 2.28738 0.575881 2.49154 0.609952C2.6613 0.621664 2.82611 0.671071 2.97351 0.754436C3.12091 0.837801 3.24704 0.952938 3.34234 1.09113C3.32454 1.12752 3.3138 1.17053 3.29754 1.20842C3.26257 1.28872 3.23035 1.37112 3.20212 1.45744C3.19046 1.49262 3.17359 1.523 3.16285 1.55939H2.8318C2.7554 1.55939 2.68514 1.5636 2.61703 1.56871C2.60782 1.56871 2.59739 1.56871 2.58818 1.56871C2.57898 1.56871 2.57162 1.56871 2.56395 1.56871C2.43621 1.39263 2.27402 1.24322 2.08682 1.12917C1.89962 1.01512 1.69114 0.938703 1.47352 0.904376C1.42733 0.90006 1.38093 0.898253 1.33454 0.898962ZM0.782268 3.50577C0.925707 3.16101 1.15781 2.85856 1.45596 2.62787C1.75411 2.39718 2.10814 2.24613 2.48356 2.18943C2.59829 2.16956 2.71468 2.1603 2.83118 2.16177H4.5561C4.67799 2.16061 4.79971 2.17068 4.91968 2.19184C5.23894 2.24164 5.54296 2.3602 5.80987 2.53898C6.07678 2.71777 6.29993 2.95233 6.46327 3.22578C6.76427 3.71762 6.85419 4.30633 6.71332 4.863H4.39962C4.34141 4.86306 4.28441 4.87935 4.23529 4.90998C4.18617 4.9406 4.14695 4.98429 4.12221 5.03594C4.09747 5.08759 4.08823 5.14507 4.09558 5.20168C4.10292 5.25829 4.12654 5.31168 4.16368 5.35562L5.4385 6.86412L4.24008 8.49683C4.17746 8.58121 4.09536 8.64987 4.0005 8.6972C3.90564 8.74454 3.8007 8.76922 3.69426 8.76922C3.58781 8.76922 3.48287 8.74454 3.38801 8.6972C3.29315 8.64987 3.21105 8.58121 3.14843 8.49683L1.0314 5.60974C0.805766 5.31104 0.664013 4.95954 0.620296 4.59035C0.57658 4.22116 0.632429 3.84719 0.782268 3.50577Z" fill="white"/>
<path d="M3.30794 5.99195C3.30794 5.92829 3.28265 5.86725 3.23765 5.82224C3.19264 5.77723 3.13159 5.75195 3.06794 5.75195H2.84498C2.78133 5.75195 2.72028 5.77723 2.67527 5.82224C2.63027 5.86725 2.60498 5.92829 2.60498 5.99195C2.60498 6.0556 2.63027 6.11664 2.67527 6.16165C2.72028 6.20666 2.78133 6.23195 2.84498 6.23195H3.06794C3.13159 6.23195 3.19264 6.20666 3.23765 6.16165C3.28265 6.11664 3.30794 6.0556 3.30794 5.99195Z" fill="white"/>
<path d="M4.11671 6.23195H4.40591C4.46956 6.23195 4.53061 6.20666 4.57561 6.16165C4.62062 6.11664 4.64591 6.0556 4.64591 5.99195C4.64591 5.92829 4.62062 5.86725 4.57561 5.82224C4.53061 5.77723 4.46956 5.75195 4.40591 5.75195H4.11671C4.05306 5.75195 3.99201 5.77723 3.947 5.82224C3.90199 5.86725 3.87671 5.92829 3.87671 5.99195C3.87671 6.0556 3.90199 6.11664 3.947 6.16165C3.99201 6.20666 4.05306 6.23195 4.11671 6.23195Z" fill="white"/>
<path d="M5.45509 6.23195H5.67805C5.7417 6.23195 5.80274 6.20666 5.84775 6.16165C5.89276 6.11664 5.91805 6.0556 5.91805 5.99195C5.91805 5.92829 5.89276 5.86725 5.84775 5.82224C5.80274 5.77723 5.7417 5.75195 5.67805 5.75195H5.45509C5.39143 5.75195 5.33039 5.77723 5.28538 5.82224C5.24037 5.86725 5.21509 5.92829 5.21509 5.99195C5.21509 6.0556 5.24037 6.11664 5.28538 6.16165C5.33039 6.20666 5.39143 6.23195 5.45509 6.23195Z" fill="white"/>
<path d="M4.40595 8.43945H4.18299C4.11934 8.43945 4.0583 8.46474 4.01329 8.50975C3.96828 8.55476 3.94299 8.6158 3.94299 8.67945C3.94299 8.74311 3.96828 8.80415 4.01329 8.84916C4.0583 8.89417 4.11934 8.91945 4.18299 8.91945H4.40595C4.4696 8.91945 4.53065 8.89417 4.57566 8.84916C4.62067 8.80415 4.64595 8.74311 4.64595 8.67945C4.64595 8.6158 4.62067 8.55476 4.57566 8.50975C4.53065 8.46474 4.4696 8.43945 4.40595 8.43945Z" fill="white"/>
<path d="M3.67194 7.08008H3.44874C3.38509 7.08008 3.32404 7.10536 3.27903 7.15037C3.23403 7.19538 3.20874 7.25643 3.20874 7.32008C3.20874 7.38373 3.23403 7.44478 3.27903 7.48978C3.32404 7.53479 3.38509 7.56008 3.44874 7.56008H3.67194C3.73559 7.56008 3.79664 7.53479 3.84165 7.48978C3.88665 7.44478 3.91194 7.38373 3.91194 7.32008C3.91194 7.25643 3.88665 7.19538 3.84165 7.15037C3.79664 7.10536 3.73559 7.08008 3.67194 7.08008Z" fill="white"/>
</g>
</g>
<defs>
<clipPath id="clip0_126_10527">
<rect width="24" height="24" fill="white"/>
</clipPath>
</defs>
</svg>