<svg width="281" height="130" viewBox="0 0 281 130" fill="none" xmlns="http://www.w3.org/2000/svg">
<g filter="url(#filter0_d_126_9124)">
<g clip-path="url(#clip0_126_9124)">
<rect x="9" y="47.7881" width="204.897" height="290.691" rx="10.0935" transform="rotate(-12.6399 9 47.7881)" fill="white"/>
<path d="M26.6902 85.5601C25.7043 85.7812 24.9254 85.3553 24.722 84.4483C24.6336 84.054 24.6482 83.6573 24.6998 83.1487L27.7229 58.6767C27.9063 57.186 28.4549 56.4003 29.7168 56.1173C30.9787 55.8343 31.8103 56.3105 32.6127 57.5801L45.7969 78.4175C46.0519 78.8159 46.2433 79.2079 46.3273 79.5825C46.5351 80.5092 46.0127 81.2269 45.0072 81.4524C44.0607 81.6646 43.4267 81.3305 42.7912 80.2512L39.016 74.0363L28.9406 76.2957L28.181 83.5277C28.0716 84.7947 27.6366 85.3479 26.6902 85.5601ZM29.2439 73.3078L37.4658 71.464L30.7355 60.3826L30.5975 60.4135L29.2439 73.3078Z" fill="#211C1D"/>
<path d="M40.0102 111.173C39.8034 111.22 39.5996 111.096 39.555 110.898C39.4602 110.475 39.8974 107.457 39.7341 105.529C39.7144 105.297 39.4088 105.271 39.3208 105.483C38.8993 106.499 38.4863 107.576 36.7957 107.979C33.646 108.729 31.1532 106.136 31.5344 103.182C31.7214 101.734 36.4181 91.2907 37.3287 91.0865C38.2393 90.8823 46.9461 98.3199 47.7335 99.5497C49.3396 102.058 48.1928 105.467 45.0244 106.134C43.3238 106.492 42.4902 105.693 41.6753 104.955C41.5052 104.801 41.2398 104.955 41.3211 105.173C41.9967 106.986 43.6809 109.528 43.7758 109.951C43.8203 110.15 43.6888 110.348 43.4819 110.395L40.0102 111.173Z" fill="#211C1D"/>
<path d="M142.725 207.787C141.914 207.969 141.112 207.472 140.933 206.678C140.554 204.985 142.22 192.932 141.546 185.225C141.465 184.298 140.265 184.19 139.924 185.036C138.286 189.087 136.683 193.387 130.053 194.967C117.702 197.912 107.874 187.508 109.321 175.711C110.03 169.927 128.292 128.271 131.863 127.47C135.434 126.669 169.735 156.537 172.847 161.465C179.193 171.514 174.749 185.119 162.323 187.731C155.653 189.132 152.368 185.929 149.157 182.965C148.487 182.347 147.447 182.956 147.77 183.829C150.452 191.086 157.106 201.274 157.485 202.966C157.664 203.76 157.151 204.552 156.339 204.734L142.725 207.787Z" fill="#211C1D"/>
</g>
</g>
<defs>
<filter id="filter0_d_126_9124" x="0.92524" y="-1.08523" width="279.691" height="344.632" filterUnits="userSpaceOnUse" color-interpolation-filters="sRGB">
<feFlood flood-opacity="0" result="BackgroundImageFix"/>
<feColorMatrix in="SourceAlpha" type="matrix" values="0 0 0 0 0 0 0 0 0 0 0 0 0 0 0 0 0 0 127 0" result="hardAlpha"/>
<feOffset dy="4.03738"/>
<feGaussianBlur stdDeviation="4.03738"/>
<feComposite in2="hardAlpha" operator="out"/>
<feColorMatrix type="matrix" values="0 0 0 0 0.614771 0 0 0 0 0.70094 0 0 0 0 0.806257 0 0 0 1 0"/>
<feBlend mode="normal" in2="BackgroundImageFix" result="effect1_dropShadow_126_9124"/>
<feBlend mode="normal" in="SourceGraphic" in2="effect1_dropShadow_126_9124" result="shape"/>
</filter>
<clipPath id="clip0_126_9124">
<rect x="9" y="47.7881" width="204.897" height="290.691" rx="10.0935" transform="rotate(-12.6399 9 47.7881)" fill="white"/>
</clipPath>
</defs>
</svg>
