<svg width="348" height="243" viewBox="0 0 348 243" fill="none" xmlns="http://www.w3.org/2000/svg">
<g filter="url(#filter0_d_126_9140)">
<g clip-path="url(#clip0_126_9140)">
<rect x="128.602" y="4.97461" width="230.146" height="326.512" rx="11.3372" transform="rotate(22.0385 128.602 4.97461)" fill="white"/>
<path d="M120.636 51.5787C119.585 51.1529 119.137 50.2617 119.529 49.2939C119.699 48.8732 119.966 48.516 120.339 48.0793L138.771 27.4066C139.893 26.1469 140.902 25.7717 142.249 26.3168C143.595 26.8618 144.059 27.8331 143.989 29.5187L142.85 57.1918C142.831 57.7228 142.757 58.2072 142.595 58.6069C142.195 59.5957 141.254 59.9248 140.181 59.4904C139.171 59.0816 138.799 58.3678 138.902 56.9648L139.386 48.8114L128.636 44.4595L123.312 50.6541C122.402 51.7546 121.646 51.9875 120.636 51.5787ZM130.826 41.8933L139.598 45.4447L140.464 30.9076L140.316 30.848L130.826 41.8933Z" fill="#BC1E24"/>
<path d="M127.243 63.2602C127.222 63.0821 127.004 62.9938 126.864 63.107C122.681 66.5118 120.004 68.1262 115.078 70.2741C114.968 70.3218 114.917 70.4478 114.963 70.5582C117.008 75.5282 117.808 78.5499 118.445 83.9061C118.466 84.0843 118.684 84.1726 118.823 84.0593C123.007 80.6546 125.683 79.0401 130.61 76.8923C130.719 76.8445 130.77 76.7186 130.725 76.6082C128.68 71.6382 127.88 68.6164 127.243 63.2602Z" fill="#BC1E24"/>
<path d="M192.541 156.286C192.452 155.544 191.544 155.176 190.964 155.648C173.532 169.834 162.379 176.561 141.853 185.511C141.397 185.71 141.184 186.234 141.374 186.695C149.895 207.403 153.227 219.993 155.882 242.311C155.97 243.053 156.879 243.421 157.459 242.949C174.89 228.763 186.043 222.036 206.57 213.086C207.026 212.888 207.238 212.363 207.049 211.903C198.528 191.194 195.195 178.604 192.541 156.286Z" fill="#BC1E24"/>
</g>
</g>
<defs>
<filter id="filter0_d_126_9140" x="-2.98518" y="0.439722" width="353.986" height="407.151" filterUnits="userSpaceOnUse" color-interpolation-filters="sRGB">
<feFlood flood-opacity="0" result="BackgroundImageFix"/>
<feColorMatrix in="SourceAlpha" type="matrix" values="0 0 0 0 0 0 0 0 0 0 0 0 0 0 0 0 0 0 127 0" result="hardAlpha"/>
<feOffset dy="4.53489"/>
<feGaussianBlur stdDeviation="4.53489"/>
<feComposite in2="hardAlpha" operator="out"/>
<feColorMatrix type="matrix" values="0 0 0 0 0.614771 0 0 0 0 0.70094 0 0 0 0 0.806257 0 0 0 1 0"/>
<feBlend mode="normal" in2="BackgroundImageFix" result="effect1_dropShadow_126_9140"/>
<feBlend mode="normal" in="SourceGraphic" in2="effect1_dropShadow_126_9140" result="shape"/>
</filter>
<clipPath id="clip0_126_9140">
<rect x="128.602" y="4.97461" width="230.146" height="326.512" rx="11.3372" transform="rotate(22.0385 128.602 4.97461)" fill="white"/>
</clipPath>
</defs>
</svg>
