<svg width="354" height="296" viewBox="0 0 354 296" fill="none" xmlns="http://www.w3.org/2000/svg">
<path d="M155.86 0.357456C116.205 13.1915 76.9873 27.7974 38.2077 44.1749C26.6241 49.0688 15.0873 54.119 3.59747 59.3253C2.43457 59.8664 1.47145 60.7603 0.844789 61.8802C1.20226 61.2268 1.67455 60.6432 2.23898 60.1576C1.56321 61.2429 0.889887 62.3312 0.21901 63.4225C0.148608 63.7283 0.0822117 64.0404 0.0196507 64.3531C0.968131 62.7926 1.92178 61.2383 2.8806 59.6903C-0.0555906 61.427 -1.24775 67.0032 1.7168 71.8685C20.868 104.151 42.8595 134.658 67.4297 163.026L67.4317 163.036C71.4269 167.649 75.4726 172.181 79.5689 176.631L79.5664 176.62L79.4264 176.463C85.6137 183.187 91.9084 189.723 98.3103 196.073L98.3004 196.072C98.6126 196.382 98.9251 196.692 99.2379 197.001C96.8085 194.599 94.3937 192.17 91.9936 189.715C108.487 206.604 125.972 222.492 144.356 237.295L144.353 237.286C146.69 239.166 149.037 241.025 151.393 242.862L151.165 242.682C153.445 244.46 155.733 246.218 158.029 247.955L158.027 247.948C160.324 249.685 162.629 251.402 164.943 253.098L164.945 253.104C185.409 268.147 206.878 281.77 229.202 293.877C231.265 295.1 233.686 295.579 236.058 295.232C238.431 294.885 240.614 293.734 242.241 291.971C268.791 258.811 296.694 227.05 325.95 196.685C334.269 188.049 342.691 179.53 351.217 171.13C352.126 170.412 352.777 169.417 353.07 168.296C353.363 167.174 353.282 165.988 352.841 164.916C352.478 164.511 352.116 164.106 351.755 163.699C351.884 163.808 352.012 163.917 352.142 164.026C351.669 163.59 351.126 163.24 350.534 162.989C323.113 151.029 297.157 135.95 273.18 118.049C247.957 99.2275 224.889 77.6749 204.394 53.783C191.124 38.3439 178.899 22.0343 167.801 4.9633L167.793 4.95127C166.535 3.0312 164.707 1.55496 162.566 0.730818C160.425 -0.0933213 158.079 -0.22425 155.86 0.357456Z" fill="url(#paint0_linear_420_570)"/>
<path d="M42.0468 69.5048C40.7865 70.1231 39.5055 70.6984 38.2434 71.3137C37.1432 71.9223 36.0537 72.547 34.9556 73.1565L34.8707 73.1743L34.7798 73.1544C34.7203 73.1306 34.6674 73.0927 34.6257 73.044L34.5846 72.9742L34.583 72.9087L34.6311 72.858C35.0239 72.6751 35.3835 72.4276 35.6948 72.126C35.744 72.0137 35.793 71.9012 35.8419 71.7885L35.7222 71.4506C35.1231 70.9328 34.4268 70.5395 33.6741 70.2938C30.6036 69.0644 27.5302 67.8709 24.454 66.7135C22.6431 67.6849 20.8303 68.6519 19.0156 69.6146C19.8049 71.3735 20.5858 73.1365 21.3584 74.9035C21.6383 75.531 22.0524 76.0893 22.5715 76.539C23.2558 76.9846 24.0508 77.2303 24.8671 77.2483C25.6834 77.2664 26.4886 77.0561 27.1923 76.6411L27.2772 76.6234C27.372 76.6321 27.4596 76.6778 27.5209 76.7507L27.5612 76.819L27.5623 76.8833L27.5166 76.9312L27.5128 76.9331C26.2837 77.509 25.0405 78.0523 23.816 78.6394C22.6647 79.2436 21.5333 79.88 20.389 80.4967L20.3041 80.5143L20.2137 80.4957C20.1552 80.4736 20.103 80.4373 20.0619 80.3901L20.0222 80.3231L20.0218 80.2599L20.0717 80.2106C20.3656 80.0953 20.6308 79.9169 20.8484 79.6879C21.066 79.4588 21.2308 79.1848 21.3311 78.8852C21.3299 77.5431 20.9974 76.2222 20.3633 75.0399C18.2323 70.1015 16.1706 65.104 13.5899 60.3927L13.5937 60.3469C13.6982 60.2173 13.8464 60.1302 14.0104 60.1019L14.0949 60.1088C21.0726 62.4625 28.0361 65.05 34.989 67.8154C37.079 68.6638 39.5681 69.9255 41.7201 69.2009L41.8052 69.183L41.8963 69.2035C41.9565 69.2278 42.0098 69.2665 42.0518 69.316L42.0934 69.3868L42.0958 69.4533L42.0468 69.5048ZM23.3538 66.3075C21.0102 65.4333 18.6654 64.5821 16.3194 63.7539C17.1039 65.4413 17.8776 67.1342 18.6403 68.8326C20.2123 67.9939 21.7834 67.1522 23.3538 66.3075Z" fill="url(#paint1_linear_420_570)"/>
<path d="M54.1534 81.7032C53.5232 81.3704 52.8683 81.0864 52.1947 80.8537C46.3235 79.045 40.2467 77.9885 34.1094 77.7096C32.9809 81.7276 31.784 85.9368 32.3579 90.2187C32.4298 90.7339 32.5688 91.2374 32.7713 91.7165C33.0169 92.2858 33.3683 92.8031 33.807 93.241C35.06 94.3201 36.5893 95.0275 38.2227 95.2836C39.856 95.5397 41.5286 95.3343 43.0521 94.6906C43.8268 94.4078 44.5023 93.9049 44.9959 93.2437C45.4896 92.5825 45.7798 91.7917 45.8311 90.968C45.8234 90.8067 45.807 90.6459 45.7817 90.4863C45.7443 90.1798 45.7135 89.872 45.6861 89.5644L45.6918 89.5342L45.7122 89.5115C45.7444 89.493 45.7825 89.4874 45.8187 89.4958L45.8537 89.5102L45.8816 89.5349C47.6052 91.9085 48.8067 95.2482 47.5912 98.0319C49.1924 97.3348 50.7931 96.6342 52.3931 95.9301C53.9932 95.2261 55.5918 94.5192 57.1889 93.8095C53.2348 93.3447 49.4888 91.7863 46.3713 89.3092L46.3475 89.2819L46.3412 89.2543L46.3501 89.2284L46.3717 89.2071L46.4026 89.1929L46.4413 89.1884L46.4839 89.1962C46.8899 89.3292 47.2947 89.4665 47.6985 89.6081C47.9084 89.6862 48.1199 89.7584 48.3332 89.8247C50.3495 90.4423 52.5177 90.3405 54.4681 89.5368C55.5714 89.0506 56.4633 88.1835 56.9809 87.0938C57.2165 86.3789 57.2419 85.6114 57.0542 84.8827C56.8664 84.154 56.4734 83.4947 55.9218 82.9833C55.3993 82.4709 54.8031 82.0399 54.1534 81.7032Z" fill="url(#paint2_linear_420_570)"/>
<path d="M305.917 174.119C306.974 173.195 308.063 172.308 309.123 171.387C310.028 170.515 310.918 169.629 311.821 168.756L311.899 168.717L311.992 168.713C312.055 168.72 312.116 168.743 312.169 168.78L312.227 168.836L312.245 168.899L312.212 168.961C311.88 169.239 311.597 169.571 311.374 169.943C311.356 170.064 311.337 170.186 311.319 170.307L311.522 170.602C312.235 170.947 313.009 171.147 313.8 171.19C317.084 171.583 320.362 171.94 323.633 172.262C325.13 170.855 326.631 169.451 328.135 168.052C326.917 166.557 325.707 165.056 324.503 163.549C324.07 163.016 323.526 162.584 322.908 162.284C322.132 162.03 321.3 161.999 320.507 162.193C319.714 162.387 318.991 162.798 318.418 163.381L318.341 163.42C318.247 163.436 318.151 163.415 318.072 163.36L318.016 163.305L317.998 163.243L318.03 163.185L318.033 163.182C319.071 162.308 320.131 161.461 321.162 160.577C322.118 159.695 323.046 158.788 323.992 157.896L324.069 157.857L324.161 157.852C324.224 157.858 324.283 157.879 324.335 157.914L324.391 157.969L324.408 158.03L324.372 158.09C324.118 158.278 323.908 158.519 323.757 158.796C323.606 159.074 323.518 159.381 323.499 159.696C323.847 160.993 324.51 162.182 325.429 163.16C328.766 167.379 332.05 171.672 335.763 175.555L335.771 175.6C335.703 175.753 335.583 175.875 335.432 175.945L335.348 175.96C327.999 175.493 320.603 174.796 313.171 173.924C310.933 173.645 308.202 173.071 306.311 174.328L306.234 174.367L306.14 174.371C306.076 174.363 306.014 174.339 305.961 174.302L305.902 174.245L305.883 174.181L305.917 174.119ZM324.8 172.369C327.29 172.607 329.776 172.822 332.256 173.015C331.062 171.588 329.876 170.153 328.7 168.71C327.399 169.927 326.099 171.147 324.8 172.369Z" fill="url(#paint3_linear_420_570)"/>
<path d="M291.065 165.471C291.76 165.629 292.466 165.734 293.177 165.784C299.316 166.012 305.46 165.459 311.46 164.14C311.51 159.967 311.577 155.592 309.914 151.604C309.712 151.125 309.447 150.675 309.127 150.265C308.743 149.778 308.269 149.369 307.732 149.06C306.243 148.342 304.582 148.054 302.938 148.23C301.294 148.405 299.732 149.037 298.427 150.053C297.752 150.526 297.23 151.187 296.924 151.953C296.618 152.72 296.543 153.559 296.706 154.368C296.755 154.521 296.813 154.673 296.879 154.82C296.994 155.106 297.103 155.396 297.21 155.686L297.212 155.716L297.198 155.744C297.172 155.77 297.136 155.785 297.099 155.786L297.062 155.782L297.028 155.765C294.749 153.918 292.724 151.003 293.178 148C291.812 149.088 290.447 150.179 289.083 151.273C287.72 152.367 286.359 153.464 285 154.563C288.94 153.988 292.961 154.524 296.614 156.11L296.644 156.13L296.657 156.155L296.655 156.182L296.64 156.208L296.614 156.23L296.577 156.244L296.534 156.248C296.108 156.225 295.681 156.197 295.254 156.164C295.031 156.143 294.808 156.128 294.585 156.12C292.478 156.045 290.41 156.704 288.734 157.985C287.794 158.741 287.157 159.809 286.939 160.996C286.897 161.747 287.071 162.495 287.441 163.15C287.811 163.806 288.361 164.341 289.026 164.692C289.663 165.052 290.351 165.314 291.065 165.471Z" fill="url(#paint4_linear_420_570)"/>
<path d="M202.1 114.468C199.952 113.473 197.74 112.624 195.479 111.925C175.768 105.716 155.85 103.277 136.144 100C133.908 115.773 132.142 133.182 137.71 150.823C138.376 152.945 139.257 154.992 140.339 156.935C141.601 159.185 143.206 161.223 145.097 162.977C155.263 172.108 168.497 171.488 176.198 165.592C178.507 163.886 180.261 161.536 181.239 158.835C182.217 156.135 182.376 153.205 181.695 150.415C181.538 149.817 181.354 149.224 181.143 148.634C180.776 147.501 180.43 146.364 180.105 145.223L180.1 145.108L180.148 145.016C180.191 144.976 180.243 144.946 180.3 144.93C180.357 144.913 180.417 144.911 180.475 144.923L180.598 144.965L180.706 145.05C187.79 153.239 195.264 165.061 194.027 175.806C198.315 172.279 202.621 168.779 206.945 165.307C211.267 161.835 215.607 158.392 219.965 154.977C207.845 156.343 194.167 151.974 182.093 144.05L181.997 143.958L181.971 143.912L181.956 143.857L181.964 143.758L182.016 143.671L182.105 143.608L182.224 143.579L182.367 143.595C183.763 143.959 185.157 144.321 186.552 144.697C187.281 144.908 188.009 145.095 188.738 145.258C192.011 146.026 195.41 146.104 198.715 145.484C202.02 144.864 205.16 143.562 207.934 141.659C214.797 136.545 216.949 126.2 208.347 118.402C206.45 116.817 204.348 115.494 202.1 114.468Z" fill="url(#paint5_linear_420_570)"/>
<defs>
<linearGradient id="paint0_linear_420_570" x1="68.6853" y1="26.4023" x2="320.174" y2="272.795" gradientUnits="userSpaceOnUse">
<stop stop-color="#FAF6EC"/>
<stop offset="0.3121" stop-color="#F6F2E7"/>
<stop offset="0.6502" stop-color="#F0EBDD"/>
<stop offset="0.9993" stop-color="#CFD7F0"/>
<stop offset="1" stop-color="#F0E4C9"/>
</linearGradient>
<linearGradient id="paint1_linear_420_570" x1="197.7" y1="255.586" x2="15.3467" y2="58.1533" gradientUnits="userSpaceOnUse">
<stop stop-color="#0A0F26"/>
<stop offset="0.7581" stop-color="#061424"/>
</linearGradient>
<linearGradient id="paint2_linear_420_570" x1="215.78" y1="273.478" x2="16.1424" y2="57.3324" gradientUnits="userSpaceOnUse">
<stop stop-color="#0A0F26"/>
<stop offset="0.7581" stop-color="#061424"/>
</linearGradient>
<linearGradient id="paint3_linear_420_570" x1="107.406" y1="34.6647" x2="334.645" y2="178.173" gradientUnits="userSpaceOnUse">
<stop stop-color="#0A0F26"/>
<stop offset="0.7581" stop-color="#061424"/>
</linearGradient>
<linearGradient id="paint4_linear_420_570" x1="85.3108" y1="22.0624" x2="334.089" y2="179.173" gradientUnits="userSpaceOnUse">
<stop stop-color="#0A0F26"/>
<stop offset="0.7581" stop-color="#061424"/>
</linearGradient>
<linearGradient id="paint5_linear_420_570" x1="25.0422" y1="44.8187" x2="313.631" y2="227.072" gradientUnits="userSpaceOnUse">
<stop stop-color="#0A0F26"/>
<stop offset="0.7581" stop-color="#061424"/>
</linearGradient>
</defs>
</svg>