<svg width="338" height="267" viewBox="0 0 338 267" fill="none" xmlns="http://www.w3.org/2000/svg">
<g filter="url(#filter0_d_126_9132)">
<g clip-path="url(#clip0_126_9132)">
<rect x="38.3008" y="82.3613" width="230.146" height="326.512" rx="10.0935" transform="rotate(-12.6399 38.3008 82.3613)" fill="white"/>
<path d="M58.2667 125.219C57.1594 125.467 56.2845 124.989 56.056 123.97C55.9567 123.527 55.9731 123.081 56.031 122.51L59.4267 95.0225C59.6327 93.3481 60.2489 92.4655 61.6663 92.1477C63.0837 91.8298 64.0177 92.3647 64.9191 93.7908L79.7278 117.196C80.0143 117.643 80.2293 118.084 80.3236 118.504C80.5571 119.545 79.9703 120.351 78.8408 120.605C77.7778 120.843 77.0656 120.468 76.3518 119.256L72.1113 112.275L60.7945 114.813L59.9412 122.936C59.8184 124.359 59.3297 124.98 58.2667 125.219ZM61.1351 111.457L70.3702 109.386L62.8105 96.9386L62.6555 96.9734L61.1351 111.457Z" fill="#BC1E24"/>
<path d="M65.6511 133.161C68.6671 132.533 70.4189 134.878 71.0782 136.021C71.1449 136.136 71.392 136.081 71.4029 135.948C71.5107 134.633 72.0926 131.765 75.088 131.045C79.0101 130.102 82.9592 133.844 81.2514 138.874C79.7292 143.358 74.9257 151.994 74.8349 152.015C74.7426 152.035 66.7128 146.277 63.4215 142.873C59.7292 139.054 61.702 133.983 65.6511 133.161Z" fill="#BC1E24"/>
<path d="M158.427 180.366C170.541 177.843 177.584 187.291 180.235 191.895C180.504 192.361 181.496 192.138 181.54 191.603C181.969 186.307 184.3 174.757 196.332 171.865C212.085 168.078 227.958 183.158 221.11 203.411C215.005 221.464 195.729 256.234 195.365 256.316C194.994 256.399 162.723 233.19 149.493 219.472C134.651 204.082 142.564 183.668 158.427 180.366Z" fill="#BC1E24"/>
</g>
</g>
<defs>
<filter id="filter0_d_126_9132" x="0.900782" y="-1.4" width="336.816" height="409.76" filterUnits="userSpaceOnUse" color-interpolation-filters="sRGB">
<feFlood flood-opacity="0" result="BackgroundImageFix"/>
<feColorMatrix in="SourceAlpha" type="matrix" values="0 0 0 0 0 0 0 0 0 0 0 0 0 0 0 0 0 0 127 0" result="hardAlpha"/>
<feOffset dx="-17" dy="-13"/>
<feGaussianBlur stdDeviation="10.2"/>
<feComposite in2="hardAlpha" operator="out"/>
<feColorMatrix type="matrix" values="0 0 0 0 0 0 0 0 0 0 0 0 0 0 0 0 0 0 0.32 0"/>
<feBlend mode="normal" in2="BackgroundImageFix" result="effect1_dropShadow_126_9132"/>
<feBlend mode="normal" in="SourceGraphic" in2="effect1_dropShadow_126_9132" result="shape"/>
</filter>
<clipPath id="clip0_126_9132">
<rect x="38.3008" y="82.3613" width="230.146" height="326.512" rx="10.0935" transform="rotate(-12.6399 38.3008 82.3613)" fill="white"/>
</clipPath>
</defs>
</svg>
