<svg width="337" height="163" viewBox="0 0 337 163" fill="none" xmlns="http://www.w3.org/2000/svg">
<g filter="url(#filter0_d_126_9148)">
<g clip-path="url(#clip0_126_9148)">
<rect x="146.602" y="33.6865" width="204.897" height="290.691" rx="10.0935" transform="rotate(22.528 146.602 33.6865)" fill="white"/>
<path d="M139.307 74.7529C138.374 74.3658 137.982 73.569 138.338 72.7104C138.493 72.3371 138.733 72.0212 139.069 71.6352L155.635 53.3714C156.644 52.2584 157.545 51.9321 158.739 52.4275C159.934 52.923 160.339 53.7913 160.264 55.2913L159.04 79.919C159.019 80.3915 158.95 80.8222 158.802 81.1768C158.439 82.0541 157.598 82.3399 156.646 81.945C155.75 81.5734 155.424 80.9351 155.527 79.6868L156.02 72.4318L146.482 68.4757L141.696 73.9501C140.877 74.9229 140.203 75.1245 139.307 74.7529ZM148.451 66.2079L156.234 69.4362L157.115 56.501L156.985 56.4468L148.451 66.2079Z" fill="#211C1D"/>
<path d="M135.443 103.363C135.247 103.282 135.152 103.064 135.23 102.876C135.396 102.475 137.492 100.26 138.469 98.5899C138.586 98.389 138.351 98.192 138.157 98.3146C137.227 98.902 136.269 99.5451 134.655 98.9004C131.648 97.6995 131.104 94.144 133.117 91.9491C134.104 90.8728 143.958 85.0409 144.821 85.3984C145.682 85.7559 148.516 96.8509 148.452 98.3097C148.32 101.285 145.419 103.411 142.445 102.131C140.848 101.445 140.627 100.312 140.386 99.2391C140.335 99.0152 140.03 98.988 139.971 99.213C139.479 101.084 139.391 104.133 139.225 104.533C139.147 104.721 138.925 104.808 138.729 104.726L135.443 103.363Z" fill="#211C1D"/>
<path d="M162.966 241.171C162.165 240.839 161.786 239.921 162.118 239.121C163.232 236.435 172.151 228.377 176.359 220.92C176.811 220.118 175.72 219.298 174.971 219.834C170.886 222.759 165.257 226.889 157.197 223.32L157.037 223.259C156.93 223.219 156.823 223.179 156.716 223.135C147.876 219.468 143.978 208.618 148.009 198.9C152.04 189.182 162.473 184.276 171.313 187.943C173.039 188.659 174.576 189.65 175.902 190.852C176.212 191.132 176.758 190.862 176.719 190.446C176.417 187.274 176.879 183.924 178.218 180.697C182.191 171.118 192.403 165.963 201.144 169.589C209.884 173.214 213.45 184.083 209.477 193.663C208.138 196.89 206.093 199.583 203.635 201.611C203.313 201.876 203.508 202.454 203.925 202.475C205.713 202.565 207.5 202.952 209.226 203.668C218.066 207.335 221.964 218.185 217.933 227.903C213.902 237.621 203.468 242.527 194.628 238.86C194.522 238.816 194.418 238.769 194.314 238.721L194.158 238.651C185.938 235.467 184.884 228.565 184.069 223.608C183.92 222.699 182.568 222.506 182.32 223.393C180.015 231.639 180.612 243.644 179.498 246.33C179.166 247.13 178.248 247.51 177.448 247.178L162.966 241.171Z" fill="#211C1D"/>
</g>
</g>
<defs>
<filter id="filter0_d_126_9148" x="-2.17234" y="0.286524" width="341.436" height="387.813" filterUnits="userSpaceOnUse" color-interpolation-filters="sRGB">
<feFlood flood-opacity="0" result="BackgroundImageFix"/>
<feColorMatrix in="SourceAlpha" type="matrix" values="0 0 0 0 0 0 0 0 0 0 0 0 0 0 0 0 0 0 127 0" result="hardAlpha"/>
<feOffset dx="-17" dy="-13"/>
<feGaussianBlur stdDeviation="10.2"/>
<feComposite in2="hardAlpha" operator="out"/>
<feColorMatrix type="matrix" values="0 0 0 0 0 0 0 0 0 0 0 0 0 0 0 0 0 0 0.32 0"/>
<feBlend mode="normal" in2="BackgroundImageFix" result="effect1_dropShadow_126_9148"/>
<feBlend mode="normal" in="SourceGraphic" in2="effect1_dropShadow_126_9148" result="shape"/>
</filter>
<clipPath id="clip0_126_9148">
<rect x="146.602" y="33.6865" width="204.897" height="290.691" rx="10.0935" transform="rotate(22.528 146.602 33.6865)" fill="white"/>
</clipPath>
</defs>
</svg>
