<svg width="302" height="260" viewBox="0 0 302 260" fill="none" xmlns="http://www.w3.org/2000/svg">
<path d="M212.342 254.724C151.572 264.888 93.3683 256.726 45.0972 235.446C30.5727 229.082 16.6556 221.411 3.51751 212.526C2.40826 211.807 1.4327 210.9 0.634552 209.846C1.0412 210.42 1.51533 210.944 2.04676 211.406C0.472055 209.351 -1.81771 206.556 2.43043 205.554C60.4069 192.171 101.872 158.456 124.893 121.375C130.755 111.991 135.638 102.03 139.466 91.6477C140.77 88.5196 144.829 87.1673 147.888 86.9814C184.779 85.1631 226.175 69.4727 261.597 36.3115C272.143 26.4067 281.674 15.4712 290.046 3.66804C292.115 0.747263 296.021 -2.40662 297.074 2.74159C302.35 32.0768 302.913 62.0669 298.742 91.5798C298.413 93.9335 298.054 96.288 297.665 98.6433C297.274 101.015 296.852 103.385 296.4 105.756C295.07 112.732 293.475 119.703 291.616 126.667C288.456 138.473 284.584 150.078 280.02 161.415C279.099 163.703 278.149 165.985 277.169 168.263C276.2 170.515 275.201 172.762 274.173 175.003C262.437 200.479 247.433 224.316 229.541 245.91L229.514 245.942C227.835 247.336 226.141 248.715 224.433 250.079C225.688 249.269 226.896 248.386 228.05 247.436C223.522 251.169 218.114 253.679 212.342 254.724Z" fill="url(#paint0_linear_420_569)"/>
<path d="M63.2775 214.202C61.6936 213.599 60.0911 213.006 58.5273 212.374C57.1503 211.772 55.8139 211.135 54.4596 210.508L54.3571 210.481H54.2494L54.1493 210.503L54.0699 210.539C54.0511 210.55 54.0353 210.566 54.024 210.585L54.0255 210.634L54.0864 210.679C54.5479 210.874 54.9892 211.113 55.4043 211.394L55.601 211.669L55.4759 211.903C55.3235 211.971 55.1711 212.038 55.0186 212.106C54.3766 212.262 53.7253 212.377 53.0688 212.45C49.428 212.882 45.7628 213.238 42.073 213.519C39.8433 212.417 37.6382 211.287 35.4577 210.127C36.3898 208.944 37.3096 207.756 38.2271 206.566C38.5205 206.222 38.8801 205.94 39.2845 205.738C39.6889 205.536 40.1298 205.418 40.5809 205.39C42.1561 205.365 43.7122 205.738 45.1052 206.475L45.2053 206.505L45.3117 206.509L45.4118 206.491L45.4915 206.457L45.5379 206.413V206.364L45.4789 206.317C44.022 205.632 42.5467 204.955 41.1236 204.235C39.7723 203.517 38.4759 202.76 37.1504 202.017L37.0525 201.984L36.947 201.977L36.8484 201.991C36.8205 201.998 36.7936 202.008 36.7685 202.022L36.7209 202.064L36.7191 202.113L36.7757 202.163C37.395 202.425 37.9053 202.891 38.2208 203.485C38.2088 204.52 37.7891 205.508 37.053 206.235C34.5931 209.684 31.9026 212.963 29 216.048L29.0056 216.085C29.1521 216.221 29.3289 216.321 29.5213 216.375L29.6241 216.39C38.0465 216.186 46.4535 215.559 54.8131 214.511C57.4768 213.943 60.2257 213.901 62.9055 214.387L63.0104 214.41L63.1201 214.406L63.2202 214.381L63.2994 214.342L63.3443 214.295L63.3412 214.246L63.2775 214.202ZM40.7511 213.611C37.9384 213.809 35.1122 213.96 32.2724 214.064C33.199 212.931 34.1125 211.793 35.0128 210.649C36.9069 211.658 38.8192 212.646 40.7511 213.611Z" fill="url(#paint1_linear_420_569)"/>
<path d="M54.3978 201.74C56.591 202.445 58.8986 202.725 61.1967 202.565C61.2114 202.565 61.2179 202.576 61.2331 202.575C62.3957 202.543 63.5959 202.45 63.9613 202.42L64.0904 202.469C64.1676 203.241 64.4166 203.985 64.8188 204.648C65.5559 205.662 66.5909 206.421 67.7785 206.819C71.083 208.24 74.7925 208.402 78.2081 207.275C78.6689 207.055 79.0695 206.726 79.376 206.317C79.6008 206.001 79.7591 205.642 79.8414 205.262C80.5005 201.922 78.999 198.625 77.5302 195.522C70.4843 194.778 63.3771 194.829 56.3429 195.676C55.5863 195.787 54.8367 195.942 54.0981 196.14C53.4083 196.316 52.7451 196.584 52.1259 196.935C51.5796 197.246 51.1537 197.732 50.9164 198.315C50.7072 199.929 52.4039 201.074 54.3978 201.74Z" fill="url(#paint2_linear_420_569)"/>
<path d="M273.004 38.7793C274.319 37.7091 275.634 36.6182 276.963 35.5798C278.173 34.6884 279.392 33.8491 280.613 32.9901L280.687 32.9146L280.741 32.8214L280.773 32.724L280.781 32.6369C280.78 32.615 280.775 32.5935 280.764 32.5743L280.721 32.5513L280.651 32.5811C280.251 32.8833 279.824 33.1459 279.373 33.3651L279.037 33.3981L278.897 33.1728C278.914 33.0069 278.932 32.841 278.949 32.6751C279.135 32.0412 279.362 31.4198 279.626 30.8146C281.073 27.4455 282.597 24.0932 284.199 20.7576C286.268 19.3774 288.349 18.0329 290.443 16.7243C291.002 18.1231 291.571 19.5136 292.143 20.9034C292.294 21.3295 292.358 21.7816 292.331 22.2328C292.304 22.684 292.186 23.125 291.984 23.5295C291.218 24.9062 290.117 26.0674 288.783 26.9055L288.706 26.9769L288.65 27.0673L288.616 27.163L288.605 27.2487L288.62 27.3109L288.662 27.3353L288.733 27.3081C290.054 26.3887 291.378 25.4495 292.713 24.5772C294.011 23.766 295.314 23.0216 296.621 22.2452L296.699 22.1771L296.757 22.0893L296.794 21.9967C296.802 21.9692 296.807 21.9407 296.807 21.912L296.794 21.8497L296.753 21.8237L296.681 21.8477C296.146 22.2533 295.486 22.4619 294.814 22.4381C293.924 21.9103 293.278 21.0527 293.016 20.0519C291.259 16.1969 289.765 12.2276 288.545 8.1712L288.51 8.15768C288.319 8.21645 288.144 8.3198 288.001 8.45913L287.937 8.54084C283.902 15.9369 280.242 23.531 276.969 31.2944C276.129 33.8853 274.791 36.2869 273.03 38.3648L272.958 38.444L272.907 38.541L272.878 38.6402L272.873 38.7285L272.891 38.7911L272.935 38.8127L273.004 38.7793ZM284.78 19.5664C286.014 17.0316 287.297 14.5086 288.627 11.9974C289.145 13.3664 289.674 14.7266 290.214 16.078C288.393 17.2137 286.582 18.3761 284.78 19.5664Z" fill="url(#paint3_linear_420_569)"/>
<path d="M288.237 37.3204C286.53 38.8669 285.133 40.7253 284.123 42.7959C284.116 42.8086 284.103 42.8087 284.096 42.8221C283.543 43.8451 283.023 44.9311 282.866 45.2624L282.759 45.3496C282.052 45.0307 281.283 44.874 280.508 44.891C279.262 45.0226 278.087 45.5396 277.148 46.3687C274.266 48.5203 272.271 51.6517 271.538 55.1732C271.499 55.6823 271.583 56.1936 271.784 56.6634C271.946 57.0164 272.177 57.3329 272.465 57.594C275.028 59.8347 278.634 60.1832 282.056 60.4624C286.223 54.7328 289.732 48.5519 292.516 42.0365C292.798 41.326 293.039 40.5996 293.237 39.861C293.429 39.1754 293.529 38.4672 293.534 37.755C293.538 37.1264 293.33 36.5146 292.944 36.0179C291.651 35.0297 289.811 35.9265 288.237 37.3204Z" fill="url(#paint4_linear_420_569)"/>
<path d="M214.136 136.544C208.867 138.317 203.838 140.734 199.161 143.741C199.144 143.75 199.132 143.751 199.113 143.761C195.039 145.94 186.779 151.995 186.779 151.995C185.392 150.074 183.577 148.504 181.478 147.408L181.488 147.424C178.523 145.821 174.098 145.841 169.956 146.244C161.074 147.5 147.681 151.319 141.121 159.447C140.144 160.677 139.469 162.12 139.15 163.658C138.934 164.858 138.951 166.087 139.2 167.28C141.299 177.832 150.007 185.46 158.375 192.327C179.985 184.29 201.82 172.994 219.694 156.179C221.61 154.391 223.411 152.483 225.086 150.466C226.66 148.609 227.983 146.552 229.021 144.348C233.34 133.226 221.815 134.097 214.136 136.544Z" fill="url(#paint5_linear_420_569)"/>
<defs>
<linearGradient id="paint0_linear_420_569" x1="134.57" y1="61.1561" x2="214.124" y2="276.957" gradientUnits="userSpaceOnUse">
<stop stop-color="#F5E9DC"/>
<stop offset="0.702236" stop-color="#F3EBD8"/>
<stop offset="0.9993" stop-color="#CFD7F0"/>
<stop offset="1" stop-color="white"/>
</linearGradient>
<linearGradient id="paint1_linear_420_569" x1="4.21471" y1="70.5685" x2="80.2064" y2="331.955" gradientUnits="userSpaceOnUse">
<stop stop-color="#E50656"/>
<stop offset="0.7581" stop-color="#99002E"/>
</linearGradient>
<linearGradient id="paint2_linear_420_569" x1="112.556" y1="325.709" x2="12.4042" y2="59.455" gradientUnits="userSpaceOnUse">
<stop stop-color="#E50656"/>
<stop offset="0.7581" stop-color="#99002E"/>
</linearGradient>
<linearGradient id="paint3_linear_420_569" x1="426.926" y1="59.4464" x2="162.563" y2="-5.43601" gradientUnits="userSpaceOnUse">
<stop stop-color="#E50656"/>
<stop offset="0.7581" stop-color="#99002E"/>
</linearGradient>
<linearGradient id="paint4_linear_420_569" x1="151.798" y1="25.7024" x2="432.456" y2="72.0952" gradientUnits="userSpaceOnUse">
<stop stop-color="#E50656"/>
<stop offset="0.7581" stop-color="#99002E"/>
</linearGradient>
<linearGradient id="paint5_linear_420_569" x1="160.889" y1="90.5328" x2="228.892" y2="271.319" gradientUnits="userSpaceOnUse">
<stop stop-color="#E50656"/>
<stop offset="0.7581" stop-color="#99002E"/>
</linearGradient>
</defs>
</svg>