<svg width="135" height="81" viewBox="0 0 135 81" fill="none" xmlns="http://www.w3.org/2000/svg">
<path d="M4.59964 28.7361C3.26603 30.0697 2.31505 31.5764 1.74728 33.2556C1.17893 34.9354 0.895325 36.4783 0.895325 37.886C0.895325 42.1093 2.22894 45.406 4.89587 47.777C7.53813 50.1976 11.2178 51.4072 15.9353 51.4072C18.701 51.4072 20.7011 51.148 21.9363 50.6293C22.2572 50.5059 22.4607 50.3948 22.5477 50.2961C22.6338 50.1976 22.7265 49.9875 22.8256 49.666C22.9737 49.1723 23.1341 48.3821 23.3072 47.2953C23.4797 46.2088 23.5661 45.567 23.5661 45.3689C23.5661 45.0483 23.4797 44.8873 23.3072 44.8873C23.1588 44.8873 23.0477 45.0483 22.9737 45.3689C22.8256 46.53 22.4183 47.4684 21.7512 48.1843C20.6644 49.2957 18.7257 49.8514 15.9353 49.8514C12.4532 49.8514 9.56926 48.6352 7.28524 46.2025C5.00094 43.7704 3.85878 40.9114 3.85878 37.6268C3.85878 33.7 4.85885 30.7865 6.85926 28.8842C8.53848 27.2544 11.1067 26.4392 14.5647 26.4392C15.9474 26.4392 17.2503 26.6246 18.4728 26.9949C19.6953 27.3655 20.615 27.8227 21.2325 28.3658C22.1708 29.1564 22.6404 30.2919 22.6404 31.7736C22.6404 32.2432 22.7386 32.4777 22.9367 32.4777C23.1089 32.4777 23.2203 32.2926 23.2699 31.9217C23.3193 31.5515 23.3313 30.8106 23.3072 29.6992V28.3285C23.3072 27.8348 23.344 27.3902 23.418 26.9949L23.4924 26.4392C23.4924 26.1929 23.344 26.0689 23.0477 26.0689C22.4303 26.0689 21.2818 25.9208 19.6023 25.6243C17.9228 25.3277 16.3177 25.1799 14.7869 25.1799C10.3658 25.1799 6.97035 26.3651 4.59964 28.7361Z" fill="url(#paint0_linear_126_9177)"/>
<path d="M36.1592 26.2857L28.5651 47.0677C28.1208 48.3029 27.6449 49.1485 27.1388 49.6052C26.6324 50.0625 25.848 50.2907 24.7865 50.2907C24.589 50.2907 24.4902 50.3527 24.4902 50.4758C24.4902 50.7227 24.7001 50.8464 25.12 50.8464C25.7369 50.8464 26.5148 50.8278 27.4537 50.7907C28.3917 50.7534 28.8734 50.735 28.8984 50.735C28.9968 50.735 29.38 50.7534 30.0469 50.7907C30.7137 50.8278 31.195 50.8464 31.4915 50.8464C31.8372 50.8464 32.0102 50.7227 32.0102 50.4758C32.0102 50.3527 31.8991 50.2907 31.6767 50.2907H31.3434C31.0219 50.2907 30.7323 50.2043 30.4728 50.0312C30.2133 49.8587 30.0839 49.6239 30.0839 49.3274C30.0839 48.7102 30.232 47.9567 30.5285 47.0677L32.5286 41.1403C32.6271 40.968 32.7385 40.8814 32.8622 40.8814H40.086C40.2091 40.8814 40.3081 40.9554 40.3822 41.1035L43.4941 49.3274C43.6912 49.8707 44.1296 50.6369 44.809 51.624C45.4882 52.6115 46.2104 53.5133 46.9762 54.3286C49.5938 56.9955 52.6809 58.3291 56.2371 58.3291C59.9168 58.3291 63.4483 57.5633 66.832 56.0325C67.0292 55.9085 67.1282 55.7853 67.1282 55.6619C67.1282 55.5138 67.0541 55.4397 66.906 55.4397C66.3626 55.6619 65.8689 55.8407 65.4243 55.9768C64.9797 56.1123 64.4793 56.2483 63.9239 56.3844C63.3685 56.5196 62.72 56.6436 61.9789 56.7547C61.238 56.8657 60.5345 56.9214 59.8677 56.9214C59.8177 56.9214 59.5215 56.9335 58.9784 56.9587C58.4347 56.9829 57.9783 56.9892 57.6078 56.9768C57.2375 56.9642 56.6752 56.8967 55.9222 56.7733C55.1687 56.6493 54.4962 56.4584 53.9032 56.1989C53.3107 55.9397 52.6126 55.5508 51.8106 55.0321C51.0075 54.5137 50.2666 53.8839 49.5877 53.1431C48.9083 52.4019 48.1987 51.4509 47.4576 50.2907C46.7167 49.1299 46.0373 47.8212 45.4201 46.3639L37.6409 26.2116C37.3197 25.3967 37.0723 24.9891 36.9001 24.9891C36.727 24.9891 36.4798 25.4217 36.1592 26.2857ZM33.1584 39.4364L36.0851 30.3976C36.2576 29.9533 36.4307 29.9533 36.6035 30.3976L39.7524 39.4364C39.8018 39.6095 39.7645 39.6959 39.6413 39.6959H33.2328C33.1088 39.6959 33.0844 39.6095 33.1584 39.4364Z" fill="url(#paint1_linear_126_9177)"/>
<path d="M55.6973 26.7519C54.4498 27.8513 53.8263 29.3023 53.8263 31.1047C53.8263 32.3643 54.1349 33.5498 54.7526 34.6609C55.3695 35.7726 56.518 37.0198 58.1977 38.4025L59.6795 39.6248C61.1612 40.8352 62.1736 41.8543 62.7173 42.6809C63.2601 43.5088 63.5319 44.4905 63.5319 45.626C63.5319 46.8118 63.112 47.8552 62.2726 48.7565C61.4327 49.6584 60.2593 50.1085 58.7535 50.1085C57.3699 50.1085 56.179 49.7509 55.1786 49.0344C54.1785 48.3182 53.6782 47.1207 53.6782 45.4409C53.6782 45.1943 53.6042 45.0706 53.456 45.0706C53.283 45.0706 53.1968 45.2557 53.1968 45.626C53.1968 45.7004 53.1653 46.145 53.1041 46.9596C53.0421 47.7749 53.0114 48.5037 53.0114 49.1455C53.0114 49.6148 53.0358 49.9174 53.0855 50.0531C53.1346 50.1889 53.283 50.3186 53.5301 50.4418C54.74 51.0348 56.2344 51.3311 58.0126 51.3311C59.494 51.3311 60.778 51.0902 61.865 50.6088C62.9515 50.1272 63.7727 49.5037 64.3285 48.7379C64.8842 47.9726 65.2855 47.2254 65.5326 46.4966C65.7789 45.7684 65.9029 45.0583 65.9029 44.3668C65.9029 42.9591 65.563 41.6688 64.8842 40.4954C64.2047 39.3228 62.9142 37.9949 61.0131 36.5132L60.0871 35.7726C58.4569 34.4387 57.3699 33.4014 56.8271 32.6605C56.2834 31.9196 56.0119 31.0806 56.0119 30.1414C56.0119 28.9562 56.4011 28.0178 57.179 27.3263C57.9569 26.6354 58.9386 26.289 60.1238 26.289C62.2227 26.289 63.6183 26.8696 64.3098 28.0302C64.4582 28.302 64.563 28.6226 64.6247 28.9935C64.6861 29.3635 64.7361 29.6477 64.7731 29.8451C64.8101 30.0432 64.8899 30.1414 65.0139 30.1414C65.1617 30.1414 65.2361 29.8951 65.2361 29.4008C65.2361 28.734 65.2484 28.1169 65.2731 27.5485C65.2975 26.9807 65.3222 26.5482 65.3472 26.2519L65.3842 25.8446C65.3842 25.6471 65.2731 25.5481 65.0507 25.5481C64.8285 25.5481 64.3038 25.474 63.4765 25.3256C62.6487 25.1778 61.741 25.1035 60.7539 25.1035C58.6295 25.1035 56.9439 25.6537 55.6973 26.7519Z" fill="url(#paint2_linear_126_9177)"/>
<path d="M72.6099 25.6989H69.2388C68.8927 25.6989 68.7202 25.7727 68.7202 25.9211C68.7202 26.0692 68.8063 26.1432 68.9794 26.1432C69.424 26.1432 69.7696 26.1806 70.0167 26.2543C70.7077 26.4274 71.0911 27.0572 71.1652 28.1437C71.2143 28.8601 71.2393 31.2681 71.2393 35.3672V41.2573C71.2393 45.1597 71.1773 47.5798 71.0538 48.5181C70.8807 49.6542 70.5598 50.2591 70.0908 50.3331C69.6955 50.4321 69.362 50.4815 69.0904 50.4815C68.9173 50.4815 68.8315 50.5435 68.8315 50.6667C68.8315 50.8641 69.0038 50.9629 69.3499 50.9629C69.6462 50.9629 70.0541 50.9566 70.5725 50.9445C71.0911 50.9319 71.5599 50.9132 71.9801 50.8888C72.3998 50.8641 72.6222 50.8521 72.6469 50.8521L73.3137 50.8888C73.7584 50.9132 74.3075 50.9319 74.9622 50.9445C75.6161 50.9566 76.2155 50.9629 76.7589 50.9629C77.1045 50.9629 77.2772 50.8641 77.2772 50.6667C77.2772 50.5435 77.1906 50.4815 77.0181 50.4815C76.6478 50.4815 76.1411 50.4321 75.4993 50.3331C74.7584 50.2591 74.3261 49.6542 74.2027 48.5181C74.079 47.5798 74.0176 45.1597 74.0176 41.2573V35.3672C74.0176 31.2681 74.042 28.8601 74.0919 28.1437C74.141 27.5265 74.2521 27.0759 74.4252 26.7917C74.5977 26.5081 74.9066 26.3163 75.3512 26.2173C75.5978 26.1682 75.8696 26.1432 76.1661 26.1432C76.3386 26.1432 76.4253 26.0692 76.4253 25.9211C76.4253 25.7727 76.2522 25.6989 75.9069 25.6989H72.6099Z" fill="url(#paint3_linear_126_9177)"/>
<path d="M82.0588 26.8104L82.0215 45.9623C82.0215 47.5431 81.9598 48.6238 81.8366 49.2039C81.7126 49.7843 81.4411 50.1239 81.0214 50.2223C80.7002 50.3461 80.2432 50.4078 79.6508 50.4078C79.4777 50.4078 79.3913 50.4818 79.3913 50.63C79.3913 50.7781 79.5641 50.8524 79.9103 50.8524H83.1329H86.6891C87.0841 50.8524 87.2819 50.7781 87.2819 50.63C87.2819 50.4818 87.1952 50.4078 87.0224 50.4078C86.3309 50.4078 85.7752 50.3461 85.3558 50.2223C84.8862 50.0992 84.5527 49.7593 84.3555 49.2039C84.1574 48.6482 84.0463 47.6912 84.0219 46.3329L83.6146 30.3298L92.3201 39.924C93.3572 41.0851 94.5797 42.4001 95.9874 43.8695C97.3951 45.3391 98.5493 46.518 99.4509 47.407C100.352 48.2963 100.89 48.8273 101.063 48.9998C102.494 50.4078 103.309 51.1113 103.507 51.1113C103.581 51.1113 103.631 51.093 103.656 51.0562C103.68 51.0189 103.705 50.9199 103.73 50.7594C103.754 50.5992 103.773 50.3647 103.785 50.0559C103.797 49.7473 103.804 49.309 103.804 48.7406L103.878 29.1441C103.878 28.0826 103.952 27.3474 104.1 26.9401C104.249 26.5325 104.594 26.2796 105.137 26.1809C105.384 26.1065 105.643 26.0695 105.915 26.0695C106.162 26.0695 106.286 25.9955 106.286 25.8473C106.286 25.7489 106.088 25.6992 105.693 25.6992H102.84H99.3581C98.9138 25.6992 98.6916 25.7489 98.6916 25.8473C98.6916 25.9955 98.7777 26.0695 98.9508 26.0695C99.4939 26.0695 100.05 26.1192 100.618 26.2176C101.136 26.3657 101.476 26.6562 101.637 27.0882C101.797 27.5205 101.89 28.2921 101.915 29.4035L102.285 46.4067L94.2462 37.6641C87.5781 30.5029 84.034 26.6872 83.6146 26.2176C82.9719 25.5015 82.5772 25.1432 82.4291 25.1432C82.182 25.1432 82.0588 25.6992 82.0588 26.8104Z" fill="url(#paint4_linear_126_9177)"/>
<path d="M116.083 25.9557C114.588 26.524 113.341 27.2586 112.341 28.1596C111.341 29.0615 110.489 30.0923 109.785 31.2531C109.081 32.4142 108.575 33.581 108.266 34.7536C107.958 35.9271 107.803 37.0689 107.803 38.1804C107.803 39.4155 107.958 40.6438 108.266 41.8663C108.575 43.0888 109.069 44.274 109.748 45.4222C110.427 46.571 111.261 47.5774 112.249 48.4417C113.236 49.3062 114.465 50.0038 115.935 50.5345C117.404 51.0655 119.015 51.3311 120.769 51.3311C124.72 51.3311 127.931 50.0101 130.401 47.3672C132.87 44.725 134.105 41.49 134.105 37.6614C134.105 33.8339 132.876 30.7844 130.419 28.5115C127.961 26.2399 124.819 25.1035 120.991 25.1035C119.213 25.1035 117.577 25.3876 116.083 25.9557ZM114.008 46.5337C111.971 44.1756 110.952 41.0824 110.952 37.2541C110.952 33.6979 111.853 30.9752 113.656 29.0859C115.459 27.1966 117.818 26.2519 120.732 26.2519C123.547 26.2519 125.949 27.351 127.937 29.5489C129.925 31.7474 130.919 34.7602 130.919 38.5877C130.919 40.44 130.69 42.0827 130.234 43.5148C129.777 44.9472 129.215 46.0652 128.548 46.8672C127.881 47.6698 127.104 48.3248 126.215 48.8306C125.326 49.3369 124.516 49.6705 123.788 49.8307C123.06 49.9917 122.349 50.0718 121.658 50.0718C118.595 50.0718 116.046 48.8923 114.008 46.5337Z" fill="url(#paint5_linear_126_9177)"/>
<path d="M6.41064 0.448244C5.53573 0.49044 5.0245 0.511395 4.87724 0.511395C4.83505 0.511395 4.62924 0.501057 4.26096 0.479815C3.89182 0.459148 3.45982 0.437626 2.96495 0.416386C2.46951 0.395718 2.03234 0.384806 1.65316 0.384806C1.33683 0.384806 1.17896 0.459148 1.17896 0.606115C1.17896 0.732416 1.26278 0.795567 1.43185 0.795567C1.91638 0.795567 2.23241 0.817097 2.38024 0.859007C2.84324 0.964638 3.15469 1.13887 3.31257 1.38056C3.47073 1.62312 3.57033 1.99685 3.61281 2.50291C3.65472 3.11432 3.67625 5.16898 3.67625 8.66692V13.6928C3.67625 17.0228 3.62315 19.0878 3.51809 19.8884C3.41246 20.858 3.13861 21.3744 2.69599 21.4373C2.35871 21.5219 2.07425 21.5638 1.8429 21.5638C1.69507 21.5638 1.6213 21.627 1.6213 21.7536C1.6213 21.9011 1.76855 21.9746 2.06392 21.9746C2.3168 21.9746 2.6647 21.9643 3.10704 21.9433C3.54966 21.9224 3.93947 21.9066 4.27675 21.8957C4.61346 21.8853 4.79285 21.8799 4.81409 21.8799C4.83505 21.8799 5.02996 21.8853 5.39881 21.8957C5.76738 21.9066 6.23095 21.9224 6.78982 21.9433C7.34784 21.9643 7.85908 21.9746 8.32265 21.9746C8.63898 21.9746 8.79713 21.9011 8.79713 21.7536C8.79713 21.627 8.71274 21.5638 8.54424 21.5638C8.20668 21.5638 7.7853 21.5219 7.27953 21.4373C6.62622 21.3744 6.24702 20.858 6.14168 19.8884C6.05729 19.0878 6.01538 17.0228 6.01538 13.6928V1.96528C6.01538 1.64924 6.08887 1.45951 6.23641 1.39636C6.51025 1.2913 6.92101 1.23848 7.46955 1.23848C9.15508 1.23848 10.4614 1.71268 11.3892 2.66079C12.4426 3.73549 12.9696 5.20056 12.9696 7.05458C12.9696 8.3615 12.4954 9.46778 11.547 10.3737C10.5986 11.2802 9.42921 11.7331 8.03847 11.7331C7.70091 11.7331 7.49022 11.744 7.40611 11.7644C7.32172 11.7857 7.27953 11.8597 7.27953 11.986C7.27953 12.1123 7.38487 12.1755 7.59585 12.1755C7.67967 12.1967 7.88032 12.207 8.19635 12.207C10.2401 12.207 11.9211 11.575 13.2383 10.3103C14.555 9.0461 15.214 7.41339 15.214 5.41097C15.214 4.08338 14.7395 2.94525 13.7917 1.99685C12.5477 0.922153 10.7775 0.384806 8.48081 0.384806C7.97504 0.384806 7.2847 0.40605 6.41064 0.448244Z" fill="url(#paint6_linear_126_9177)"/>
<path d="M36.9637 0.416386C36.5208 0.437626 36.1259 0.459148 35.778 0.479815C35.4304 0.501057 35.2458 0.511395 35.2251 0.511395C35.2039 0.511395 35.0139 0.501057 34.6559 0.479815C34.2974 0.459148 33.8602 0.437626 33.3441 0.416386C32.8274 0.395718 32.3799 0.384806 32.0007 0.384806C31.6847 0.384806 31.5265 0.459148 31.5265 0.606115C31.5265 0.732416 31.6106 0.795567 31.7794 0.795567C32.2005 0.795567 32.5168 0.827429 32.7275 0.890865C33.1908 0.97497 33.502 1.13887 33.6601 1.38056C33.8183 1.62312 33.9179 1.99685 33.9604 2.50291C34.0026 3.11432 34.0238 5.16898 34.0238 8.66692V9.26713C34.0238 9.39371 33.9707 9.45715 33.8657 9.45715H21.7587C21.6324 9.45715 21.5692 9.39371 21.5692 9.26713V8.66692C21.5692 5.16898 21.5899 3.11432 21.6324 2.50291C21.6746 1.97618 21.7693 1.59126 21.9168 1.3487C22.0641 1.10701 22.317 0.953728 22.6755 0.890865C23.0125 0.827429 23.255 0.795567 23.4026 0.795567C23.5498 0.795567 23.6239 0.732416 23.6239 0.606115C23.6239 0.459148 23.4761 0.384806 23.1813 0.384806C22.9284 0.384806 22.5808 0.395718 22.1382 0.416386C21.6958 0.437626 21.2951 0.459148 20.9369 0.479815C20.5784 0.501057 20.3886 0.511395 20.3682 0.511395C20.3467 0.511395 20.157 0.501057 19.799 0.479815C19.4405 0.459148 19.0033 0.437626 18.4875 0.416386C17.9705 0.395718 17.523 0.384806 17.1439 0.384806C16.8485 0.384806 16.7012 0.459148 16.7012 0.606115C16.7012 0.732416 16.7747 0.795567 16.9225 0.795567C17.3224 0.795567 17.6496 0.827429 17.9025 0.890865C18.3658 0.97497 18.677 1.13887 18.8348 1.38056C18.993 1.62312 19.0926 1.99685 19.1354 2.50291C19.156 3.11432 19.1669 5.16898 19.1669 8.66692V13.6928C19.1669 17.0228 19.1245 19.0878 19.0404 19.8884C18.8928 20.858 18.6187 21.3853 18.2186 21.4688C17.9657 21.5323 17.6812 21.5638 17.3652 21.5638C17.1961 21.5638 17.1123 21.627 17.1123 21.7536C17.1123 21.9011 17.2704 21.9746 17.5862 21.9746C17.8391 21.9746 18.187 21.9643 18.6293 21.9433C19.0719 21.9224 19.4672 21.9066 19.8151 21.8957C20.1624 21.8853 20.3467 21.8799 20.3682 21.8799C20.3886 21.8799 20.5893 21.8853 20.9687 21.8957C21.3479 21.9066 21.8112 21.9224 22.3595 21.9433C22.9074 21.9643 23.4129 21.9746 23.8768 21.9746C24.1928 21.9746 24.351 21.9011 24.351 21.7536C24.351 21.627 24.2769 21.5638 24.1297 21.5638C23.6658 21.5638 23.2338 21.5323 22.8337 21.4688C22.1588 21.3638 21.7905 20.8368 21.7271 19.8884C21.6215 19.0878 21.5692 17.0228 21.5692 13.6928V10.69C21.5692 10.5847 21.6324 10.5318 21.7587 10.5318H33.8657C33.9707 10.5318 34.0238 10.5847 34.0238 10.69V13.6928C34.0238 17.0228 33.9814 19.0878 33.8972 19.8884C33.7497 20.858 33.4652 21.3853 33.0439 21.4688C32.791 21.5323 32.5065 21.5638 32.1902 21.5638C32.0426 21.5638 31.9692 21.627 31.9692 21.7536C31.9692 21.9011 32.1161 21.9746 32.4115 21.9746C32.6647 21.9746 33.0169 21.9643 33.4707 21.9433C33.9234 21.9224 34.3241 21.9066 34.6717 21.8957C35.0193 21.8853 35.2039 21.8799 35.2251 21.8799L35.7938 21.9115C36.1732 21.9115 36.642 21.9224 37.2006 21.9433C37.7586 21.9643 38.2698 21.9746 38.7334 21.9746C39.0497 21.9746 39.2079 21.9011 39.2079 21.7536C39.2079 21.627 39.1235 21.5638 38.955 21.5638C38.4911 21.5638 38.0697 21.5323 37.6903 21.4688C37.2898 21.406 37.0157 21.2478 36.8684 20.9949C36.7212 20.7418 36.6156 20.3735 36.5527 19.8884C36.468 19.0878 36.4261 17.0228 36.4261 13.6928V8.66692C36.4261 5.16898 36.4468 3.11432 36.4893 2.50291C36.5099 1.53385 36.8578 0.996212 37.5324 0.890865C37.8694 0.827429 38.1116 0.795567 38.2595 0.795567C38.4067 0.795567 38.4808 0.732416 38.4808 0.606115C38.4808 0.459148 38.3226 0.384806 38.0066 0.384806C37.7537 0.384806 37.4058 0.395718 36.9637 0.416386Z" fill="url(#paint7_linear_126_9177)"/>
<path d="M47.5364 0.726637C46.2614 1.21174 45.197 1.83865 44.3439 2.60765C43.4902 3.37693 42.7632 4.25672 42.1627 5.24703C41.5622 6.23791 41.1299 7.23337 40.8666 8.2343C40.6034 9.23551 40.4717 10.21 40.4717 11.1581C40.4717 12.2122 40.6034 13.2602 40.8666 14.3036C41.1299 15.3467 41.5513 16.358 42.1311 17.3382C42.7106 18.3182 43.4219 19.177 44.2647 19.9145C45.1075 20.6522 46.156 21.2475 47.4101 21.7002C48.6637 22.1534 50.0386 22.3799 51.5353 22.3799C54.9066 22.3799 57.6462 21.2529 59.7539 18.9976C61.8608 16.7429 62.9149 13.9824 62.9149 10.7155C62.9149 7.44952 61.8663 4.84688 59.7697 2.90818C57.6723 0.969193 54.991 -0.000444412 51.725 -0.000444412C50.2077 -0.000444412 48.8112 0.242105 47.5364 0.726637ZM45.7662 18.2863C44.0276 16.2742 43.1584 13.6345 43.1584 10.3679C43.1584 7.33356 43.9274 5.00992 45.466 3.39788C47.004 1.78583 49.0167 0.979527 51.5034 0.979527C53.9057 0.979527 55.9552 1.91788 57.6516 3.79285C59.348 5.66898 60.1963 8.23976 60.1963 11.5058C60.1963 13.0868 60.0014 14.4882 59.6116 15.7101C59.2215 16.9326 58.7424 17.8865 58.1732 18.5708C57.6045 19.256 56.9406 19.8143 56.1817 20.246C55.4233 20.6783 54.7327 20.963 54.1115 21.0997C53.4897 21.2369 52.8835 21.3052 52.2936 21.3052C49.6807 21.3052 47.5049 20.2991 45.7662 18.2863Z" fill="url(#paint8_linear_126_9177)"/>
<path d="M76.3846 0.179277C76.2999 0.253336 76.237 0.290081 76.1948 0.290081C76.1736 0.311323 76.0051 0.316774 75.6891 0.305868C75.373 0.295534 75.1305 0.290081 74.962 0.290081C73.6344 0.353231 71.4531 0.384804 68.4188 0.384804C68.3972 0.384804 68.2078 0.379639 67.8496 0.369017C67.491 0.358685 67.0539 0.342894 66.5381 0.321653C66.0211 0.300985 65.5736 0.290081 65.1944 0.290081C64.899 0.290081 64.7518 0.364138 64.7518 0.511393C64.7518 0.637691 64.8256 0.701124 64.9734 0.701124C65.3732 0.701124 65.7002 0.732414 65.9531 0.795565C66.3957 0.880529 66.7008 1.04845 66.8699 1.30191C67.0381 1.55451 67.1331 1.92365 67.1543 2.4079C67.1962 3.0193 67.2175 5.07397 67.2175 8.5719V13.5981C67.2175 16.9281 67.175 18.9931 67.0912 19.7936C66.9434 20.7633 66.6692 21.29 66.2691 21.3744C65.8899 21.4585 65.5945 21.5007 65.3841 21.5007C65.2363 21.5007 65.1628 21.5532 65.1628 21.6586C65.1628 21.8064 65.321 21.8799 65.637 21.8799C65.9737 21.8799 66.522 21.8589 67.2806 21.8167H68.4188C68.5873 21.8167 68.9665 21.8322 69.5566 21.8641C70.1465 21.8957 70.9634 21.9224 72.0065 21.9433C73.0494 21.9643 74.2033 21.9746 75.4677 21.9746C75.9104 21.9746 76.2106 21.9643 76.3688 21.9433C76.5266 21.9224 76.6584 21.8641 76.764 21.7694C76.8691 21.6746 76.9535 21.5007 77.0166 21.2478C77.0798 20.9743 77.159 20.4785 77.2537 19.7621C77.3485 19.0459 77.3961 18.6136 77.3961 18.4661C77.3961 18.1713 77.333 18.0234 77.2061 18.0234C77.1004 18.0234 77.0166 18.1713 76.9535 18.4661C76.7847 19.5408 76.3633 20.2257 75.6891 20.5207C75.1833 20.7317 74.2665 20.8368 72.9389 20.8368C71.5481 20.8368 70.6574 20.6947 70.2679 20.4099C69.8775 20.1255 69.662 19.4885 69.6198 18.4976V13.5981V11.1008C69.6198 10.9742 69.6832 10.911 69.8095 10.911C71.8533 10.911 73.2233 10.9535 73.9189 11.0376C74.7409 11.122 75.2355 11.4596 75.4046 12.0492C75.4677 12.2814 75.4993 12.5862 75.4993 12.9657C75.4993 13.1554 75.5731 13.2502 75.7206 13.2502C75.8472 13.2502 75.9104 13.0607 75.9104 12.6815C75.9104 12.6181 75.9419 12.0176 76.0051 10.8795C76.0258 10.6059 76.0576 10.3421 76.1001 10.0892C76.142 9.83663 76.179 9.6466 76.2106 9.5203C76.2425 9.39371 76.258 9.3099 76.258 9.26713C76.258 9.12016 76.2052 9.0461 76.1001 9.0461C76.0154 9.0461 75.8788 9.17269 75.6891 9.42558C75.5203 9.61503 75.0673 9.74162 74.3299 9.80477C73.8873 9.84754 72.3803 9.86791 69.8095 9.86791C69.6832 9.86791 69.6198 9.77319 69.6198 9.58374V1.71268C69.6198 1.52294 69.6832 1.42822 69.8095 1.42822C71.7694 1.42822 73.0652 1.44917 73.6978 1.49137C74.4137 1.57547 74.904 1.69689 75.1678 1.85476C75.431 2.01264 75.615 2.21845 75.7206 2.47134C75.8472 2.74547 75.9104 3.09308 75.9104 3.51446C75.9104 3.74639 75.9841 3.86178 76.1314 3.86178C76.258 3.86178 76.3214 3.75672 76.3214 3.54603C76.3421 3.41944 76.3737 3.08762 76.4161 2.54998C76.4581 2.01264 76.4796 1.72329 76.4796 1.6811C76.5002 1.44916 76.5318 1.23331 76.5743 1.03295C76.6162 0.83288 76.6478 0.674715 76.669 0.558748C76.6897 0.443069 76.7006 0.353231 76.7006 0.290081C76.7006 0.142828 76.669 0.0687714 76.6059 0.0687714C76.5424 0.0687714 76.4687 0.105795 76.3846 0.179277Z" fill="url(#paint9_linear_126_9177)"/>
<path d="M81.4722 1.4586L81.4406 17.8012C81.4406 19.1501 81.3875 20.072 81.2824 20.5672C81.1768 21.0626 80.9455 21.3526 80.5869 21.4364C80.3128 21.542 79.9233 21.5945 79.4175 21.5945C79.2697 21.5945 79.1965 21.6577 79.1965 21.7843C79.1965 21.9106 79.3434 21.9737 79.6388 21.9737H82.389H85.4236C85.7603 21.9737 85.9291 21.9106 85.9291 21.7843C85.9291 21.6577 85.8551 21.5945 85.7081 21.5945C85.1179 21.5945 84.6435 21.542 84.2858 21.4364C83.8851 21.3313 83.6003 21.0411 83.4321 20.5672C83.2633 20.093 83.1683 19.2764 83.1474 18.1176L82.7998 4.46167L90.2282 12.6488C91.1134 13.6394 92.1566 14.7617 93.3576 16.0152C94.5589 17.2693 95.544 18.2754 96.3133 19.0341C97.0823 19.7927 97.5407 20.246 97.6885 20.3935C98.9102 21.5945 99.6057 22.1953 99.7745 22.1953C99.8379 22.1953 99.8798 22.1795 99.901 22.1477C99.9217 22.1161 99.943 22.0317 99.9642 21.8948C99.9851 21.7581 100.001 21.5578 100.012 21.294C100.022 21.0308 100.028 20.657 100.028 20.1722L100.091 3.45012C100.091 2.5445 100.154 1.9173 100.28 1.5694C100.407 1.22151 100.702 1.00594 101.165 0.921257C101.376 0.858107 101.597 0.826529 101.829 0.826529C102.04 0.826529 102.145 0.763384 102.145 0.636797C102.145 0.489542 101.976 0.415485 101.64 0.415485C101.176 0.415485 100.665 0.431269 100.107 0.463131C99.548 0.494705 99.2474 0.510496 99.2055 0.510496C99.1846 0.510496 98.8106 0.494705 98.0835 0.463131C97.3564 0.431269 96.7401 0.415485 96.2343 0.415485C95.8549 0.415485 95.6654 0.489542 95.6654 0.636797C95.6654 0.763384 95.7389 0.826529 95.8864 0.826529C96.35 0.826529 96.8239 0.869011 97.309 0.952827C97.7514 1.07941 98.041 1.32743 98.1782 1.69599C98.3151 2.06485 98.3941 2.72332 98.4153 3.67143L98.7313 18.1807L91.8721 10.7204C86.1823 4.60921 83.158 1.35326 82.7998 0.952827C82.2518 0.341997 81.9145 0.0362949 81.7882 0.0362949C81.5775 0.0362949 81.4722 0.51049 81.4722 1.4586Z" fill="url(#paint10_linear_126_9177)"/>
<path d="M107.93 0.502312H105.053C104.758 0.502312 104.61 0.565456 104.61 0.692041C104.61 0.818342 104.684 0.881783 104.832 0.881783C105.211 0.881783 105.506 0.913073 105.717 0.976223C106.307 1.12434 106.634 1.66169 106.697 2.58856C106.739 3.19996 106.76 5.25463 106.76 8.75256V13.7784C106.76 17.1084 106.707 19.1737 106.602 19.9743C106.454 20.9439 106.18 21.4598 105.78 21.5232C105.443 21.6076 105.158 21.6495 104.927 21.6495C104.779 21.6495 104.705 21.7023 104.705 21.8077C104.705 21.9762 104.852 22.0605 105.148 22.0605C105.401 22.0605 105.749 22.0551 106.191 22.0448C106.634 22.0338 107.034 22.0181 107.392 21.9974C107.75 21.9762 107.94 21.9655 107.961 21.9655L108.53 21.9974C108.91 22.0181 109.378 22.0338 109.937 22.0448C110.495 22.0551 111.006 22.0605 111.47 22.0605C111.765 22.0605 111.913 21.9762 111.913 21.8077C111.913 21.7023 111.838 21.6495 111.691 21.6495C111.375 21.6495 110.943 21.6076 110.395 21.5232C109.763 21.4598 109.394 20.9439 109.289 19.9743C109.183 19.1737 109.131 17.1084 109.131 13.7784V8.75256C109.131 5.25463 109.152 3.19996 109.194 2.58856C109.236 2.06212 109.331 1.67747 109.478 1.43492C109.626 1.19265 109.89 1.02932 110.269 0.944643C110.479 0.902735 110.711 0.881783 110.964 0.881783C111.111 0.881783 111.186 0.818342 111.186 0.692041C111.186 0.565456 111.038 0.502312 110.743 0.502312H107.93Z" fill="url(#paint11_linear_126_9177)"/>
<path d="M131.022 0.555208C130.422 0.586782 130.111 0.602573 130.09 0.602573C130.069 0.602573 129.747 0.586782 129.126 0.555208C128.504 0.523346 127.982 0.507853 127.561 0.507853C127.224 0.507853 127.055 0.570997 127.055 0.697582C127.055 0.845125 127.139 0.918613 127.308 0.918613C127.688 0.918613 127.972 0.939856 128.162 0.981764C128.498 1.08768 128.668 1.26651 128.668 1.5194C128.668 1.79352 128.573 2.13081 128.383 2.53095C128.236 2.82603 127.603 3.86914 126.486 5.66031C125.369 7.45175 124.6 8.6427 124.179 9.23229C122.998 7.29359 121.713 5.02794 120.323 2.43593C120.133 2.05674 120.038 1.74042 120.038 1.48782C120.038 1.23494 120.153 1.06644 120.386 0.981764C120.533 0.939856 120.786 0.918613 121.144 0.918613C121.313 0.918613 121.397 0.845125 121.397 0.697582C121.397 0.570997 121.239 0.507853 120.923 0.507853C120.544 0.507853 120.006 0.523346 119.311 0.555208C118.616 0.586782 118.257 0.602573 118.236 0.602573C118.215 0.602573 117.73 0.586782 116.782 0.555208C115.834 0.523346 115.201 0.507853 114.885 0.507853C114.569 0.507853 114.411 0.570997 114.411 0.697582C114.411 0.845125 114.495 0.918613 114.664 0.918613C115.107 0.918613 115.507 0.981758 115.865 1.10835C116.308 1.27741 116.697 1.54035 117.035 1.89859C117.372 2.2571 117.73 2.75197 118.11 3.38433L122.662 11.0657L117.509 19.2527C117.024 20.0114 116.613 20.5597 116.276 20.8964C115.939 21.2337 115.56 21.455 115.139 21.5603C114.738 21.6447 114.369 21.6866 114.032 21.6866C113.884 21.6866 113.811 21.7816 113.811 21.9711C113.811 22.0552 113.905 22.0977 114.095 22.0977C114.475 22.0977 114.996 22.0764 115.66 22.0345C116.324 21.992 116.666 21.9711 116.687 21.9711C116.729 21.9711 117.13 21.992 117.888 22.0345C118.647 22.0764 119.163 22.0977 119.438 22.0977C119.669 22.0977 119.785 22.0552 119.785 21.9711C119.785 21.7816 119.711 21.6866 119.564 21.6866C119.438 21.6866 119.248 21.6659 118.995 21.6235C118.699 21.5815 118.552 21.4024 118.552 21.0861C118.552 20.7069 118.679 20.2959 118.931 19.8533L123.389 12.2669L128.288 20.7701C128.498 21.1705 128.457 21.4446 128.162 21.5919C128.035 21.6347 127.972 21.7078 127.972 21.8132C127.972 21.8763 128.267 21.9294 128.857 21.9711C129.11 21.9711 129.769 21.992 130.833 22.0345C131.897 22.0764 132.766 22.0977 133.441 22.0977C133.693 22.0977 133.82 22.0236 133.82 21.8763C133.82 21.75 133.746 21.6866 133.599 21.6866C133.388 21.6866 133.05 21.6347 132.587 21.5287C132.019 21.3602 131.46 20.928 130.912 20.2324C130.743 20.0011 130.211 19.1474 129.316 17.672C128.42 16.1972 127.471 14.6167 126.471 12.9306C125.47 11.2451 124.948 10.3598 124.906 10.2754L129.489 3.35247C129.848 2.82603 130.106 2.44684 130.264 2.21491C130.422 1.98297 130.632 1.75161 130.896 1.5194C131.159 1.28775 131.428 1.12988 131.702 1.04491C131.955 0.961098 132.26 0.918613 132.619 0.918613C132.829 0.918613 132.935 0.845125 132.935 0.697582C132.935 0.570997 132.787 0.507853 132.492 0.507853C132.113 0.507853 131.623 0.523346 131.022 0.555208Z" fill="url(#paint12_linear_126_9177)"/>
<path d="M49.9759 69.0073C49.1693 69.5208 48.506 70.245 47.9864 71.1805C47.4666 72.1157 47.2068 73.2065 47.2068 74.4537C47.2068 75.4319 47.3965 76.3456 47.7754 77.195C48.1543 78.0449 48.6191 78.7083 49.1693 79.1848C50.5506 80.3708 52.3658 80.9639 54.6157 80.9639C56.0211 80.9639 57.1951 80.7133 58.1366 80.2118C58.2342 80.1507 58.2953 80.0775 58.32 79.9919C58.3441 79.9064 58.3568 79.6802 58.3568 79.3134V77.4611C58.3568 76.6665 58.3625 76.0918 58.3749 75.7373C58.3993 75.4319 58.4544 75.2086 58.5402 75.068C58.6254 74.9276 58.7781 74.8389 58.9983 74.8022C59.1938 74.7654 59.3284 74.747 59.4019 74.747C59.4995 74.747 59.5486 74.7103 59.5486 74.6371C59.5486 74.5519 59.457 74.5085 59.2736 74.5085C59.1266 74.5085 58.9251 74.5117 58.6685 74.518C58.4116 74.524 58.1822 74.5335 57.9807 74.5452C57.7789 74.5576 57.6719 74.5636 57.6598 74.5636C57.6475 74.5636 57.5344 74.5576 57.3205 74.5452C57.1064 74.5335 56.8529 74.524 56.5596 74.518C56.2662 74.5117 56.0093 74.5085 55.7892 74.5085C55.6057 74.5085 55.5142 74.5519 55.5142 74.6371C55.5142 74.7103 55.5569 74.747 55.6425 74.747C55.8994 74.747 56.0885 74.7654 56.2111 74.8022C56.5409 74.888 56.7487 75.0252 56.8346 75.2146C56.9201 75.4044 56.9629 75.8355 56.9629 76.5075V79.3134C56.9629 79.57 56.8529 79.7655 56.6328 79.9001C56.2045 80.1323 55.575 80.2483 54.744 80.2483C53.0447 80.2483 51.5957 79.6555 50.3979 78.4697C49.9822 78.0661 49.5847 77.4582 49.2061 76.645C48.8266 75.8321 48.6374 74.9121 48.6374 73.8853C48.6374 72.9438 48.787 72.1062 49.0866 71.3728C49.386 70.6394 49.7865 70.0708 50.2879 69.6672C51.1924 68.9461 52.3722 68.5853 53.8272 68.5853C54.8172 68.5853 55.6545 68.7202 56.3394 68.9889C57.0237 69.2582 57.4824 69.5696 57.7149 69.9241C57.9101 70.2422 58.0264 70.609 58.0631 71.0244C58.0878 71.1834 58.1303 71.2629 58.1914 71.2629C58.2893 71.2629 58.3384 71.1469 58.3384 70.9144C58.3384 70.4256 58.3473 70.0068 58.3657 69.6583C58.384 69.3098 58.4024 69.0501 58.4208 68.879C58.4392 68.7079 58.4483 68.6037 58.4483 68.567C58.4483 68.4817 58.3809 68.4326 58.2465 68.4206C57.7698 68.3959 57.3231 68.3411 56.9078 68.2555C56.0762 68.06 55.2329 67.9619 54.3772 67.9619C52.5676 67.9619 51.1006 68.3106 49.9759 69.0073Z" fill="url(#paint13_linear_126_9177)"/>
<path d="M66.0737 68.4383C65.3337 68.7199 64.7166 69.0833 64.2214 69.5297C63.7263 69.976 63.3046 70.4861 62.9561 71.0608C62.6076 71.6354 62.3568 72.2133 62.204 72.7937C62.0516 73.3744 61.975 73.9398 61.975 74.4898C61.975 75.1015 62.0516 75.7095 62.204 76.3146C62.3568 76.9199 62.6013 77.5067 62.9377 78.0753C63.2739 78.6436 63.6866 79.142 64.1755 79.5697C64.6643 79.9976 65.2728 80.3432 66.0002 80.6059C66.7276 80.8685 67.5253 81 68.3933 81C70.3492 81 71.9386 80.3464 73.1611 79.0378C74.3837 77.7297 74.9951 76.1283 74.9951 74.2332C74.9951 72.3384 74.3868 70.8288 73.1706 69.7036C71.9538 68.579 70.3983 68.0167 68.5033 68.0167C67.6232 68.0167 66.8128 68.1576 66.0737 68.4383ZM65.0467 78.6253C64.038 77.4579 63.5336 75.9265 63.5336 74.0317C63.5336 72.271 63.9797 70.9233 64.8724 69.9881C65.7645 69.0526 66.9323 68.585 68.3749 68.585C69.7685 68.585 70.9575 69.1292 71.9418 70.2171C72.9258 71.3056 73.418 72.7968 73.418 74.6916C73.418 75.6084 73.3049 76.4219 73.0788 77.1306C72.8523 77.8399 72.5744 78.3933 72.2443 78.7903C71.9142 79.1876 71.529 79.512 71.089 79.7623C70.6489 80.0128 70.2485 80.1782 69.8877 80.2574C69.5271 80.3369 69.1755 80.3765 68.8333 80.3765C67.3175 80.3765 66.0553 79.793 65.0467 78.6253Z" fill="url(#paint14_linear_126_9177)"/>
<path d="M80.9536 68.6014L77.1944 78.8894C76.9745 79.5005 76.7389 79.9193 76.4886 80.1452C76.2377 80.3717 75.8493 80.4845 75.324 80.4845C75.2262 80.4845 75.1771 80.5152 75.1771 80.5763C75.1771 80.6983 75.2813 80.7598 75.4891 80.7598C75.7942 80.7598 76.1794 80.7503 76.6442 80.7319C77.1089 80.7138 77.3471 80.7047 77.3595 80.7047C77.4083 80.7047 77.5977 80.7138 77.9281 80.7319C78.2582 80.7503 78.4965 80.7598 78.6431 80.7598C78.8142 80.7598 78.8997 80.6983 78.8997 80.5763C78.8997 80.5152 78.8449 80.4845 78.7347 80.4845H78.5697C78.4109 80.4845 78.2671 80.442 78.1388 80.3562C78.0105 80.2709 77.9465 80.1547 77.9465 80.0077C77.9465 79.6779 78.0197 79.305 78.1664 78.8894L79.1567 75.9552C79.2052 75.87 79.2603 75.8266 79.3217 75.8266H82.8977C82.9586 75.8266 83.0074 75.8633 83.0444 75.9368L84.5847 80.0077C84.6579 80.1911 84.6398 80.326 84.5296 80.4113C84.4196 80.4968 84.3645 80.5459 84.3645 80.558C84.3645 80.6926 85.3976 80.7598 87.4637 80.7598C87.6839 80.7598 87.7939 80.6983 87.7939 80.5763C87.7939 80.5152 87.7387 80.4845 87.6291 80.4845C87.1029 80.4845 86.6936 80.3349 86.4002 80.0353C86.1069 79.7359 85.8193 79.2376 85.5382 78.5409L81.6872 68.5647C81.5282 68.1614 81.4057 67.9596 81.3204 67.9596C81.2349 67.9596 81.1126 68.1737 80.9536 68.6014ZM79.4684 75.1116L80.9171 70.6371C81.0024 70.417 81.0879 70.417 81.1737 70.6371L82.7327 75.1116C82.7568 75.1971 82.7384 75.2399 82.6776 75.2399H79.5048C79.4437 75.2399 79.4316 75.1971 79.4684 75.1116Z" fill="url(#paint15_linear_126_9177)"/>
<path d="M3.02258 62.3477H133.814" stroke="url(#paint16_linear_126_9177)" stroke-width="0.57409" stroke-miterlimit="10"/>
<defs>
<linearGradient id="paint0_linear_126_9177" x1="-16.3133" y1="-2.95941" x2="61.1344" y2="99.0387" gradientUnits="userSpaceOnUse">
<stop stop-color="#E7C980"/>
<stop offset="1" stop-color="#9E8253"/>
</linearGradient>
<linearGradient id="paint1_linear_126_9177" x1="-3.90151" y1="-12.3906" x2="73.5462" y2="89.6076" gradientUnits="userSpaceOnUse">
<stop stop-color="#E7C980"/>
<stop offset="1" stop-color="#9E8253"/>
</linearGradient>
<linearGradient id="paint2_linear_126_9177" x1="11.9238" y1="-24.4054" x2="89.3716" y2="77.5927" gradientUnits="userSpaceOnUse">
<stop stop-color="#E7C980"/>
<stop offset="1" stop-color="#9E8253"/>
</linearGradient>
<linearGradient id="paint3_linear_126_9177" x1="20.2246" y1="-30.7042" x2="97.6723" y2="71.2939" gradientUnits="userSpaceOnUse">
<stop stop-color="#E7C980"/>
<stop offset="1" stop-color="#9E8253"/>
</linearGradient>
<linearGradient id="paint4_linear_126_9177" x1="33.0726" y1="-40.4573" x2="110.52" y2="61.5408" gradientUnits="userSpaceOnUse">
<stop stop-color="#E7C980"/>
<stop offset="1" stop-color="#9E8253"/>
</linearGradient>
<linearGradient id="paint5_linear_126_9177" x1="51.0087" y1="-54.0795" x2="128.456" y2="47.9186" gradientUnits="userSpaceOnUse">
<stop stop-color="#E7C980"/>
<stop offset="1" stop-color="#9E8253"/>
</linearGradient>
<linearGradient id="paint6_linear_126_9177" x1="-8.21585" y1="-9.10543" x2="69.2318" y2="92.8927" gradientUnits="userSpaceOnUse">
<stop stop-color="#E7C980"/>
<stop offset="1" stop-color="#9E8253"/>
</linearGradient>
<linearGradient id="paint7_linear_126_9177" x1="4.85741" y1="-19.0307" x2="82.3051" y2="82.9674" gradientUnits="userSpaceOnUse">
<stop stop-color="#E7C980"/>
<stop offset="1" stop-color="#9E8253"/>
</linearGradient>
<linearGradient id="paint8_linear_126_9177" x1="20.081" y1="-30.596" x2="97.5287" y2="71.4021" gradientUnits="userSpaceOnUse">
<stop stop-color="#E7C980"/>
<stop offset="1" stop-color="#9E8253"/>
</linearGradient>
<linearGradient id="paint9_linear_126_9177" x1="32.3383" y1="-39.8946" x2="109.786" y2="62.1035" gradientUnits="userSpaceOnUse">
<stop stop-color="#E7C980"/>
<stop offset="1" stop-color="#9E8253"/>
</linearGradient>
<linearGradient id="paint10_linear_126_9177" x1="44.7261" y1="-49.3025" x2="122.174" y2="52.6956" gradientUnits="userSpaceOnUse">
<stop stop-color="#E7C980"/>
<stop offset="1" stop-color="#9E8253"/>
</linearGradient>
<linearGradient id="paint11_linear_126_9177" x1="55.6513" y1="-57.6063" x2="133.099" y2="44.3917" gradientUnits="userSpaceOnUse">
<stop stop-color="#E7C980"/>
<stop offset="1" stop-color="#9E8253"/>
</linearGradient>
<linearGradient id="paint12_linear_126_9177" x1="65.4102" y1="-65.0094" x2="142.858" y2="36.9887" gradientUnits="userSpaceOnUse">
<stop stop-color="#E7C980"/>
<stop offset="1" stop-color="#9E8253"/>
</linearGradient>
<linearGradient id="paint13_linear_126_9177" x1="-7.35296" y1="-6.61838" x2="70.0948" y2="95.3798" gradientUnits="userSpaceOnUse">
<stop stop-color="#E7C980"/>
<stop offset="1" stop-color="#9E8253"/>
</linearGradient>
<linearGradient id="paint14_linear_126_9177" x1="1.72294" y1="-13.5055" x2="79.1707" y2="88.4927" gradientUnits="userSpaceOnUse">
<stop stop-color="#E7C980"/>
<stop offset="1" stop-color="#9E8253"/>
</linearGradient>
<linearGradient id="paint15_linear_126_9177" x1="7.9891" y1="-18.2663" x2="85.4368" y2="83.7319" gradientUnits="userSpaceOnUse">
<stop stop-color="#E7C980"/>
<stop offset="1" stop-color="#9E8253"/>
</linearGradient>
<linearGradient id="paint16_linear_126_9177" x1="nan" y1="nan" x2="nan" y2="nan" gradientUnits="userSpaceOnUse">
<stop stop-color="#E7C980"/>
<stop offset="1" stop-color="#9E8253"/>
</linearGradient>
</defs>
</svg>
