<svg width="187" height="321" viewBox="0 0 187 321" fill="none" xmlns="http://www.w3.org/2000/svg">
<g clip-path="url(#clip0_126_9698)">
<path d="M5.40363 248.07C3.53998 249.933 2.21105 252.037 1.41761 254.383C0.623374 256.729 0.227051 258.884 0.227051 260.851C0.227051 266.75 2.0907 271.355 5.8176 274.666C9.51 278.048 14.6521 279.737 21.2446 279.737C25.1095 279.737 27.9046 279.375 29.6307 278.651C30.0791 278.478 30.3635 278.323 30.4851 278.185C30.6054 278.048 30.735 277.754 30.8734 277.305C31.0804 276.615 31.3046 275.512 31.5465 273.994C31.7875 272.476 31.9083 271.58 31.9083 271.303C31.9083 270.855 31.7875 270.63 31.5465 270.63C31.3391 270.63 31.1839 270.855 31.0804 271.303C30.8734 272.925 30.3042 274.235 29.3719 275.235C27.8533 276.788 25.144 277.564 21.2446 277.564C16.3785 277.564 12.3484 275.865 9.15661 272.467C5.96442 269.07 4.36832 265.077 4.36832 260.488C4.36832 255.003 5.76586 250.934 8.56133 248.277C10.9079 246 14.4968 244.861 19.3293 244.861C21.2615 244.861 23.0822 245.12 24.7906 245.638C26.4991 246.155 27.7843 246.794 28.6471 247.553C29.9584 248.657 30.6146 250.243 30.6146 252.313C30.6146 252.969 30.7518 253.296 31.0286 253.296C31.2693 253.296 31.4249 253.038 31.4943 252.52C31.5633 252.002 31.5802 250.967 31.5465 249.415V247.5C31.5465 246.811 31.5978 246.19 31.7013 245.638L31.8052 244.861C31.8052 244.517 31.5978 244.344 31.1839 244.344C30.321 244.344 28.7161 244.137 26.3691 243.723C24.0221 243.309 21.779 243.102 19.6397 243.102C13.4615 243.102 8.71656 244.758 5.40363 248.07Z" fill="url(#paint0_linear_126_9698)"/>
<path d="M49.5098 244.655L38.8976 273.684C38.2766 275.409 37.6115 276.59 36.9043 277.228C36.1968 277.867 35.1005 278.186 33.6171 278.186C33.3411 278.186 33.2031 278.272 33.2031 278.444C33.2031 278.789 33.4964 278.962 34.0832 278.962C34.9452 278.962 36.0323 278.936 37.3444 278.884C38.6553 278.832 39.3284 278.807 39.3633 278.807C39.5009 278.807 40.0364 278.832 40.9682 278.884C41.9 278.936 42.5727 278.962 42.9871 278.962C43.47 278.962 43.7119 278.789 43.7119 278.444C43.7119 278.272 43.5567 278.186 43.2458 278.186H42.7801C42.3308 278.186 41.9261 278.065 41.5635 277.823C41.2008 277.582 41.0199 277.254 41.0199 276.84C41.0199 275.978 41.2269 274.926 41.6413 273.684L44.4364 265.404C44.574 265.164 44.7296 265.043 44.9025 265.043H54.9973C55.1694 265.043 55.3078 265.146 55.4113 265.353L59.7599 276.84C60.0355 277.599 60.648 278.669 61.5975 280.048C62.5466 281.428 63.5558 282.687 64.626 283.826C68.2839 287.551 72.5981 289.414 77.5677 289.414C82.7098 289.414 87.6449 288.344 92.3734 286.206C92.649 286.033 92.7873 285.861 92.7873 285.688C92.7873 285.482 92.6839 285.378 92.4769 285.378C91.7175 285.688 91.0276 285.938 90.4062 286.128C89.7849 286.318 89.0857 286.508 88.3095 286.698C87.5333 286.886 86.6272 287.06 85.5915 287.215C84.5562 287.37 83.573 287.448 82.6412 287.448C82.5714 287.448 82.1574 287.465 81.3985 287.5C80.6387 287.534 80.0009 287.542 79.4831 287.525C78.9656 287.508 78.1798 287.413 77.1276 287.241C76.0747 287.068 75.1348 286.801 74.3061 286.439C73.4782 286.077 72.5026 285.533 71.3819 284.809C70.2595 284.085 69.2242 283.205 68.2755 282.17C67.326 281.135 66.3344 279.806 65.2987 278.186C64.2634 276.564 63.3139 274.736 62.4515 272.701L51.5805 244.552C51.1316 243.413 50.7859 242.844 50.5452 242.844C50.3033 242.844 49.9579 243.448 49.5098 244.655ZM45.3164 263.024L49.4064 250.399C49.6474 249.778 49.8893 249.778 50.1308 250.399L54.5312 263.024C54.6002 263.266 54.548 263.387 54.376 263.387H45.4203C45.247 263.387 45.213 263.266 45.3164 263.024Z" fill="url(#paint1_linear_126_9698)"/>
<path d="M76.8178 245.302C75.0745 246.838 74.2033 248.865 74.2033 251.382C74.2033 253.142 74.6345 254.797 75.4977 256.35C76.3597 257.902 77.9647 259.645 80.3121 261.576L82.3827 263.283C84.4533 264.974 85.8681 266.397 86.6279 267.552C87.3864 268.708 87.7663 270.08 87.7663 271.666C87.7663 273.322 87.1794 274.78 86.0065 276.039C84.8328 277.298 83.193 277.927 81.0887 277.927C79.1552 277.927 77.4909 277.428 76.093 276.427C74.6954 275.426 73.9963 273.754 73.9963 271.407C73.9963 271.063 73.8928 270.89 73.6858 270.89C73.4439 270.89 73.3236 271.149 73.3236 271.666C73.3236 271.77 73.2795 272.391 73.194 273.529C73.1074 274.667 73.0645 275.685 73.0645 276.582C73.0645 277.237 73.0985 277.66 73.1679 277.85C73.2365 278.039 73.4439 278.221 73.7893 278.393C75.48 279.221 77.5683 279.635 80.0533 279.635C82.1236 279.635 83.9178 279.298 85.4369 278.626C86.9552 277.953 88.1028 277.082 88.8794 276.013C89.656 274.944 90.2168 273.9 90.5621 272.882C90.9063 271.865 91.0796 270.873 91.0796 269.907C91.0796 267.941 90.6046 266.138 89.656 264.499C88.7065 262.861 86.903 261.007 84.2464 258.937L82.9523 257.902C80.6743 256.039 79.1552 254.59 78.3967 253.555C77.6369 252.52 77.2575 251.348 77.2575 250.037C77.2575 248.381 77.8014 247.07 78.8885 246.104C79.9755 245.139 81.3474 244.655 83.0036 244.655C85.9367 244.655 87.887 245.467 88.8533 247.088C89.0607 247.467 89.2071 247.915 89.2934 248.433C89.3792 248.95 89.449 249.347 89.5008 249.623C89.5525 249.899 89.664 250.037 89.8373 250.037C90.0439 250.037 90.1478 249.693 90.1478 249.002C90.1478 248.071 90.165 247.209 90.1995 246.415C90.2336 245.622 90.2681 245.017 90.303 244.604L90.3547 244.035C90.3547 243.759 90.1995 243.621 89.8886 243.621C89.5782 243.621 88.8449 243.517 87.6888 243.31C86.532 243.103 85.2636 242.999 83.8841 242.999C80.9154 242.999 78.5599 243.768 76.8178 245.302Z" fill="url(#paint2_linear_126_9698)"/>
<path d="M100.446 243.825H95.7351C95.2513 243.825 95.0103 243.928 95.0103 244.135C95.0103 244.342 95.1306 244.446 95.3725 244.446C95.9938 244.446 96.4768 244.498 96.8222 244.601C97.7877 244.843 98.3236 245.722 98.4271 247.24C98.4957 248.241 98.5306 251.604 98.5306 257.33V265.557C98.5306 271.008 98.4439 274.389 98.2714 275.699C98.0296 277.286 97.5811 278.131 96.9257 278.235C96.3733 278.373 95.9072 278.442 95.5277 278.442C95.2858 278.442 95.1659 278.528 95.1659 278.7C95.1659 278.976 95.4066 279.114 95.8903 279.114C96.3043 279.114 96.8743 279.105 97.5987 279.089C98.3236 279.071 98.9786 279.045 99.5659 279.011C100.152 278.976 100.463 278.959 100.498 278.959L101.43 279.011C102.051 279.045 102.818 279.071 103.733 279.089C104.647 279.105 105.485 279.114 106.244 279.114C106.727 279.114 106.968 278.976 106.968 278.7C106.968 278.528 106.847 278.442 106.606 278.442C106.089 278.442 105.381 278.373 104.484 278.235C103.448 278.131 102.844 277.286 102.672 275.699C102.499 274.389 102.413 271.008 102.413 265.557V257.33C102.413 251.604 102.447 248.241 102.517 247.24C102.586 246.378 102.741 245.748 102.983 245.351C103.224 244.955 103.655 244.687 104.277 244.549C104.621 244.481 105.001 244.446 105.416 244.446C105.657 244.446 105.778 244.342 105.778 244.135C105.778 243.928 105.536 243.825 105.053 243.825H100.446Z" fill="url(#paint3_linear_126_9698)"/>
<path d="M113.649 245.378L113.597 272.13C113.597 274.338 113.51 275.848 113.338 276.658C113.165 277.469 112.785 277.943 112.199 278.081C111.75 278.253 111.112 278.34 110.284 278.34C110.042 278.34 109.921 278.443 109.921 278.65C109.921 278.857 110.162 278.961 110.646 278.961H115.15H120.119C120.671 278.961 120.948 278.857 120.948 278.65C120.948 278.443 120.827 278.34 120.585 278.34C119.619 278.34 118.842 278.253 118.256 278.081C117.6 277.909 117.134 277.434 116.858 276.658C116.581 275.882 116.426 274.545 116.392 272.648L115.823 250.294L127.988 263.696C129.438 265.317 131.146 267.154 133.113 269.207C135.08 271.26 136.693 272.906 137.953 274.148C139.213 275.39 139.964 276.132 140.206 276.373C142.206 278.34 143.345 279.322 143.622 279.322C143.725 279.322 143.794 279.297 143.829 279.245C143.863 279.193 143.898 279.055 143.932 278.831C143.967 278.607 143.993 278.279 144.01 277.848C144.027 277.417 144.036 276.805 144.036 276.011L144.14 248.638C144.14 247.155 144.243 246.128 144.45 245.559C144.658 244.99 145.14 244.637 145.9 244.499C146.244 244.395 146.607 244.343 146.987 244.343C147.332 244.343 147.504 244.24 147.504 244.033C147.504 243.895 147.228 243.826 146.676 243.826H142.69H137.824C137.203 243.826 136.892 243.895 136.892 244.033C136.892 244.24 137.013 244.343 137.254 244.343C138.013 244.343 138.79 244.413 139.584 244.55C140.309 244.757 140.783 245.163 141.008 245.766C141.232 246.37 141.361 247.448 141.396 249L141.914 272.751L130.68 260.539C121.362 250.536 116.409 245.206 115.823 244.55C114.925 243.55 114.373 243.049 114.166 243.049C113.821 243.049 113.649 243.826 113.649 245.378Z" fill="url(#paint4_linear_126_9698)"/>
<path d="M161.195 244.19C159.106 244.984 157.364 246.01 155.966 247.268C154.569 248.528 153.378 249.968 152.394 251.589C151.411 253.211 150.703 254.841 150.272 256.479C149.841 258.118 149.625 259.713 149.625 261.266C149.625 262.991 149.841 264.707 150.272 266.414C150.703 268.122 151.393 269.777 152.342 271.381C153.291 272.986 154.456 274.392 155.837 275.599C157.217 276.806 158.934 277.781 160.988 278.522C163.041 279.264 165.292 279.635 167.743 279.635C173.265 279.635 177.752 277.79 181.203 274.098C184.653 270.407 186.379 265.889 186.379 260.541C186.379 255.194 184.663 250.935 181.229 247.76C177.794 244.587 173.403 242.999 168.054 242.999C165.569 242.999 163.282 243.396 161.195 244.19ZM158.296 272.934C155.449 269.64 154.025 265.319 154.025 259.972C154.025 255.004 155.284 251.201 157.804 248.562C160.323 245.923 163.619 244.604 167.692 244.604C171.626 244.604 174.982 246.139 177.76 249.209C180.538 252.28 181.927 256.488 181.927 261.835C181.927 264.422 181.608 266.717 180.97 268.717C180.331 270.718 179.546 272.279 178.614 273.4C177.683 274.521 176.596 275.436 175.353 276.142C174.111 276.849 172.98 277.315 171.962 277.539C170.944 277.764 169.952 277.876 168.986 277.876C164.706 277.876 161.143 276.228 158.296 272.934Z" fill="url(#paint5_linear_126_9698)"/>
<path d="M7.93649 208.549C6.71384 208.608 5.99943 208.637 5.79365 208.637C5.73468 208.637 5.44707 208.622 4.93242 208.593C4.41657 208.564 3.81287 208.534 3.12132 208.504C2.42897 208.475 1.81805 208.46 1.28816 208.46C0.846113 208.46 0.625488 208.564 0.625488 208.769C0.625488 208.946 0.742623 209.034 0.978889 209.034C1.656 209.034 2.09763 209.064 2.30422 209.122C2.95124 209.27 3.38647 209.513 3.60709 209.851C3.82811 210.19 3.9673 210.712 4.02667 211.419C4.08523 212.273 4.11532 215.143 4.11532 220.029V227.049C4.11532 231.7 4.04112 234.585 3.8943 235.703C3.74669 237.057 3.364 237.779 2.74546 237.867C2.27413 237.985 1.87662 238.043 1.55331 238.043C1.34673 238.043 1.24364 238.132 1.24364 238.308C1.24364 238.515 1.44941 238.617 1.86217 238.617C2.21557 238.617 2.70174 238.603 3.31988 238.573C3.93842 238.544 4.48316 238.522 4.95449 238.507C5.42502 238.492 5.67571 238.485 5.7054 238.485C5.73468 238.485 6.00705 238.492 6.52251 238.507C7.03756 238.522 7.68537 238.544 8.46637 238.573C9.24617 238.603 9.96059 238.617 10.6084 238.617C11.0505 238.617 11.2715 238.515 11.2715 238.308C11.2715 238.132 11.1535 238.043 10.9181 238.043C10.4463 238.043 9.8575 237.985 9.15071 237.867C8.23774 237.779 7.70784 237.057 7.56062 235.703C7.44269 234.585 7.38413 231.7 7.38413 227.049V210.668C7.38413 210.226 7.48682 209.961 7.693 209.873C8.07568 209.726 8.64969 209.652 9.41625 209.652C11.7717 209.652 13.5972 210.315 14.8937 211.639C16.3658 213.14 17.1023 215.187 17.1023 217.777C17.1023 219.602 16.4396 221.147 15.1143 222.413C13.789 223.679 12.1548 224.312 10.2113 224.312C9.73956 224.312 9.44513 224.327 9.3276 224.355C9.20967 224.385 9.15071 224.488 9.15071 224.665C9.15071 224.841 9.29792 224.93 9.59275 224.93C9.70988 224.959 9.99027 224.974 10.4319 224.974C13.288 224.974 15.637 224.091 17.4778 222.324C19.3177 220.558 20.2387 218.278 20.2387 215.481C20.2387 213.626 19.5757 212.037 18.2511 210.712C16.5126 209.211 14.0389 208.46 10.8294 208.46C10.1226 208.46 9.15793 208.49 7.93649 208.549Z" fill="url(#paint6_linear_126_9698)"/>
<path d="M50.6312 208.504C50.0122 208.534 49.4603 208.564 48.9741 208.593C48.4884 208.622 48.2304 208.637 48.2015 208.637C48.1719 208.637 47.9063 208.622 47.4061 208.593C46.9051 208.564 46.2942 208.534 45.5729 208.504C44.8509 208.475 44.2256 208.46 43.6957 208.46C43.254 208.46 43.033 208.564 43.033 208.769C43.033 208.946 43.1505 209.034 43.3864 209.034C43.9748 209.034 44.4169 209.078 44.7113 209.167C45.3587 209.284 45.7936 209.513 46.0146 209.851C46.2356 210.19 46.3748 210.712 46.4342 211.419C46.4931 212.273 46.5228 215.143 46.5228 220.029V220.867C46.5228 221.044 46.4486 221.133 46.3018 221.133H29.3829C29.2064 221.133 29.1182 221.044 29.1182 220.867V220.029C29.1182 215.143 29.1471 212.273 29.2064 211.419C29.2654 210.683 29.3978 210.145 29.604 209.806C29.8097 209.469 30.1631 209.255 30.6641 209.167C31.1351 209.078 31.474 209.034 31.6802 209.034C31.886 209.034 31.9895 208.946 31.9895 208.769C31.9895 208.564 31.7829 208.46 31.3709 208.46C31.0175 208.46 30.5318 208.475 29.9132 208.504C29.2951 208.534 28.7351 208.564 28.2345 208.593C27.7335 208.622 27.4683 208.637 27.4399 208.637C27.4098 208.637 27.1446 208.622 26.6444 208.593C26.1434 208.564 25.5325 208.534 24.8117 208.504C24.0892 208.475 23.4639 208.46 22.934 208.46C22.5212 208.46 22.3154 208.564 22.3154 208.769C22.3154 208.946 22.4181 209.034 22.6247 209.034C23.1835 209.034 23.6408 209.078 23.9942 209.167C24.6416 209.284 25.0764 209.513 25.297 209.851C25.5181 210.19 25.6572 210.712 25.717 211.419C25.7459 212.273 25.7611 215.143 25.7611 220.029V227.049C25.7611 231.7 25.7018 234.585 25.5842 235.703C25.3781 237.057 24.995 237.794 24.4358 237.911C24.0824 237.999 23.6849 238.043 23.2432 238.043C23.007 238.043 22.8899 238.132 22.8899 238.308C22.8899 238.515 23.1109 238.617 23.5521 238.617C23.9055 238.617 24.3917 238.603 25.0098 238.573C25.6284 238.544 26.1807 238.522 26.6669 238.507C27.1523 238.492 27.4098 238.485 27.4399 238.485C27.4683 238.485 27.7487 238.492 28.279 238.507C28.8089 238.522 29.4563 238.544 30.2225 238.573C30.9883 238.603 31.6947 238.617 32.3429 238.617C32.7845 238.617 33.0055 238.515 33.0055 238.308C33.0055 238.132 32.902 238.043 32.6963 238.043C32.048 238.043 31.4443 237.999 30.8852 237.911C29.9421 237.764 29.4275 237.028 29.3388 235.703C29.1912 234.585 29.1182 231.7 29.1182 227.049V222.855C29.1182 222.707 29.2064 222.634 29.3829 222.634H46.3018C46.4486 222.634 46.5228 222.707 46.5228 222.855V227.049C46.5228 231.7 46.4635 234.585 46.3459 235.703C46.1397 237.057 45.7422 237.794 45.1534 237.911C44.8 237.999 44.4024 238.043 43.9604 238.043C43.7542 238.043 43.6515 238.132 43.6515 238.308C43.6515 238.515 43.8569 238.617 44.2697 238.617C44.6235 238.617 45.1157 238.603 45.7498 238.573C46.3824 238.544 46.9424 238.522 47.4282 238.507C47.9139 238.492 48.1719 238.485 48.2015 238.485L48.9962 238.529C49.5265 238.529 50.1815 238.544 50.9621 238.573C51.7419 238.603 52.4563 238.617 53.1042 238.617C53.5462 238.617 53.7672 238.515 53.7672 238.308C53.7672 238.132 53.6493 238.043 53.4138 238.043C52.7656 238.043 52.1767 237.999 51.6465 237.911C51.0869 237.823 50.7038 237.602 50.498 237.249C50.2922 236.895 50.1446 236.381 50.0568 235.703C49.9384 234.585 49.8799 231.7 49.8799 227.049V220.029C49.8799 215.143 49.9088 212.273 49.9681 211.419C49.997 210.065 50.4832 209.314 51.4258 209.167C51.8968 209.078 52.2353 209.034 52.4419 209.034C52.6477 209.034 52.7512 208.946 52.7512 208.769C52.7512 208.564 52.5301 208.46 52.0885 208.46C51.7351 208.46 51.2489 208.475 50.6312 208.504Z" fill="url(#paint7_linear_126_9698)"/>
<path d="M65.4097 208.945C63.6279 209.622 62.1405 210.498 60.9483 211.572C59.7554 212.647 58.7393 213.876 57.9002 215.259C57.061 216.643 56.4569 218.033 56.0891 219.432C55.7212 220.83 55.5371 222.191 55.5371 223.516C55.5371 224.988 55.7212 226.452 56.0891 227.909C56.4569 229.366 57.0458 230.779 57.856 232.148C58.6659 233.517 59.6599 234.717 60.8376 235.747C62.0154 236.777 63.4807 237.609 65.2332 238.241C66.985 238.874 68.9064 239.19 70.9979 239.19C75.7091 239.19 79.5375 237.616 82.483 234.466C85.4273 231.317 86.9003 227.461 86.9003 222.897C86.9003 218.335 85.4349 214.7 82.5051 211.992C79.574 209.283 75.8271 207.929 71.263 207.929C69.1426 207.929 67.1911 208.268 65.4097 208.945ZM62.9359 233.472C60.5063 230.662 59.2917 226.975 59.2917 222.412C59.2917 218.173 60.3663 214.928 62.5164 212.676C64.6656 210.424 67.4783 209.298 70.9533 209.298C74.3104 209.298 77.1744 210.609 79.5451 213.228C81.9158 215.848 83.1012 219.439 83.1012 224.001C83.1012 226.21 82.8288 228.167 82.2841 229.874C81.7389 231.582 81.0694 232.914 80.274 233.87C79.4793 234.827 78.5515 235.607 77.4909 236.21C76.4312 236.814 75.466 237.211 74.598 237.402C73.7292 237.594 72.882 237.689 72.0576 237.689C68.4062 237.689 65.3656 236.284 62.9359 233.472Z" fill="url(#paint8_linear_126_9698)"/>
<path d="M105.718 208.173C105.6 208.276 105.512 208.328 105.453 208.328C105.423 208.357 105.188 208.365 104.746 208.35C104.305 208.335 103.966 208.328 103.73 208.328C101.875 208.416 98.8267 208.46 94.5864 208.46C94.5563 208.46 94.2915 208.453 93.7909 208.438C93.2899 208.424 92.679 208.402 91.9582 208.372C91.2357 208.343 90.6103 208.328 90.0805 208.328C89.6677 208.328 89.4619 208.431 89.4619 208.637C89.4619 208.813 89.565 208.902 89.7716 208.902C90.3304 208.902 90.7872 208.946 91.1406 209.034C91.7592 209.152 92.1856 209.387 92.4219 209.741C92.6569 210.094 92.7897 210.61 92.8194 211.286C92.8779 212.14 92.9076 215.01 92.9076 219.896V226.917C92.9076 231.568 92.8483 234.453 92.7311 235.571C92.5246 236.925 92.1415 237.661 91.5823 237.779C91.0524 237.896 90.6396 237.955 90.3456 237.955C90.139 237.955 90.0363 238.029 90.0363 238.176C90.0363 238.382 90.2574 238.485 90.699 238.485C91.1695 238.485 91.9357 238.456 92.9959 238.397H94.5864C94.8218 238.397 95.3517 238.418 96.1764 238.463C97.0008 238.507 98.1424 238.544 99.6001 238.573C101.057 238.603 102.67 238.617 104.437 238.617C105.055 238.617 105.475 238.603 105.696 238.573C105.917 238.544 106.101 238.463 106.248 238.331C106.395 238.198 106.513 237.955 106.601 237.602C106.69 237.22 106.8 236.527 106.933 235.527C107.065 234.526 107.132 233.922 107.132 233.716C107.132 233.305 107.043 233.098 106.866 233.098C106.719 233.098 106.601 233.305 106.513 233.716C106.277 235.218 105.688 236.174 104.746 236.586C104.039 236.881 102.758 237.028 100.903 237.028C98.9595 237.028 97.7148 236.829 97.1704 236.432C96.6249 236.034 96.3237 235.145 96.2647 233.76V226.917V223.428C96.2647 223.252 96.3533 223.163 96.5298 223.163C99.3859 223.163 101.3 223.223 102.272 223.34C103.421 223.458 104.112 223.93 104.349 224.753C104.437 225.077 104.481 225.503 104.481 226.033C104.481 226.298 104.584 226.431 104.79 226.431C104.967 226.431 105.055 226.166 105.055 225.636C105.055 225.548 105.1 224.709 105.188 223.119C105.217 222.737 105.261 222.369 105.321 222.015C105.379 221.663 105.431 221.397 105.475 221.221C105.52 221.044 105.541 220.927 105.541 220.867C105.541 220.662 105.467 220.558 105.321 220.558C105.202 220.558 105.011 220.735 104.746 221.088C104.51 221.353 103.877 221.53 102.847 221.618C102.228 221.678 100.122 221.706 96.5298 221.706C96.3533 221.706 96.2647 221.574 96.2647 221.309V210.315C96.2647 210.05 96.3533 209.918 96.5298 209.918C99.2687 209.918 101.079 209.947 101.964 210.006C102.964 210.123 103.649 210.293 104.018 210.513C104.386 210.734 104.643 211.021 104.79 211.375C104.967 211.757 105.055 212.243 105.055 212.832C105.055 213.156 105.159 213.317 105.364 213.317C105.541 213.317 105.63 213.17 105.63 212.876C105.659 212.699 105.703 212.235 105.762 211.484C105.821 210.734 105.851 210.33 105.851 210.271C105.88 209.947 105.924 209.645 105.983 209.365C106.042 209.086 106.086 208.865 106.116 208.703C106.145 208.541 106.16 208.416 106.16 208.328C106.16 208.122 106.116 208.019 106.027 208.019C105.939 208.019 105.836 208.07 105.718 208.173Z" fill="url(#paint9_linear_126_9698)"/>
<path d="M112.829 209.96L112.785 232.788C112.785 234.672 112.711 235.96 112.564 236.652C112.416 237.344 112.093 237.749 111.592 237.866C111.209 238.013 110.665 238.087 109.958 238.087C109.751 238.087 109.649 238.175 109.649 238.352C109.649 238.528 109.854 238.616 110.267 238.616H114.11H118.351C118.822 238.616 119.058 238.528 119.058 238.352C119.058 238.175 118.954 238.087 118.749 238.087C117.924 238.087 117.261 238.013 116.761 237.866C116.201 237.719 115.803 237.314 115.568 236.652C115.332 235.989 115.199 234.849 115.17 233.23L114.684 214.155L125.065 225.591C126.302 226.975 127.76 228.542 129.438 230.293C131.117 232.045 132.494 233.45 133.569 234.51C134.643 235.57 135.284 236.203 135.491 236.409C137.198 238.087 138.17 238.926 138.406 238.926C138.494 238.926 138.553 238.904 138.583 238.859C138.611 238.815 138.641 238.697 138.671 238.506C138.7 238.315 138.722 238.035 138.737 237.667C138.751 237.299 138.759 236.777 138.759 236.1L138.848 212.742C138.848 211.477 138.936 210.601 139.112 210.115C139.289 209.629 139.701 209.328 140.35 209.21C140.644 209.121 140.953 209.077 141.277 209.077C141.571 209.077 141.719 208.989 141.719 208.812C141.719 208.607 141.483 208.503 141.012 208.503C140.364 208.503 139.65 208.525 138.87 208.57C138.089 208.614 137.669 208.636 137.611 208.636C137.581 208.636 137.059 208.614 136.043 208.57C135.027 208.525 134.165 208.503 133.459 208.503C132.928 208.503 132.663 208.607 132.663 208.812C132.663 208.989 132.766 209.077 132.972 209.077C133.62 209.077 134.282 209.137 134.96 209.254C135.578 209.431 135.983 209.777 136.175 210.292C136.366 210.807 136.477 211.727 136.506 213.051L136.948 233.318L127.363 222.897C119.411 214.361 115.185 209.813 114.684 209.254C113.919 208.401 113.447 207.974 113.271 207.974C112.976 207.974 112.829 208.636 112.829 209.96Z" fill="url(#paint10_linear_126_9698)"/>
<path d="M149.803 208.638H145.783C145.37 208.638 145.165 208.726 145.165 208.903C145.165 209.079 145.268 209.168 145.474 209.168C146.004 209.168 146.416 209.212 146.711 209.3C147.535 209.507 147.992 210.257 148.08 211.552C148.139 212.406 148.168 215.276 148.168 220.162V227.182C148.168 231.834 148.095 234.719 147.948 235.837C147.741 237.191 147.358 237.912 146.799 238C146.328 238.118 145.93 238.177 145.607 238.177C145.4 238.177 145.297 238.251 145.297 238.398C145.297 238.633 145.503 238.751 145.915 238.751C146.269 238.751 146.755 238.743 147.373 238.729C147.992 238.714 148.551 238.692 149.052 238.663C149.553 238.633 149.817 238.618 149.847 238.618L150.642 238.663C151.172 238.692 151.827 238.714 152.608 238.729C153.388 238.743 154.103 238.751 154.75 238.751C155.163 238.751 155.369 238.633 155.369 238.398C155.369 238.251 155.265 238.177 155.06 238.177C154.618 238.177 154.014 238.118 153.249 238C152.365 237.912 151.849 237.191 151.702 235.837C151.555 234.719 151.482 231.834 151.482 227.182V220.162C151.482 215.276 151.51 212.406 151.57 211.552C151.629 210.817 151.761 210.279 151.967 209.941C152.173 209.602 152.542 209.374 153.072 209.256C153.366 209.197 153.69 209.168 154.044 209.168C154.249 209.168 154.353 209.079 154.353 208.903C154.353 208.726 154.146 208.638 153.734 208.638H149.803Z" fill="url(#paint11_linear_126_9698)"/>
<path d="M182.07 208.704C181.231 208.748 180.796 208.77 180.767 208.77C180.737 208.77 180.288 208.748 179.419 208.704C178.551 208.659 177.822 208.638 177.233 208.638C176.762 208.638 176.526 208.726 176.526 208.903C176.526 209.109 176.644 209.212 176.88 209.212C177.41 209.212 177.807 209.241 178.072 209.3C178.543 209.448 178.779 209.698 178.779 210.051C178.779 210.434 178.646 210.905 178.382 211.464C178.176 211.876 177.292 213.333 175.731 215.835C174.17 218.337 173.095 220.001 172.506 220.824C170.857 218.116 169.061 214.952 167.118 211.331C166.852 210.801 166.72 210.359 166.72 210.007C166.72 209.653 166.881 209.418 167.206 209.3C167.412 209.241 167.765 209.212 168.266 209.212C168.502 209.212 168.619 209.109 168.619 208.903C168.619 208.726 168.398 208.638 167.957 208.638C167.426 208.638 166.676 208.659 165.704 208.704C164.732 208.748 164.231 208.77 164.202 208.77C164.172 208.77 163.495 208.748 162.17 208.704C160.845 208.659 159.961 208.638 159.519 208.638C159.078 208.638 158.857 208.726 158.857 208.903C158.857 209.109 158.974 209.212 159.21 209.212C159.829 209.212 160.388 209.3 160.889 209.477C161.507 209.713 162.052 210.08 162.523 210.58C162.994 211.081 163.495 211.772 164.025 212.656L170.386 223.385L163.186 234.821C162.508 235.881 161.934 236.647 161.463 237.117C160.992 237.588 160.462 237.897 159.873 238.044C159.313 238.162 158.798 238.221 158.327 238.221C158.12 238.221 158.018 238.353 158.018 238.618C158.018 238.736 158.15 238.795 158.415 238.795C158.945 238.795 159.674 238.765 160.602 238.707C161.529 238.647 162.008 238.618 162.037 238.618C162.096 238.618 162.656 238.647 163.716 238.707C164.776 238.765 165.497 238.795 165.881 238.795C166.204 238.795 166.366 238.736 166.366 238.618C166.366 238.353 166.263 238.221 166.057 238.221C165.881 238.221 165.615 238.192 165.262 238.133C164.849 238.074 164.643 237.824 164.643 237.382C164.643 236.852 164.82 236.278 165.173 235.66L171.402 225.063L178.249 236.941C178.543 237.5 178.484 237.883 178.072 238.088C177.896 238.148 177.807 238.25 177.807 238.398C177.807 238.486 178.22 238.56 179.044 238.618C179.398 238.618 180.318 238.647 181.805 238.707C183.292 238.765 184.507 238.795 185.45 238.795C185.803 238.795 185.98 238.691 185.98 238.486C185.98 238.309 185.876 238.221 185.67 238.221C185.376 238.221 184.904 238.148 184.257 238C183.462 237.765 182.681 237.161 181.916 236.19C181.679 235.866 180.936 234.674 179.685 232.613C178.433 230.553 177.108 228.345 175.709 225.99C174.31 223.636 173.581 222.399 173.523 222.281L179.928 212.611C180.428 211.876 180.789 211.346 181.01 211.022C181.231 210.698 181.525 210.375 181.894 210.051C182.261 209.727 182.637 209.507 183.02 209.388C183.373 209.271 183.8 209.212 184.301 209.212C184.595 209.212 184.743 209.109 184.743 208.903C184.743 208.726 184.536 208.638 184.124 208.638C183.594 208.638 182.91 208.659 182.07 208.704Z" fill="url(#paint12_linear_126_9698)"/>
<path d="M68.816 304.32C67.6888 305.038 66.7618 306.049 66.0358 307.356C65.3093 308.662 64.9463 310.186 64.9463 311.928C64.9463 313.294 65.2114 314.571 65.7409 315.757C66.2704 316.944 66.9199 317.871 67.6888 318.536C69.6191 320.193 72.1558 321.021 75.2999 321.021C77.2638 321.021 78.9044 320.671 80.2201 319.971C80.3565 319.886 80.4419 319.783 80.4764 319.664C80.5101 319.544 80.5278 319.228 80.5278 318.716V316.129C80.5278 315.019 80.5358 314.216 80.5531 313.721C80.5871 313.294 80.6642 312.982 80.7841 312.786C80.9032 312.59 81.1166 312.466 81.4243 312.415C81.6975 312.363 81.8856 312.338 81.9883 312.338C82.1247 312.338 82.1933 312.286 82.1933 312.184C82.1933 312.065 82.0653 312.004 81.809 312.004C81.6036 312.004 81.322 312.009 80.9634 312.018C80.6044 312.026 80.2839 312.039 80.0023 312.056C79.7203 312.073 79.5707 312.081 79.5538 312.081C79.5366 312.081 79.3785 312.073 79.0797 312.056C78.7805 312.039 78.4263 312.026 78.0163 312.018C77.6064 312.009 77.2473 312.004 76.9397 312.004C76.6834 312.004 76.5554 312.065 76.5554 312.184C76.5554 312.286 76.6152 312.338 76.7347 312.338C77.0937 312.338 77.358 312.363 77.5293 312.415C77.9902 312.535 78.2807 312.726 78.4006 312.991C78.5201 313.256 78.5799 313.858 78.5799 314.797V318.716C78.5799 319.074 78.4263 319.348 78.1186 319.536C77.5201 319.86 76.6404 320.022 75.4792 320.022C73.1045 320.022 71.0796 319.194 69.4057 317.538C68.8248 316.974 68.2692 316.125 67.7402 314.989C67.2099 313.853 66.9455 312.568 66.9455 311.134C66.9455 309.819 67.1545 308.649 67.5733 307.625C67.9917 306.6 68.5512 305.806 69.252 305.242C70.516 304.235 72.1646 303.731 74.1979 303.731C75.5814 303.731 76.7515 303.919 77.7086 304.295C78.6649 304.671 79.3059 305.106 79.6309 305.601C79.9036 306.045 80.0661 306.558 80.1174 307.138C80.1519 307.36 80.2113 307.471 80.2967 307.471C80.4335 307.471 80.5021 307.309 80.5021 306.984C80.5021 306.301 80.5145 305.716 80.5402 305.23C80.5659 304.743 80.5916 304.38 80.6172 304.141C80.6429 303.902 80.6557 303.757 80.6557 303.705C80.6557 303.586 80.5615 303.518 80.3737 303.501C79.7075 303.466 79.0833 303.39 78.5029 303.27C77.3408 302.997 76.1623 302.86 74.9665 302.86C72.4378 302.86 70.3876 303.347 68.816 304.32Z" fill="url(#paint13_linear_126_9698)"/>
<path d="M91.3021 303.527C90.268 303.92 89.4056 304.428 88.7136 305.051C88.0217 305.675 87.4324 306.387 86.9454 307.19C86.4584 307.993 86.1079 308.8 85.8945 309.61C85.6815 310.422 85.5743 311.211 85.5743 311.98C85.5743 312.834 85.6815 313.683 85.8945 314.529C86.1079 315.374 86.4496 316.194 86.9197 316.988C87.3895 317.782 87.9663 318.478 88.6494 319.075C89.3325 319.673 90.1829 320.156 91.1994 320.523C92.2159 320.89 93.3306 321.073 94.5436 321.073C97.2769 321.073 99.498 320.16 101.206 318.332C102.915 316.505 103.769 314.268 103.769 311.621C103.769 308.975 102.919 306.866 101.22 305.294C99.5192 303.723 97.3455 302.938 94.6973 302.938C93.4674 302.938 92.335 303.135 91.3021 303.527ZM89.8669 317.756C88.4573 316.126 87.7525 313.986 87.7525 311.34C87.7525 308.88 88.3758 306.998 89.6233 305.692C90.8701 304.385 92.5019 303.732 94.5179 303.732C96.4654 303.732 98.1269 304.492 99.5024 306.012C100.877 307.532 101.565 309.615 101.565 312.262C101.565 313.542 101.407 314.678 101.091 315.668C100.775 316.659 100.386 317.432 99.9252 317.987C99.4639 318.542 98.9256 318.995 98.3106 319.344C97.6957 319.694 97.1361 319.925 96.6319 320.036C96.1281 320.147 95.6367 320.202 95.1585 320.202C93.0402 320.202 91.2764 319.387 89.8669 317.756Z" fill="url(#paint14_linear_126_9698)"/>
<path d="M112.1 303.755L106.847 318.126C106.539 318.979 106.21 319.564 105.86 319.88C105.51 320.196 104.967 320.354 104.233 320.354C104.096 320.354 104.028 320.397 104.028 320.482C104.028 320.652 104.173 320.738 104.464 320.738C104.89 320.738 105.428 320.725 106.078 320.699C106.727 320.674 107.06 320.661 107.077 320.661C107.146 320.661 107.41 320.674 107.872 320.699C108.333 320.725 108.666 320.738 108.871 320.738C109.11 320.738 109.23 320.652 109.23 320.482C109.23 320.397 109.153 320.354 108.999 320.354H108.769C108.547 320.354 108.346 320.294 108.166 320.175C107.987 320.055 107.898 319.893 107.898 319.688C107.898 319.227 108 318.706 108.205 318.126L109.589 314.027C109.657 313.908 109.734 313.848 109.82 313.848H114.817C114.902 313.848 114.97 313.899 115.022 314.002L117.174 319.688C117.276 319.944 117.251 320.132 117.097 320.252C116.944 320.371 116.867 320.44 116.867 320.456C116.867 320.644 118.31 320.738 121.198 320.738C121.505 320.738 121.659 320.652 121.659 320.482C121.659 320.397 121.582 320.354 121.429 320.354C120.693 320.354 120.121 320.145 119.711 319.726C119.301 319.308 118.899 318.612 118.507 317.639L113.125 303.704C112.903 303.141 112.732 302.859 112.613 302.859C112.493 302.859 112.322 303.158 112.1 303.755ZM110.024 312.849L112.049 306.599C112.168 306.291 112.288 306.291 112.408 306.599L114.586 312.849C114.62 312.968 114.594 313.028 114.509 313.028H110.075C109.99 313.028 109.973 312.968 110.024 312.849Z" fill="url(#paint15_linear_126_9698)"/>
<path d="M3.20386 295.018H185.978" stroke="url(#paint16_linear_126_9698)" stroke-width="0.80226" stroke-miterlimit="10"/>
<path d="M116.581 148.972C154.694 166.691 173.764 164.885 185.949 119.588C162.996 138.743 151.21 145.87 116.581 148.972Z" fill="url(#paint17_linear_126_9698)"/>
<path d="M99.0649 145.974C97.9489 146.919 96.821 147.852 95.6798 148.767C93.3352 150.648 90.934 152.46 88.4655 154.176C83.6086 157.551 78.4829 160.558 73.0697 162.953C66.9982 165.64 60.5456 167.535 53.9426 168.307C47.6653 169.042 41.216 168.557 34.9644 167.965C39.5256 171.417 45.8205 176.493 50.8018 179.307C55.2142 181.8 59.8031 184.029 64.5898 185.709C66.7667 186.473 68.9874 187.126 71.2481 187.591C73.6834 188.092 74.8375 186.906 76.8808 185.586C80.367 183.333 83.6314 180.74 86.6182 177.858C90.5806 174.035 94.3408 169.869 96.908 164.999C103.916 151.704 101.967 143.614 102.16 143.353C101.43 144.342 100.004 145.178 99.0649 145.974Z" fill="url(#paint18_linear_126_9698)"/>
<path d="M80.8599 189.458C81.0416 189.439 81.2229 189.38 81.4042 189.401C88.7978 190.247 95.4373 190.812 103.065 190.013C107.484 189.551 113.212 188.909 117.765 187.507C121.822 186.258 123.745 185.763 125.948 184.922C117.546 179.848 108.354 170.232 104.183 155.596C99.8389 166.279 93.8533 180.524 80.8599 189.458Z" fill="url(#paint19_linear_126_9698)"/>
<path d="M131.776 182.766C140.689 180.093 149.345 175.571 158.152 165.868C139.825 164.896 119.685 161.677 107.317 148.97C111.027 164.031 122.525 179.094 131.776 182.766Z" fill="url(#paint20_linear_126_9698)"/>
<path d="M117.06 113.879C116.757 113.802 113.047 117.283 112.71 117.533C108.174 120.899 103.182 123.765 98.0888 126.195C85.4058 132.247 72.0189 136.523 57.6336 134.843C46.6186 133.556 36.6557 129.478 27.5633 123.418C18.2679 117.224 9.41299 110.45 2.28491 101.766C2.61023 110.447 4.7655 119.146 8.20479 127.106C16.8239 147.053 36.4479 166.76 60.2803 161.924C84.7564 156.958 100.211 137.097 120.441 124.643C125.36 121.615 130.778 118.551 136.509 117.446C138.958 116.974 141.632 116.758 144.048 117.528C145.088 117.86 149.17 119.839 148.822 121.394C148.879 121.141 150.924 111.443 136.461 109.598C136.461 109.598 137.012 106.787 131.949 106.322C130.558 106.189 128.741 106.237 126.369 106.572L125.792 106.658C125.482 106.706 125.159 106.757 124.832 106.813C120.208 107.618 116.845 106.869 114.494 105.716C111.188 104.098 109.883 101.683 109.883 101.683C109.883 101.683 110.501 111.862 117.06 113.879Z" fill="url(#paint21_linear_126_9698)"/>
<path d="M97.0653 3.09751C72.2433 23.2894 53.3421 79.3263 67.9192 115.268C74.9991 69.6434 102.801 32.7198 144.258 14.3161C132.894 6.60182 119.693 2.74068 107.683 0.371056C106.671 0.170174 105.722 0.0707321 104.821 0.0707321C101.927 0.0703278 99.5246 1.09757 97.0653 3.09751ZM92.4081 28.2652C92.3841 28.189 93.2144 16.79 93.3909 11.4453C93.3909 11.1967 111.013 4.4006 111.759 4.4006C111.69 9.82547 111.229 21.6215 111.185 21.7498C111.185 21.7498 92.9276 28.268 92.4186 28.2684C92.4121 28.2684 92.4089 28.2676 92.4081 28.2652Z" fill="url(#paint22_linear_126_9698)"/>
<path d="M111.759 4.40082C111.691 9.82569 111.229 21.6217 111.185 21.75C111.185 21.75 92.4644 28.4338 92.4082 28.2654C92.3842 28.1892 93.2145 16.7902 93.391 11.4455C93.391 11.1969 111.013 4.40082 111.759 4.40082Z" fill="#D40000"/>
<path d="M34.7925 50.3409C33.6934 72.3852 47.9375 107.24 68.0061 126.441C47.3639 81.1901 60.3565 40.9506 83.1327 0.935692C48.1421 5.82328 36.4131 17.9601 34.7925 50.3409ZM44.2471 32.8073C42.6306 31.4882 42.2936 29.1065 43.1481 26.793C44.0707 24.3031 46.4132 22.3104 50.1277 22.0257C49.2372 20.9592 49.0647 19.8405 49.8068 18.357C50.5569 16.8775 51.9488 15.4662 53.8863 14.0989C57.0953 11.8335 60.2723 10.9033 61.7444 12.4109C63.2687 13.9746 62.4705 17.4749 59.3577 20.9231C61.2551 20.3097 62.7392 20.3979 63.718 21.4884C64.7008 22.5911 64.9013 24.267 64.5564 26.3199C64.0188 29.5315 62.3461 32.1858 59.8712 33.2002C58.4873 33.7736 57.1355 33.7616 55.9 33.0559C54.7086 32.3703 53.9064 31.2797 53.6978 29.6679C53.1562 31.1714 53.06 32.5507 53.3528 33.8257C53.5494 34.6797 53.9304 35.3854 54.4599 35.9508C54.5803 36.0831 54.7728 36.2274 54.6244 36.476L47.7169 36.5361C47.6768 36.2194 47.9937 36.051 48.2023 35.8906C49.4819 34.8842 50.4927 33.6012 51.1426 32.0295C51.4555 31.2677 51.7603 30.4818 51.7242 29.6679C50.5208 31.6806 48.8922 32.8273 47.1353 33.3125C46.759 33.4167 46.4092 33.4657 46.0835 33.4657C45.3583 33.4657 44.7538 33.2223 44.2471 32.8073Z" fill="url(#paint23_linear_126_9698)"/>
<path d="M64.5597 26.3199C64.0222 29.5315 62.3495 32.1858 59.8745 33.2002C58.4906 33.7736 57.1388 33.7616 55.9033 33.0559C54.7119 32.3703 53.9097 31.2797 53.7011 29.6678C53.1596 31.1714 53.0633 32.5507 53.3561 33.8257C53.5527 34.6797 53.9338 35.3854 54.4632 35.9507C54.5836 36.0831 54.7761 36.2274 54.6277 36.476L47.7202 36.5361C47.6801 36.2194 47.997 36.051 48.2056 35.8906C49.4852 34.8842 50.4961 33.6012 51.1459 32.0294C51.4588 31.2676 51.7636 30.4818 51.7275 29.6678C50.5241 31.6806 48.8956 32.8273 47.1386 33.3125C45.9232 33.6493 44.9845 33.4087 44.2505 32.8073C42.6339 31.4882 42.297 29.1065 43.1514 26.793C44.074 24.3031 46.4166 22.3104 50.131 22.0257C49.2405 20.9592 49.068 19.8405 49.8101 18.357C50.5602 16.8775 51.9522 15.4662 53.8896 14.0989C57.0987 11.8335 60.2756 10.9033 61.7478 12.4109C63.2721 13.9746 62.4738 17.4749 59.361 20.9231C61.2584 20.3096 62.7426 20.3979 63.7213 21.4884C64.7041 22.5911 64.9047 24.267 64.5597 26.3199Z" fill="black"/>
<path d="M82.9574 81.4492C96.7322 70.6356 108.188 65.5475 124.069 62.7569C140.171 59.9262 166.557 59.4531 183.505 61.0448C178.45 47.5087 169.489 34.2773 158.635 24.871C123.628 28.5077 92.0711 56.4098 82.9574 81.4492ZM140.102 34.8587C141.077 32.1603 143.335 31.1499 146.468 31.3865C149.401 31.611 152.341 32.6936 155.277 33.8684C158.574 35.1915 165.899 37.0639 165.975 37.1201C166.071 37.1963 163.621 41.8914 162.77 44.7462C162.08 47.0717 160.889 49.4213 158.863 51.2536C156.529 53.3706 152.947 53.4508 149.742 51.9593C144.759 49.6338 144.651 45.7887 147.587 43.9042C147.732 43.812 147.928 43.7278 147.912 43.4992C146.978 43.6155 146.196 43.9603 145.413 44.3131C143.849 45.0148 142.561 45.8889 141.703 47.0316C141.526 47.2601 140.981 48.6675 140.323 47.0035C139.581 45.5401 138.843 44.1808 137.996 42.7414C137.904 42.5891 137.647 42.4167 137.936 42.2442C138.209 42.0839 138.498 42.2081 138.743 42.2803C141.27 43.0541 143.877 42.994 146.348 42.2322C146.557 42.168 146.745 42.0839 146.942 42.0117C146.833 41.8032 146.617 41.8674 146.464 41.8754C146.295 41.8874 146.126 41.893 145.958 41.893C142.109 41.893 138.645 38.8618 140.102 34.8587Z" fill="url(#paint24_linear_126_9698)"/>
<path d="M162.769 44.745C162.079 47.0705 160.888 49.4201 158.862 51.2524C156.527 53.3695 152.945 53.4497 149.74 51.9581C144.758 49.6326 144.65 45.7875 147.586 43.903C147.731 43.8108 147.927 43.7266 147.911 43.498C146.977 43.6143 146.194 43.9591 145.412 44.312C143.848 45.0136 142.56 45.8877 141.702 47.0304C141.525 47.259 140.98 48.6663 140.322 47.0024C139.58 45.5389 138.842 44.1797 137.995 42.7403C137.903 42.5879 137.646 42.4155 137.935 42.2431C138.208 42.0827 138.497 42.207 138.741 42.2792C141.268 43.053 143.876 42.9929 146.347 42.231C146.555 42.1669 146.744 42.0827 146.94 42.0105C146.832 41.802 146.616 41.8662 146.463 41.8742C142.42 42.1549 138.581 39.0355 140.101 34.8576C141.076 32.1592 143.334 31.1488 146.467 31.3853C149.399 31.6099 152.34 32.6924 155.276 33.8672C158.573 35.1903 165.898 37.0628 165.974 37.1189C166.07 37.1951 163.619 41.8902 162.769 44.745Z" fill="black"/>
<path d="M25.1284 94.4231C22.3434 94.6128 19.4899 94.7904 17.6868 95.1657C16.5157 95.4119 15.4531 95.4159 14.5516 94.7742C13.5535 94.0559 12.8894 93.5393 12.1892 92.5303C11.5895 91.6586 11.0783 90.7304 10.6034 89.7981C10.2533 89.1039 9.93132 88.3936 9.69789 87.651C9.43226 86.8116 9.24713 85.9479 9.13444 85.0681C8.77625 82.1744 9.83473 79.5915 11.3037 80.0314C11.4204 80.0637 12.7285 80.6287 12.8894 80.6852C12.813 80.5278 12.5111 80.1162 12.4025 79.9548C11.2715 78.2718 10.4465 76.3952 10.1084 74.3975C9.41214 70.3092 8.9654 64.203 12.9418 66.7536C15.912 68.6545 18.3348 73.1342 19.8923 76.5122C20.9025 78.5422 21.6189 80.4552 22.3031 82.3964C23.5266 85.8793 24.3758 89.4106 24.9916 92.2478C25.1284 92.8935 25.2331 93.5151 25.3015 94.0962C25.3216 94.2738 25.3216 94.407 25.1284 94.4231Z" fill="#D40000"/>
<path d="M9.68517 97.4604C19.1238 116.429 51.6915 132.796 68.9561 130.174C35.2612 108.787 25.1327 70.749 21.3661 34.2705C7.63139 47.6622 0.130253 78.2067 9.68517 97.4604ZM12.4369 80.019C11.3097 78.347 10.4874 76.4826 10.1505 74.4979C9.45652 70.4363 9.01127 64.3699 12.9744 66.9039C15.9348 68.7924 18.3496 73.2429 19.9019 76.5989C20.9088 78.6157 21.6228 80.5162 22.3047 82.4447C23.5242 85.9049 24.3705 89.4133 24.9843 92.2319C25.1206 92.8735 25.2249 93.4909 25.2931 94.0683C25.3132 94.2447 25.3132 94.377 25.1206 94.3931C22.3448 94.5815 19.5008 94.758 17.7038 95.1308C16.5365 95.3754 15.4775 95.3794 14.579 94.7419C13.5842 94.0282 12.9223 93.515 12.2243 92.5126C11.6266 91.6466 11.1172 90.7244 10.6439 89.7982C10.2949 89.1085 9.97399 88.4029 9.74133 87.6651C9.47658 86.8311 9.29207 85.9731 9.17975 85.099C8.82275 82.2242 9.87771 79.6581 11.3418 80.0952C11.4582 80.1273 12.7618 80.6886 12.9223 80.7447C12.8461 80.5883 12.5452 80.1794 12.4369 80.019Z" fill="url(#paint25_linear_126_9698)"/>
</g>
<defs>
<linearGradient id="paint0_linear_126_9698" x1="-23.8211" y1="203.797" x2="84.3467" y2="346.317" gradientUnits="userSpaceOnUse">
<stop stop-color="#E7C980"/>
<stop offset="1" stop-color="#9E8253"/>
</linearGradient>
<linearGradient id="paint1_linear_126_9698" x1="-6.47278" y1="190.631" x2="101.695" y2="333.151" gradientUnits="userSpaceOnUse">
<stop stop-color="#E7C980"/>
<stop offset="1" stop-color="#9E8253"/>
</linearGradient>
<linearGradient id="paint2_linear_126_9698" x1="15.6468" y1="173.844" x2="123.815" y2="316.364" gradientUnits="userSpaceOnUse">
<stop stop-color="#E7C980"/>
<stop offset="1" stop-color="#9E8253"/>
</linearGradient>
<linearGradient id="paint3_linear_126_9698" x1="27.2403" y1="165.04" x2="135.408" y2="307.56" gradientUnits="userSpaceOnUse">
<stop stop-color="#E7C980"/>
<stop offset="1" stop-color="#9E8253"/>
</linearGradient>
<linearGradient id="paint4_linear_126_9698" x1="45.1932" y1="151.417" x2="153.361" y2="293.937" gradientUnits="userSpaceOnUse">
<stop stop-color="#E7C980"/>
<stop offset="1" stop-color="#9E8253"/>
</linearGradient>
<linearGradient id="paint5_linear_126_9698" x1="70.2571" y1="132.395" x2="178.425" y2="274.915" gradientUnits="userSpaceOnUse">
<stop stop-color="#E7C980"/>
<stop offset="1" stop-color="#9E8253"/>
</linearGradient>
<linearGradient id="paint6_linear_126_9698" x1="-12.5032" y1="195.204" x2="95.6645" y2="337.724" gradientUnits="userSpaceOnUse">
<stop stop-color="#E7C980"/>
<stop offset="1" stop-color="#9E8253"/>
</linearGradient>
<linearGradient id="paint7_linear_126_9698" x1="5.76433" y1="181.34" x2="113.932" y2="323.86" gradientUnits="userSpaceOnUse">
<stop stop-color="#E7C980"/>
<stop offset="1" stop-color="#9E8253"/>
</linearGradient>
<linearGradient id="paint8_linear_126_9698" x1="27.0422" y1="165.192" x2="135.21" y2="307.712" gradientUnits="userSpaceOnUse">
<stop stop-color="#E7C980"/>
<stop offset="1" stop-color="#9E8253"/>
</linearGradient>
<linearGradient id="paint9_linear_126_9698" x1="44.1659" y1="152.197" x2="152.334" y2="294.717" gradientUnits="userSpaceOnUse">
<stop stop-color="#E7C980"/>
<stop offset="1" stop-color="#9E8253"/>
</linearGradient>
<linearGradient id="paint10_linear_126_9698" x1="61.4786" y1="139.056" x2="169.646" y2="281.576" gradientUnits="userSpaceOnUse">
<stop stop-color="#E7C980"/>
<stop offset="1" stop-color="#9E8253"/>
</linearGradient>
<linearGradient id="paint11_linear_126_9698" x1="76.7468" y1="127.471" x2="184.915" y2="269.99" gradientUnits="userSpaceOnUse">
<stop stop-color="#E7C980"/>
<stop offset="1" stop-color="#9E8253"/>
</linearGradient>
<linearGradient id="paint12_linear_126_9698" x1="90.3806" y1="117.122" x2="198.548" y2="259.642" gradientUnits="userSpaceOnUse">
<stop stop-color="#E7C980"/>
<stop offset="1" stop-color="#9E8253"/>
</linearGradient>
<linearGradient id="paint13_linear_126_9698" x1="-11.298" y1="198.685" x2="96.8697" y2="341.204" gradientUnits="userSpaceOnUse">
<stop stop-color="#E7C980"/>
<stop offset="1" stop-color="#9E8253"/>
</linearGradient>
<linearGradient id="paint14_linear_126_9698" x1="1.3754" y1="189.066" x2="109.543" y2="331.586" gradientUnits="userSpaceOnUse">
<stop stop-color="#E7C980"/>
<stop offset="1" stop-color="#9E8253"/>
</linearGradient>
<linearGradient id="paint15_linear_126_9698" x1="10.1361" y1="182.416" x2="118.304" y2="324.936" gradientUnits="userSpaceOnUse">
<stop stop-color="#E7C980"/>
<stop offset="1" stop-color="#9E8253"/>
</linearGradient>
<linearGradient id="paint16_linear_126_9698" x1="nan" y1="nan" x2="nan" y2="nan" gradientUnits="userSpaceOnUse">
<stop stop-color="#E7C980"/>
<stop offset="1" stop-color="#9E8253"/>
</linearGradient>
<linearGradient id="paint17_linear_126_9698" x1="-25.6612" y1="139.498" x2="128.554" y2="139.498" gradientUnits="userSpaceOnUse">
<stop stop-color="#E7C980"/>
<stop offset="1" stop-color="#9E8253"/>
</linearGradient>
<linearGradient id="paint18_linear_126_9698" x1="-25.657" y1="165.53" x2="128.558" y2="165.53" gradientUnits="userSpaceOnUse">
<stop stop-color="#E7C980"/>
<stop offset="1" stop-color="#9E8253"/>
</linearGradient>
<linearGradient id="paint19_linear_126_9698" x1="-25.6575" y1="172.997" x2="128.558" y2="172.997" gradientUnits="userSpaceOnUse">
<stop stop-color="#E7C980"/>
<stop offset="1" stop-color="#9E8253"/>
</linearGradient>
<linearGradient id="paint20_linear_126_9698" x1="-25.6565" y1="165.868" x2="128.559" y2="165.868" gradientUnits="userSpaceOnUse">
<stop stop-color="#E7C980"/>
<stop offset="1" stop-color="#9E8253"/>
</linearGradient>
<linearGradient id="paint21_linear_126_9698" x1="-25.6592" y1="132.174" x2="128.556" y2="132.174" gradientUnits="userSpaceOnUse">
<stop stop-color="#E7C980"/>
<stop offset="1" stop-color="#9E8253"/>
</linearGradient>
<linearGradient id="paint22_linear_126_9698" x1="-25.6602" y1="57.6691" x2="128.557" y2="57.6691" gradientUnits="userSpaceOnUse">
<stop stop-color="#E7C980"/>
<stop offset="1" stop-color="#9E8253"/>
</linearGradient>
<linearGradient id="paint23_linear_126_9698" x1="-25.6619" y1="63.6885" x2="128.557" y2="63.6885" gradientUnits="userSpaceOnUse">
<stop stop-color="#E7C980"/>
<stop offset="1" stop-color="#9E8253"/>
</linearGradient>
<linearGradient id="paint24_linear_126_9698" x1="-25.6625" y1="53.1601" x2="128.554" y2="53.1601" gradientUnits="userSpaceOnUse">
<stop stop-color="#E7C980"/>
<stop offset="1" stop-color="#9E8253"/>
</linearGradient>
<linearGradient id="paint25_linear_126_9698" x1="-25.6636" y1="82.3608" x2="128.553" y2="82.3608" gradientUnits="userSpaceOnUse">
<stop stop-color="#E7C980"/>
<stop offset="1" stop-color="#9E8253"/>
</linearGradient>
<clipPath id="clip0_126_9698">
<rect width="186.607" height="321" fill="white" transform="matrix(1 0 0 -1 0 321)"/>
</clipPath>
</defs>
</svg>
