<svg width="52" height="53" viewBox="0 0 52 53" fill="none" xmlns="http://www.w3.org/2000/svg">
<g id="Frame" clip-path="url(#clip0_126_10310)">
<g id="Clip path group">
<mask id="mask0_126_10310" style="mask-type:luminance" maskUnits="userSpaceOnUse" x="0" y="0" width="52" height="53">
<g id="clip0_2307_2606">
<path id="Vector" d="M52 0.108398H0V52.1084H52V0.108398Z" fill="white"/>
</g>
</mask>
<g mask="url(#mask0_126_10310)">
<g id="Group">
<path id="Vector_2" d="M26.0752 52.1612C40.4346 52.1612 52.0752 40.5205 52.0752 26.1612C52.0752 11.8017 40.4346 0.161133 26.0752 0.161133C11.7158 0.161133 0.0751953 11.8017 0.0751953 26.1612C0.0751953 40.5205 11.7158 52.1612 26.0752 52.1612Z" fill="url(#paint0_linear_126_10310)"/>
<g id="Mask group">
<mask id="mask1_126_10310" style="mask-type:luminance" maskUnits="userSpaceOnUse" x="0" y="0" width="53" height="53">
<g id="Group_2">
<path id="Vector_3" d="M26.0754 52.1602C40.4347 52.1602 52.0754 40.5195 52.0754 26.1602C52.0754 11.8007 40.4347 0.160156 26.0754 0.160156C11.7159 0.160156 0.0753174 11.8007 0.0753174 26.1602C0.0753174 40.5195 11.7159 52.1602 26.0754 52.1602Z" fill="white"/>
</g>
</mask>
<g mask="url(#mask1_126_10310)">
<g id="Group_3">
<path id="Vector_4" d="M26.6151 54.5461L45.8874 52.0613C45.8874 52.0613 45.7199 42.4406 43.683 41.4564C41.6461 40.4721 39.346 39.334 38.2934 38.8418C37.2407 38.3497 35.5866 37.6012 35.5866 37.6012C35.5866 37.6012 34.4074 34.7406 32.555 34.2656L32.2133 32.0885C32.2133 32.0885 33.7546 29.3954 34.0965 26.5758C34.0965 26.5758 35.0807 27.5943 35.4327 25.7009C35.7062 24.2313 35.9283 22.6045 35.2961 22.3379C35.3576 22.0201 35.3439 21.6885 35.2722 21.4253C35.2311 21.2784 35.1218 21.1725 34.9953 21.1144V21.1041C35.197 20.6529 35.3507 20.1779 35.4294 19.6824C35.4874 19.2996 35.467 18.9578 35.3918 18.5785C35.3542 18.3837 35.2106 18.2161 35.0842 18.0521C35.1081 17.8232 35.091 17.6215 34.9918 17.5156C34.8996 17.4199 34.8005 17.3105 34.7082 17.1977C34.633 16.979 34.51 16.7739 34.3186 16.5893C34.2366 16.3877 34.2024 16.1758 34.2605 15.9639C34.3528 15.6153 34.1648 15.2189 34.0896 14.884C33.888 13.9953 33.037 13.8518 32.7635 13.0418C32.5858 12.5087 31.9228 12.4848 31.376 12.5531C31.311 12.4813 31.2461 12.4096 31.1914 12.3275C31.0958 12.1874 30.8223 12.102 30.6719 12.0302C30.4908 11.9448 30.3165 11.9311 30.1525 11.9721C29.9474 11.5381 29.5578 11.1313 29.1066 11.1553C29.0007 10.8785 28.6999 10.6837 28.3855 10.7725C28.2044 10.8237 28.0335 10.9126 27.8934 11.0357C27.866 10.9878 27.8318 10.94 27.7874 10.9057C27.326 10.5333 26.581 10.7657 26.0307 10.7691C25.6172 10.7691 25.2994 10.8545 24.9986 11.0083C24.9883 10.9981 24.9815 10.9878 24.9713 10.9776C24.6602 10.752 24.3185 10.8682 23.9972 11.0117C23.7854 11.104 23.7204 11.1861 23.488 11.1689C23.283 11.1553 23.0402 11.1416 22.8454 11.227C22.5652 11.3466 22.3909 11.6201 22.2918 11.9379C22.261 11.9481 22.2303 11.9585 22.203 11.9721C22.1858 11.9345 22.1654 11.8969 22.138 11.8627C21.4613 11.0937 20.2686 12.6385 20.0738 13.1888C20.0703 13.199 20.0635 13.2059 20.0601 13.2161C19.7866 13.2674 19.5372 13.4075 19.315 13.6057C19.2466 13.6262 19.1818 13.6433 19.127 13.6707C18.8536 13.8005 18.7648 14.1321 18.6862 14.3918C18.652 14.5012 18.6486 14.614 18.6554 14.7267C18.6144 14.8429 18.5699 14.9523 18.5221 15.0651C18.3683 15.0138 18.2009 15.0514 18.0949 15.236C17.801 15.7521 17.5002 16.2408 17.2849 16.7945C17.2268 16.9448 17.1961 17.0815 17.1824 17.2148C16.7176 17.7377 16.4715 18.4041 17.1346 18.9852C17.1858 19.0296 16.9398 20.3933 16.9329 20.5163C16.9055 21.1896 17.155 21.7501 17.3225 22.3516C16.1298 21.9653 16.3861 23.951 16.7107 25.7043C17.0628 27.5977 18.047 26.5793 18.047 26.5793C18.3888 29.3988 19.9302 32.0919 19.9302 32.0919L19.585 34.269C17.7326 34.7441 16.5467 37.6046 16.5467 37.6046C16.5467 37.6046 14.8857 38.3565 13.833 38.8453C12.7804 39.3374 10.4633 40.4755 8.42632 41.4597C6.39279 42.4406 6.11938 52.0648 6.11938 52.0648L26.622 54.5494L26.6151 54.5461Z" fill="white"/>
</g>
</g>
</g>
</g>
</g>
</g>
</g>
<defs>
<linearGradient id="paint0_linear_126_10310" x1="0.0751953" y1="26.1338" x2="52.0752" y2="26.1338" gradientUnits="userSpaceOnUse">
<stop stop-color="#E7C980"/>
<stop offset="1" stop-color="#9E8253"/>
</linearGradient>
<clipPath id="clip0_126_10310">
<rect width="52" height="52.8" fill="white"/>
</clipPath>
</defs>
</svg>
