<svg width="354" height="296" viewBox="0 0 354 296" fill="none" xmlns="http://www.w3.org/2000/svg">
<path d="M155.86 0.357134C116.205 13.1912 76.9873 27.797 38.2077 44.1746C26.6241 49.0685 15.0873 54.1187 3.59747 59.325C2.43457 59.8661 1.47145 60.76 0.844789 61.8799C1.20226 61.2264 1.67455 60.6429 2.23898 60.1572C1.56321 61.2426 0.889887 62.3309 0.21901 63.4222C0.148608 63.7279 0.0822117 64.04 0.0196507 64.3528C0.968131 62.7922 1.92178 61.238 2.8806 59.69C-0.0555908 61.4267 -1.24775 67.0029 1.7168 71.8682C20.868 104.15 42.8595 134.657 67.4297 163.026L67.4317 163.036C71.4269 167.649 75.4726 172.18 79.5689 176.631L79.5664 176.62L79.4264 176.463C85.6137 183.186 91.9084 189.723 98.3103 196.073L98.3004 196.072C98.6126 196.382 98.9251 196.691 99.2379 197C96.8085 194.599 94.3938 192.17 91.9936 189.715C108.487 206.603 125.972 222.491 144.356 237.294L144.353 237.285C146.69 239.166 149.037 241.025 151.393 242.861L151.165 242.681C153.445 244.46 155.733 246.218 158.03 247.955L158.027 247.947C160.324 249.685 162.629 251.401 164.943 253.097L164.945 253.104C185.409 268.147 206.878 281.77 229.202 293.877C231.265 295.1 233.686 295.578 236.058 295.231C238.431 294.884 240.614 293.733 242.241 291.97C268.791 258.811 296.694 227.049 325.95 196.685C334.269 188.048 342.691 179.53 351.217 171.13C352.126 170.412 352.777 169.417 353.07 168.295C353.363 167.174 353.282 165.987 352.841 164.916C352.478 164.511 352.116 164.105 351.755 163.699C351.884 163.808 352.012 163.917 352.142 164.025C351.669 163.59 351.126 163.239 350.534 162.989C323.113 151.029 297.157 135.949 273.18 118.048C247.957 99.2272 224.889 77.6746 204.394 53.7827C191.124 38.3436 178.899 22.034 167.801 4.96298L167.793 4.95095C166.535 3.03088 164.707 1.55463 162.566 0.730495C160.425 -0.0936437 158.079 -0.224573 155.86 0.357134Z" fill="url(#paint0_linear_401_448)"/>
<path d="M306.91 175.72C307.967 174.797 309.056 173.91 310.116 172.989C311.021 172.116 311.912 171.231 312.814 170.358L312.892 170.319L312.985 170.314C313.048 170.322 313.109 170.345 313.162 170.381L313.22 170.438L313.239 170.501L313.205 170.562C312.873 170.84 312.59 171.173 312.367 171.544C312.349 171.666 312.33 171.787 312.312 171.909L312.515 172.204C313.228 172.549 314.003 172.749 314.793 172.791C318.077 173.184 321.355 173.541 324.626 173.863C326.124 172.456 327.624 171.053 329.128 169.653C327.91 168.159 326.7 166.658 325.496 165.151C325.063 164.617 324.519 164.185 323.901 163.885C323.125 163.632 322.293 163.6 321.5 163.794C320.707 163.988 319.984 164.4 319.411 164.983L319.334 165.022C319.24 165.038 319.144 165.016 319.066 164.962L319.009 164.906L318.991 164.844L319.023 164.786L319.026 164.784C320.064 163.909 321.125 163.063 322.155 162.179C323.111 161.297 324.039 160.389 324.985 159.498L325.062 159.459L325.154 159.453C325.217 159.459 325.277 159.481 325.328 159.516L325.384 159.57L325.401 159.631L325.365 159.692C325.111 159.879 324.901 160.12 324.751 160.398C324.6 160.675 324.511 160.983 324.492 161.298C324.841 162.594 325.504 163.784 326.422 164.762C329.759 168.98 333.043 173.274 336.756 177.157L336.764 177.202C336.696 177.354 336.576 177.477 336.425 177.547L336.341 177.562C328.992 177.094 321.596 176.397 314.165 175.525C311.926 175.247 309.195 174.672 307.304 175.929L307.227 175.969L307.133 175.972C307.069 175.965 307.007 175.941 306.954 175.904L306.896 175.846L306.876 175.783L306.91 175.72ZM325.794 173.971C328.284 174.208 330.769 174.424 333.249 174.617C332.055 173.19 330.869 171.755 329.693 170.312C328.392 171.529 327.092 172.748 325.794 173.971Z" fill="url(#paint1_linear_401_448)"/>
<path d="M208.707 128.923C206.56 127.928 204.348 127.079 202.087 126.38C182.376 120.171 162.458 117.732 142.752 114.455C140.516 130.228 138.75 147.637 144.318 165.278C144.984 167.4 145.865 169.448 146.947 171.39C148.209 173.64 149.814 175.679 151.705 177.432C161.87 186.563 175.105 185.943 182.805 180.047C185.115 178.342 186.869 175.991 187.847 173.29C188.825 170.59 188.984 167.66 188.303 164.87C188.145 164.272 187.962 163.679 187.751 163.089C187.384 161.956 187.038 160.819 186.713 159.678L186.708 159.563L186.756 159.471C186.799 159.431 186.851 159.401 186.908 159.385C186.965 159.368 187.025 159.366 187.082 159.378L187.206 159.42L187.314 159.505C194.398 167.694 201.872 179.516 200.635 190.261C204.923 186.734 209.229 183.234 213.553 179.762C217.875 176.29 222.215 172.847 226.573 169.432C214.453 170.798 200.775 166.429 188.701 158.505L188.604 158.413L188.579 158.367L188.564 158.312L188.572 158.213L188.624 158.127L188.713 158.063L188.832 158.034L188.975 158.05C190.371 158.414 191.765 158.776 193.16 159.152C193.889 159.363 194.617 159.55 195.346 159.713C198.619 160.482 202.017 160.559 205.323 159.939C208.628 159.319 211.768 158.017 214.542 156.114C221.405 151 223.557 140.655 214.955 132.857C213.057 131.272 210.956 129.949 208.707 128.923Z" fill="url(#paint2_linear_401_448)"/>
<path d="M67.9668 109.364C67.3013 108.847 66.5998 108.378 65.8677 107.961C59.8445 104.816 53.492 102.349 46.9262 100.604C45.6949 106.603 45.5263 112.772 46.4279 118.83C46.578 119.613 46.7964 120.382 47.0806 121.127C47.4083 121.985 47.8518 122.795 48.3985 123.534C51.4014 127.29 55.4756 128.134 58.2398 126.585C59.0821 126.054 59.7483 125.286 60.1541 124.376C60.5598 123.466 60.6869 122.457 60.5192 121.475C60.4871 121.244 60.4464 121.014 60.3969 120.783C60.3142 120.341 60.2369 119.899 60.1648 119.457L60.1665 119.415L60.1845 119.385C60.2389 119.345 60.3043 119.363 60.3627 119.435C62.4886 123.106 64.245 127.738 63.5436 131.694C65.0653 130.781 66.5886 129.872 68.1134 128.966C69.6382 128.061 71.1639 127.157 72.6905 126.257C68.1022 125.175 63.9614 122.697 60.8373 119.164L60.8091 119.123L60.7988 119.083L60.8044 119.047L60.8235 119.019L60.8538 119.002L60.8927 118.999L60.9386 119.015C61.3759 119.246 61.8138 119.479 62.2522 119.717C62.4804 119.847 62.7093 119.969 62.9389 120.082C63.9033 120.599 64.977 120.879 66.0711 120.898C67.1651 120.918 68.248 120.676 69.2301 120.193C70.8764 119.344 71.9922 117.233 71.3694 114.212C71.0566 113.168 70.5655 112.187 69.918 111.31C69.3513 110.582 68.6962 109.929 67.9668 109.364Z" fill="url(#paint3_linear_401_448)"/>
<path d="M292.059 167.072C292.754 167.231 293.46 167.335 294.171 167.386C300.31 167.613 306.453 167.061 312.454 165.742C312.504 161.569 312.571 157.193 310.908 153.206C310.705 152.727 310.441 152.276 310.121 151.866C309.736 151.38 309.263 150.971 308.726 150.662C307.236 149.944 305.576 149.656 303.932 149.831C302.288 150.007 300.726 150.638 299.421 151.654C298.746 152.128 298.223 152.788 297.918 153.555C297.612 154.321 297.536 155.16 297.7 155.969C297.749 156.123 297.807 156.274 297.872 156.422C297.988 156.708 298.097 156.997 298.203 157.287L298.206 157.318L298.192 157.345C298.165 157.371 298.13 157.387 298.093 157.388L298.055 157.383L298.022 157.366C295.743 155.52 293.718 152.605 294.171 149.602C292.805 150.689 291.44 151.78 290.077 152.874C288.714 153.969 287.353 155.065 285.994 156.164C289.933 155.59 293.955 156.125 297.607 157.711L297.638 157.731L297.651 157.757L297.649 157.784L297.633 157.81L297.607 157.832L297.571 157.846L297.528 157.85C297.101 157.826 296.675 157.798 296.248 157.766C296.025 157.745 295.802 157.73 295.579 157.721C293.472 157.646 291.404 158.306 289.728 159.587C288.788 160.342 288.151 161.411 287.933 162.597C287.89 163.349 288.064 164.097 288.434 164.752C288.804 165.407 289.354 165.942 290.02 166.293C290.657 166.653 291.344 166.915 292.059 167.072Z" fill="url(#paint4_linear_401_448)"/>
<defs>
<linearGradient id="paint0_linear_401_448" x1="68.6853" y1="26.4023" x2="320.174" y2="272.795" gradientUnits="userSpaceOnUse">
<stop stop-color="#FAF6EC"/>
<stop offset="0.3121" stop-color="#F6F2E7"/>
<stop offset="0.6502" stop-color="#F0EBDD"/>
<stop offset="0.9993" stop-color="#CFD7F0"/>
<stop offset="1" stop-color="#F0E4C9"/>
</linearGradient>
<linearGradient id="paint1_linear_401_448" x1="108.399" y1="36.2663" x2="335.638" y2="179.775" gradientUnits="userSpaceOnUse">
<stop stop-color="#0A0F26"/>
<stop offset="0.7581" stop-color="#061424"/>
</linearGradient>
<linearGradient id="paint2_linear_401_448" x1="31.6501" y1="59.2738" x2="320.239" y2="241.527" gradientUnits="userSpaceOnUse">
<stop stop-color="#0A0F26"/>
<stop offset="0.7581" stop-color="#061424"/>
</linearGradient>
<linearGradient id="paint3_linear_401_448" x1="8.58849" y1="85.402" x2="331.476" y2="289.315" gradientUnits="userSpaceOnUse">
<stop stop-color="#0A0F26"/>
<stop offset="0.7581" stop-color="#061424"/>
</linearGradient>
<linearGradient id="paint4_linear_401_448" x1="86.3045" y1="23.664" x2="335.083" y2="180.775" gradientUnits="userSpaceOnUse">
<stop stop-color="#0A0F26"/>
<stop offset="0.7581" stop-color="#061424"/>
</linearGradient>
</defs>
</svg>
