<svg width="1166" height="641" viewBox="0 0 1166 641" fill="none" xmlns="http://www.w3.org/2000/svg">
<circle cx="579.634" cy="587.85" r="419.708" transform="rotate(35.6226 579.634 587.85)" fill="#9B0101" stroke="#F7A921" stroke-width="9.11701"/>
<circle cx="579.708" cy="588.305" r="324.305" transform="rotate(46.458 579.708 588.305)" fill="#FFF9EF" stroke="url(#paint0_linear_126_9017)" stroke-width="9.11701"/>
<path d="M359.439 356.531C388.651 328.769 422.849 306.779 460.229 291.72L579.708 588.305L359.439 356.531Z" fill="url(#paint1_linear_126_9017)"/>
<path d="M260.065 580.17C261.091 539.883 269.723 500.152 285.507 463.072L579.708 588.305L260.065 580.17Z" fill="url(#paint2_linear_126_9017)"/>
<path d="M347.934 808.574C320.171 779.362 298.182 745.165 283.123 707.784L579.708 588.305L347.934 808.574Z" fill="url(#paint3_linear_126_9017)"/>
<path d="M571.572 907.948C531.285 906.923 491.555 898.291 454.475 882.507L579.708 588.305L571.572 907.948Z" fill="url(#paint4_linear_126_9017)"/>
<path d="M799.977 820.08C770.765 847.842 736.568 869.832 699.187 884.89L579.708 588.305L799.977 820.08Z" fill="url(#paint5_linear_126_9017)"/>
<path d="M899.351 596.441C898.326 636.728 889.694 676.458 873.91 713.538L579.708 588.305L899.351 596.441Z" fill="url(#paint6_linear_126_9017)"/>
<path d="M811.483 368.036C839.245 397.249 861.234 431.446 876.293 468.827L579.708 588.305L811.483 368.036Z" fill="url(#paint7_linear_126_9017)"/>
<path d="M587.844 268.662C628.131 269.688 667.861 278.32 704.941 294.104L579.708 588.305L587.844 268.662Z" fill="url(#paint8_linear_126_9017)"/>
<circle cx="950.613" cy="625.056" r="42.5717" transform="rotate(-84.3165 950.613 625.056)" fill="url(#paint9_radial_126_9017)"/>
<g filter="url(#filter0_i_126_9017)">
<circle cx="950.84" cy="625.332" r="24.5801" transform="rotate(-84.3165 950.84 625.332)" fill="url(#paint10_radial_126_9017)"/>
</g>
<circle cx="947.402" cy="527.464" r="42.5717" transform="rotate(-99.3774 947.402 527.464)" fill="url(#paint11_radial_126_9017)"/>
<g filter="url(#filter1_i_126_9017)">
<circle cx="947.694" cy="527.673" r="24.5801" transform="rotate(-99.3774 947.694 527.673)" fill="url(#paint12_radial_126_9017)"/>
</g>
<circle cx="919.251" cy="434.436" r="42.5717" transform="rotate(-114.227 919.251 434.436)" fill="url(#paint13_radial_126_9017)"/>
<g filter="url(#filter2_i_126_9017)">
<circle cx="919.586" cy="434.563" r="24.5801" transform="rotate(-114.227 919.586 434.563)" fill="url(#paint14_radial_126_9017)"/>
</g>
<circle cx="867.898" cy="351.772" r="42.5717" transform="rotate(-129.215 867.898 351.772)" fill="url(#paint15_radial_126_9017)"/>
<g filter="url(#filter3_i_126_9017)">
<circle cx="868.255" cy="351.808" r="24.5801" transform="rotate(-129.215 868.255 351.808)" fill="url(#paint16_radial_126_9017)"/>
</g>
<g filter="url(#filter4_i_126_9017)">
<circle cx="659.866" cy="537.865" r="7.72232" transform="rotate(-129.215 659.866 537.865)" fill="url(#paint17_radial_126_9017)"/>
</g>
<g filter="url(#filter5_i_126_9017)">
<circle cx="665.866" cy="608.865" r="7.72232" transform="rotate(-129.215 665.866 608.865)" fill="url(#paint18_radial_126_9017)"/>
</g>
<g filter="url(#filter6_i_126_9017)">
<circle cx="512.809" cy="629.733" r="7.72232" transform="rotate(-129.215 512.809 629.733)" fill="url(#paint19_radial_126_9017)"/>
</g>
<g filter="url(#filter7_i_126_9017)">
<circle cx="502.148" cy="570.821" r="7.72232" transform="rotate(-129.215 502.148 570.821)" fill="url(#paint20_radial_126_9017)"/>
</g>
<g filter="url(#filter8_i_126_9017)">
<circle cx="532.287" cy="513.105" r="7.72232" transform="rotate(-129.215 532.287 513.105)" fill="url(#paint21_radial_126_9017)"/>
</g>
<g filter="url(#filter9_i_126_9017)">
<circle cx="598.867" cy="501.865" r="7.72232" transform="rotate(-129.215 598.867 501.865)" fill="url(#paint22_radial_126_9017)"/>
</g>
<circle cx="795.609" cy="284.456" r="42.5717" transform="rotate(-144.599 795.609 284.456)" fill="url(#paint23_radial_126_9017)"/>
<g filter="url(#filter10_i_126_9017)">
<circle cx="795.962" cy="284.396" r="24.5801" transform="rotate(-144.599 795.962 284.396)" fill="url(#paint24_radial_126_9017)"/>
</g>
<circle cx="709.685" cy="238.864" r="42.5717" transform="rotate(-159.54 709.685 238.864)" fill="url(#paint25_radial_126_9017)"/>
<g filter="url(#filter11_i_126_9017)">
<circle cx="710.012" cy="238.714" r="24.5801" transform="rotate(-159.54 710.012 238.714)" fill="url(#paint26_radial_126_9017)"/>
</g>
<circle cx="614.964" cy="217.191" r="42.5717" transform="rotate(-174.528 614.964 217.191)" fill="url(#paint27_radial_126_9017)"/>
<g filter="url(#filter12_i_126_9017)">
<circle cx="615.24" cy="216.963" r="24.5801" transform="rotate(-174.528 615.24 216.963)" fill="url(#paint28_radial_126_9017)"/>
</g>
<circle cx="517.671" cy="220.805" r="42.5717" transform="rotate(170.414 517.671 220.805)" fill="url(#paint29_radial_126_9017)"/>
<g filter="url(#filter13_i_126_9017)">
<circle cx="517.879" cy="220.513" r="24.5801" transform="rotate(170.414 517.879 220.513)" fill="url(#paint30_radial_126_9017)"/>
</g>
<circle cx="424.981" cy="249.209" r="42.5717" transform="rotate(155.562 424.981 249.209)" fill="url(#paint31_radial_126_9017)"/>
<g filter="url(#filter14_i_126_9017)">
<circle cx="425.106" cy="248.873" r="24.5801" transform="rotate(155.562 425.106 248.873)" fill="url(#paint32_radial_126_9017)"/>
</g>
<circle cx="343.003" cy="300.398" r="42.5717" transform="rotate(140.568 343.003 300.398)" fill="url(#paint33_radial_126_9017)"/>
<g filter="url(#filter15_i_126_9017)">
<circle cx="343.038" cy="300.041" r="24.5801" transform="rotate(140.568 343.038 300.041)" fill="url(#paint34_radial_126_9017)"/>
</g>
<circle cx="275.235" cy="373.557" r="42.5717" transform="rotate(125.18 275.235 373.557)" fill="url(#paint35_radial_126_9017)"/>
<g filter="url(#filter16_i_126_9017)">
<circle cx="275.175" cy="373.204" r="24.5801" transform="rotate(125.18 275.175 373.204)" fill="url(#paint36_radial_126_9017)"/>
</g>
<circle cx="230.09" cy="459.364" r="42.5717" transform="rotate(110.243 230.09 459.364)" fill="url(#paint37_radial_126_9017)"/>
<g filter="url(#filter17_i_126_9017)">
<circle cx="229.939" cy="459.039" r="24.5801" transform="rotate(110.243 229.939 459.039)" fill="url(#paint38_radial_126_9017)"/>
</g>
<circle cx="208.8" cy="553.181" r="42.5717" transform="rotate(95.2614 208.8 553.181)" fill="url(#paint39_radial_126_9017)"/>
<g filter="url(#filter18_i_126_9017)">
<circle cx="208.57" cy="552.905" r="24.5801" transform="rotate(95.2614 208.57 552.905)" fill="url(#paint40_radial_126_9017)"/>
</g>
<circle cx="212.622" cy="651.413" r="42.5717" transform="rotate(80.2062 212.622 651.413)" fill="url(#paint41_radial_126_9017)"/>
<g filter="url(#filter19_i_126_9017)">
<circle cx="212.329" cy="651.207" r="24.5801" transform="rotate(80.2062 212.329 651.207)" fill="url(#paint42_radial_126_9017)"/>
</g>
<g filter="url(#filter20_d_126_9017)">
<path d="M582.814 308.132L537.393 261.226C535.262 259.025 536.377 255.34 539.371 254.689L585.277 244.717C585.842 244.594 586.426 244.598 586.988 244.729L633.649 255.53C636.657 256.226 637.707 259.972 635.499 262.131L588.352 308.209C586.803 309.722 584.32 309.688 582.814 308.132Z" fill="url(#paint43_linear_126_9017)"/>
</g>
<path d="M790.933 547.586L797.852 547.056L797.322 540.137L802.084 539.773L802.614 546.692L809.533 546.162L809.897 550.924L802.978 551.454L803.511 558.41L798.749 558.774L798.217 551.818L791.297 552.348L790.933 547.586ZM824.776 560.449C818.861 560.902 814.628 557.409 814.192 551.718L820.144 551.262C820.343 553.866 821.988 555.312 824.518 555.118C827.233 554.91 828.773 553.034 828.551 550.132C828.335 547.305 826.644 545.75 823.929 545.958C822.069 546.101 820.469 547.196 819.902 548.587L814.316 547.966L816.645 532.933L831.6 531.789L832.027 537.369L821.388 538.183L820.617 542.283C821.753 541.485 823.25 540.996 824.923 540.868C830.28 540.458 834.271 543.707 834.698 549.287C835.171 555.462 831.137 559.962 824.776 560.449Z" fill="black"/>
<path d="M805.448 638.336L806.279 633.331L818.866 635.42L818.035 640.426L805.448 638.336Z" fill="white"/>
<path d="M754.675 461.498L748.861 463.841L746.839 458.823L758.016 454.319L768.336 479.926L762.973 482.087L754.675 461.498ZM767.202 465.58C764.008 457.656 766.317 450.41 772.995 447.719C779.674 445.027 786.362 448.647 789.556 456.571C792.749 464.496 790.717 471.429 783.692 474.26C776.667 477.091 770.395 473.505 767.202 465.58ZM772.738 463.349C774.956 468.851 778.147 470.783 781.712 469.346C785.276 467.91 786.236 464.305 784.019 458.803C781.732 453.128 778.54 451.196 774.976 452.632C771.412 454.069 770.451 457.674 772.738 463.349ZM792.039 455.57C788.846 447.646 791.155 440.4 797.833 437.709C804.512 435.017 811.2 438.637 814.393 446.561C817.587 454.486 815.554 461.419 808.53 464.25C801.505 467.081 795.233 463.495 792.039 455.57ZM797.576 453.339C799.793 458.841 802.985 460.773 806.549 459.336C810.114 457.9 811.074 454.295 808.857 448.793C806.57 443.118 803.378 441.186 799.813 442.622C796.249 444.059 795.289 447.664 797.576 453.339Z" fill="white"/>
<path d="M718.339 419.332L706.957 435.409L703.312 432.808L702.436 420.999C702.174 417.191 701.493 415.192 699.64 413.87C697.363 412.245 695.346 412.501 693.916 414.506C692.42 416.601 692.981 418.834 695.501 420.633L692.012 425.522C686.971 421.925 685.988 416.365 689.521 411.415C693.184 406.283 698.136 405.188 702.934 408.612C706.001 410.801 707.169 414.431 707.514 418.893L707.932 424.28L713.784 416.081L718.339 419.332ZM725.672 409.957C722.226 414.785 716.831 415.793 712.184 412.478L715.652 407.619C717.778 409.136 719.942 408.801 721.416 406.736C722.998 404.519 722.546 402.134 720.177 400.444C717.869 398.796 715.592 399.097 714.01 401.313C712.927 402.832 712.741 404.762 713.444 406.089L709.386 409.976L699.346 398.548L708.058 386.34L712.613 389.591L706.415 398.276L709.066 401.497C709.183 400.114 709.768 398.652 710.743 397.286C713.864 392.913 718.916 391.935 723.471 395.186C728.512 398.783 729.378 404.764 725.672 409.957ZM721.703 391.113C714.749 386.15 712.798 378.799 716.981 372.938C721.164 367.077 728.749 366.532 735.704 371.495C742.658 376.458 744.673 383.397 740.273 389.561C735.874 395.726 728.657 396.076 721.703 391.113ZM725.17 386.254C729.999 389.7 733.729 389.612 735.961 386.484C738.193 383.356 737.064 379.8 732.236 376.354C727.256 372.8 723.526 372.888 721.293 376.016C719.061 379.144 720.19 382.7 725.17 386.254Z" fill="black"/>
<path d="M637.974 388.081L633.326 407.224L628.979 406.151L623.808 395.498C622.16 392.056 620.788 390.449 618.579 389.904C615.862 389.233 614.083 390.216 613.493 392.606C612.876 395.106 614.221 396.975 617.227 397.717L615.788 403.548C609.775 402.064 606.811 397.259 608.268 391.355C609.779 385.234 613.978 382.389 619.701 383.802C623.359 384.704 625.784 387.647 627.75 391.668L630.127 396.52L632.54 386.74L637.974 388.081ZM641.33 376.662C639.908 382.421 635.266 385.349 629.724 383.981L631.155 378.186C633.69 378.812 635.578 377.702 636.186 375.239C636.839 372.595 635.538 370.545 632.713 369.847C629.96 369.168 627.955 370.287 627.302 372.931C626.855 374.742 627.395 376.605 628.538 377.578L626.201 382.689L612.652 375.771L616.246 361.21L621.679 362.551L619.122 372.91L622.775 374.926C622.373 373.597 622.377 372.023 622.779 370.393C624.067 365.177 628.402 362.404 633.835 363.745C639.848 365.229 642.859 370.468 641.33 376.662ZM630.689 360.612C622.394 358.565 617.869 352.452 619.595 345.462C621.32 338.471 628.169 335.166 636.464 337.213C644.758 339.26 649.191 344.965 647.377 352.318C645.562 359.671 638.983 362.659 630.689 360.612ZM632.119 354.816C637.878 356.238 641.312 354.78 642.233 351.049C643.154 347.318 640.793 344.43 635.033 343.008C629.093 341.542 625.659 343 624.738 346.731C623.817 350.462 626.179 353.35 632.119 354.816ZM637.105 334.613C628.811 332.566 624.286 326.454 626.011 319.463C627.737 312.472 634.586 309.167 642.88 311.214C651.175 313.261 655.608 318.967 653.793 326.32C651.978 333.673 645.4 336.66 637.105 334.613ZM638.536 328.818C644.295 330.239 647.729 328.781 648.65 325.05C649.571 321.319 647.209 318.431 641.45 317.009C635.51 315.543 632.076 317.001 631.155 320.732C630.234 324.463 632.595 327.352 638.536 328.818Z" fill="white"/>
<path d="M534.22 373.603L533.892 366.671L526.96 367L526.734 362.23L533.665 361.901L533.336 354.97L538.106 354.743L538.435 361.675L545.404 361.344L545.63 366.114L538.662 366.445L538.991 373.376L534.22 373.603ZM525.608 344.798L525.905 351.058L520.501 351.315L519.93 339.278L547.507 337.969L547.781 343.745L525.608 344.798Z" fill="black"/>
<path d="M440.336 390.087L442.788 395.855L437.809 397.971L433.095 386.881L458.503 376.081L460.765 381.403L440.336 390.087Z" fill="white"/>
<path d="M391.804 483.863L377.385 469.316L381.36 465.376L403.691 456.637L408.103 461.088L385.641 469.695L395.779 479.923L391.804 483.863ZM386.433 458.728C380.365 464.743 372.79 465.422 367.721 460.308C362.652 455.194 363.398 447.626 369.466 441.611C375.534 435.597 382.713 434.784 388.045 440.163C393.376 445.542 392.5 452.714 386.433 458.728ZM382.23 454.489C386.443 450.313 386.987 446.622 384.282 443.893C381.577 441.163 377.881 441.675 373.668 445.851C369.323 450.158 368.779 453.849 371.484 456.578C374.189 459.308 377.885 458.796 382.23 454.489ZM367.581 439.709C361.513 445.724 353.939 446.403 348.87 441.289C343.801 436.175 344.546 428.607 350.614 422.592C356.682 416.578 363.861 415.765 369.193 421.144C374.525 426.523 373.649 433.695 367.581 439.709ZM363.379 435.47C367.592 431.294 368.136 427.603 365.43 424.874C362.725 422.144 359.03 422.656 354.816 426.832C350.471 431.139 349.927 434.83 352.632 437.559C355.337 440.288 359.033 439.777 363.379 435.47Z" fill="black"/>
<path d="M343.898 543.384L349.984 544.882L348.691 550.135L336.99 547.255L343.588 520.447L349.203 521.829L343.898 543.384ZM336.122 532.748C334.08 541.044 327.97 545.573 320.979 543.852C313.987 542.131 310.677 535.284 312.719 526.988C314.761 518.692 320.463 514.256 327.818 516.066C335.172 517.876 338.164 524.452 336.122 532.748ZM330.325 531.322C331.743 525.562 330.283 522.129 326.551 521.21C322.82 520.292 319.933 522.655 318.515 528.415C317.053 534.356 318.513 537.789 322.245 538.708C325.976 539.626 328.863 537.263 330.325 531.322Z" fill="white"/>
<path d="M381.867 607.058C387.687 605.908 392.304 608.874 393.411 614.474L387.556 615.631C387.049 613.069 385.245 611.829 382.756 612.321C380.084 612.849 378.777 614.895 379.341 617.75C379.891 620.531 381.754 621.874 384.426 621.346C386.256 620.984 387.715 619.707 388.113 618.259L393.732 618.213L393.201 633.416L378.488 636.325L377.403 630.835L387.87 628.766L388.15 624.603C387.117 625.53 385.688 626.193 384.041 626.518C378.771 627.56 374.424 624.807 373.338 619.317C372.137 613.241 375.609 608.295 381.867 607.058ZM371.832 623.494C373.489 631.875 369.867 638.562 362.803 639.958C355.739 641.355 349.845 636.549 348.188 628.168C346.531 619.787 349.823 613.355 357.253 611.886C364.683 610.417 370.175 615.112 371.832 623.494ZM365.976 624.651C364.825 618.832 362.05 616.338 358.28 617.083C354.511 617.829 352.894 621.191 354.044 627.01C355.231 633.013 358.006 635.507 361.775 634.761C365.545 634.016 367.162 630.654 365.976 624.651ZM345.561 628.687C347.218 637.069 343.596 643.756 336.532 645.152C329.469 646.549 323.575 641.743 321.918 633.362C320.261 624.98 323.553 618.549 330.983 617.08C338.412 615.611 343.904 620.306 345.561 628.687ZM339.705 629.845C338.555 624.026 335.78 621.532 332.01 622.277C328.24 623.022 326.623 626.384 327.774 632.204C328.96 638.206 331.735 640.7 335.505 639.955C339.275 639.21 340.892 635.847 339.705 629.845ZM319.291 633.881C320.948 642.262 317.326 648.949 310.262 650.346C303.198 651.742 297.304 646.937 295.647 638.555C293.99 630.174 297.282 623.742 304.712 622.273C312.142 620.805 317.634 625.5 319.291 633.881ZM313.435 635.039C312.284 629.219 309.509 626.725 305.74 627.471C301.97 628.216 300.353 631.578 301.503 637.397C302.69 643.4 305.465 645.894 309.234 645.148C313.004 644.403 314.621 641.041 313.435 635.039Z" fill="black"/>
<defs>
<filter id="filter0_i_126_9017" x="926.258" y="598.724" width="51.191" height="51.1903" filterUnits="userSpaceOnUse" color-interpolation-filters="sRGB">
<feFlood flood-opacity="0" result="BackgroundImageFix"/>
<feBlend mode="normal" in="SourceGraphic" in2="BackgroundImageFix" result="shape"/>
<feColorMatrix in="SourceAlpha" type="matrix" values="0 0 0 0 0 0 0 0 0 0 0 0 0 0 0 0 0 0 127 0" result="hardAlpha"/>
<feOffset dx="6.08167" dy="-5.57486"/>
<feGaussianBlur stdDeviation="1.01361"/>
<feComposite in2="hardAlpha" operator="arithmetic" k2="-1" k3="1"/>
<feColorMatrix type="matrix" values="0 0 0 0 0 0 0 0 0 0 0 0 0 0 0 0 0 0 0.04 0"/>
<feBlend mode="normal" in2="shape" result="effect1_innerShadow_126_9017"/>
</filter>
<filter id="filter1_i_126_9017" x="923.11" y="501.062" width="51.1949" height="51.1952" filterUnits="userSpaceOnUse" color-interpolation-filters="sRGB">
<feFlood flood-opacity="0" result="BackgroundImageFix"/>
<feBlend mode="normal" in="SourceGraphic" in2="BackgroundImageFix" result="shape"/>
<feColorMatrix in="SourceAlpha" type="matrix" values="0 0 0 0 0 0 0 0 0 0 0 0 0 0 0 0 0 0 127 0" result="hardAlpha"/>
<feOffset dx="6.08167" dy="-5.57486"/>
<feGaussianBlur stdDeviation="1.01361"/>
<feComposite in2="hardAlpha" operator="arithmetic" k2="-1" k3="1"/>
<feColorMatrix type="matrix" values="0 0 0 0 0 0 0 0 0 0 0 0 0 0 0 0 0 0 0.04 0"/>
<feBlend mode="normal" in2="shape" result="effect1_innerShadow_126_9017"/>
</filter>
<filter id="filter2_i_126_9017" x="895" y="407.949" width="51.1995" height="51.1991" filterUnits="userSpaceOnUse" color-interpolation-filters="sRGB">
<feFlood flood-opacity="0" result="BackgroundImageFix"/>
<feBlend mode="normal" in="SourceGraphic" in2="BackgroundImageFix" result="shape"/>
<feColorMatrix in="SourceAlpha" type="matrix" values="0 0 0 0 0 0 0 0 0 0 0 0 0 0 0 0 0 0 127 0" result="hardAlpha"/>
<feOffset dx="6.08167" dy="-5.57486"/>
<feGaussianBlur stdDeviation="1.01361"/>
<feComposite in2="hardAlpha" operator="arithmetic" k2="-1" k3="1"/>
<feColorMatrix type="matrix" values="0 0 0 0 0 0 0 0 0 0 0 0 0 0 0 0 0 0 0.04 0"/>
<feBlend mode="normal" in2="shape" result="effect1_innerShadow_126_9017"/>
</filter>
<filter id="filter3_i_126_9017" x="843.674" y="325.2" width="51.1888" height="51.1884" filterUnits="userSpaceOnUse" color-interpolation-filters="sRGB">
<feFlood flood-opacity="0" result="BackgroundImageFix"/>
<feBlend mode="normal" in="SourceGraphic" in2="BackgroundImageFix" result="shape"/>
<feColorMatrix in="SourceAlpha" type="matrix" values="0 0 0 0 0 0 0 0 0 0 0 0 0 0 0 0 0 0 127 0" result="hardAlpha"/>
<feOffset dx="6.08167" dy="-5.57486"/>
<feGaussianBlur stdDeviation="1.01361"/>
<feComposite in2="hardAlpha" operator="arithmetic" k2="-1" k3="1"/>
<feColorMatrix type="matrix" values="0 0 0 0 0 0 0 0 0 0 0 0 0 0 0 0 0 0 0.04 0"/>
<feBlend mode="normal" in2="shape" result="effect1_innerShadow_126_9017"/>
</filter>
<filter id="filter4_i_126_9017" x="652.143" y="529.506" width="16.082" height="16.0822" filterUnits="userSpaceOnUse" color-interpolation-filters="sRGB">
<feFlood flood-opacity="0" result="BackgroundImageFix"/>
<feBlend mode="normal" in="SourceGraphic" in2="BackgroundImageFix" result="shape"/>
<feColorMatrix in="SourceAlpha" type="matrix" values="0 0 0 0 0 0 0 0 0 0 0 0 0 0 0 0 0 0 127 0" result="hardAlpha"/>
<feOffset dx="1.91068" dy="-1.75145"/>
<feGaussianBlur stdDeviation="0.318446"/>
<feComposite in2="hardAlpha" operator="arithmetic" k2="-1" k3="1"/>
<feColorMatrix type="matrix" values="0 0 0 0 0 0 0 0 0 0 0 0 0 0 0 0 0 0 0.04 0"/>
<feBlend mode="normal" in2="shape" result="effect1_innerShadow_126_9017"/>
</filter>
<filter id="filter5_i_126_9017" x="658.143" y="600.506" width="16.082" height="16.0822" filterUnits="userSpaceOnUse" color-interpolation-filters="sRGB">
<feFlood flood-opacity="0" result="BackgroundImageFix"/>
<feBlend mode="normal" in="SourceGraphic" in2="BackgroundImageFix" result="shape"/>
<feColorMatrix in="SourceAlpha" type="matrix" values="0 0 0 0 0 0 0 0 0 0 0 0 0 0 0 0 0 0 127 0" result="hardAlpha"/>
<feOffset dx="1.91068" dy="-1.75145"/>
<feGaussianBlur stdDeviation="0.318446"/>
<feComposite in2="hardAlpha" operator="arithmetic" k2="-1" k3="1"/>
<feColorMatrix type="matrix" values="0 0 0 0 0 0 0 0 0 0 0 0 0 0 0 0 0 0 0.04 0"/>
<feBlend mode="normal" in2="shape" result="effect1_innerShadow_126_9017"/>
</filter>
<filter id="filter6_i_126_9017" x="505.087" y="621.374" width="16.082" height="16.0822" filterUnits="userSpaceOnUse" color-interpolation-filters="sRGB">
<feFlood flood-opacity="0" result="BackgroundImageFix"/>
<feBlend mode="normal" in="SourceGraphic" in2="BackgroundImageFix" result="shape"/>
<feColorMatrix in="SourceAlpha" type="matrix" values="0 0 0 0 0 0 0 0 0 0 0 0 0 0 0 0 0 0 127 0" result="hardAlpha"/>
<feOffset dx="1.91068" dy="-1.75145"/>
<feGaussianBlur stdDeviation="0.318446"/>
<feComposite in2="hardAlpha" operator="arithmetic" k2="-1" k3="1"/>
<feColorMatrix type="matrix" values="0 0 0 0 0 0 0 0 0 0 0 0 0 0 0 0 0 0 0.04 0"/>
<feBlend mode="normal" in2="shape" result="effect1_innerShadow_126_9017"/>
</filter>
<filter id="filter7_i_126_9017" x="494.425" y="562.462" width="16.082" height="16.0822" filterUnits="userSpaceOnUse" color-interpolation-filters="sRGB">
<feFlood flood-opacity="0" result="BackgroundImageFix"/>
<feBlend mode="normal" in="SourceGraphic" in2="BackgroundImageFix" result="shape"/>
<feColorMatrix in="SourceAlpha" type="matrix" values="0 0 0 0 0 0 0 0 0 0 0 0 0 0 0 0 0 0 127 0" result="hardAlpha"/>
<feOffset dx="1.91068" dy="-1.75145"/>
<feGaussianBlur stdDeviation="0.318446"/>
<feComposite in2="hardAlpha" operator="arithmetic" k2="-1" k3="1"/>
<feColorMatrix type="matrix" values="0 0 0 0 0 0 0 0 0 0 0 0 0 0 0 0 0 0 0.04 0"/>
<feBlend mode="normal" in2="shape" result="effect1_innerShadow_126_9017"/>
</filter>
<filter id="filter8_i_126_9017" x="524.564" y="504.746" width="16.082" height="16.0822" filterUnits="userSpaceOnUse" color-interpolation-filters="sRGB">
<feFlood flood-opacity="0" result="BackgroundImageFix"/>
<feBlend mode="normal" in="SourceGraphic" in2="BackgroundImageFix" result="shape"/>
<feColorMatrix in="SourceAlpha" type="matrix" values="0 0 0 0 0 0 0 0 0 0 0 0 0 0 0 0 0 0 127 0" result="hardAlpha"/>
<feOffset dx="1.91068" dy="-1.75145"/>
<feGaussianBlur stdDeviation="0.318446"/>
<feComposite in2="hardAlpha" operator="arithmetic" k2="-1" k3="1"/>
<feColorMatrix type="matrix" values="0 0 0 0 0 0 0 0 0 0 0 0 0 0 0 0 0 0 0.04 0"/>
<feBlend mode="normal" in2="shape" result="effect1_innerShadow_126_9017"/>
</filter>
<filter id="filter9_i_126_9017" x="591.144" y="493.506" width="16.082" height="16.0822" filterUnits="userSpaceOnUse" color-interpolation-filters="sRGB">
<feFlood flood-opacity="0" result="BackgroundImageFix"/>
<feBlend mode="normal" in="SourceGraphic" in2="BackgroundImageFix" result="shape"/>
<feColorMatrix in="SourceAlpha" type="matrix" values="0 0 0 0 0 0 0 0 0 0 0 0 0 0 0 0 0 0 127 0" result="hardAlpha"/>
<feOffset dx="1.91068" dy="-1.75145"/>
<feGaussianBlur stdDeviation="0.318446"/>
<feComposite in2="hardAlpha" operator="arithmetic" k2="-1" k3="1"/>
<feColorMatrix type="matrix" values="0 0 0 0 0 0 0 0 0 0 0 0 0 0 0 0 0 0 0.04 0"/>
<feBlend mode="normal" in2="shape" result="effect1_innerShadow_126_9017"/>
</filter>
<filter id="filter10_i_126_9017" x="771.38" y="257.787" width="51.1913" height="51.1913" filterUnits="userSpaceOnUse" color-interpolation-filters="sRGB">
<feFlood flood-opacity="0" result="BackgroundImageFix"/>
<feBlend mode="normal" in="SourceGraphic" in2="BackgroundImageFix" result="shape"/>
<feColorMatrix in="SourceAlpha" type="matrix" values="0 0 0 0 0 0 0 0 0 0 0 0 0 0 0 0 0 0 127 0" result="hardAlpha"/>
<feOffset dx="6.08167" dy="-5.57486"/>
<feGaussianBlur stdDeviation="1.01361"/>
<feComposite in2="hardAlpha" operator="arithmetic" k2="-1" k3="1"/>
<feColorMatrix type="matrix" values="0 0 0 0 0 0 0 0 0 0 0 0 0 0 0 0 0 0 0.04 0"/>
<feBlend mode="normal" in2="shape" result="effect1_innerShadow_126_9017"/>
</filter>
<filter id="filter11_i_126_9017" x="685.425" y="212.101" width="51.2007" height="51.2001" filterUnits="userSpaceOnUse" color-interpolation-filters="sRGB">
<feFlood flood-opacity="0" result="BackgroundImageFix"/>
<feBlend mode="normal" in="SourceGraphic" in2="BackgroundImageFix" result="shape"/>
<feColorMatrix in="SourceAlpha" type="matrix" values="0 0 0 0 0 0 0 0 0 0 0 0 0 0 0 0 0 0 127 0" result="hardAlpha"/>
<feOffset dx="6.08167" dy="-5.57486"/>
<feGaussianBlur stdDeviation="1.01361"/>
<feComposite in2="hardAlpha" operator="arithmetic" k2="-1" k3="1"/>
<feColorMatrix type="matrix" values="0 0 0 0 0 0 0 0 0 0 0 0 0 0 0 0 0 0 0.04 0"/>
<feBlend mode="normal" in2="shape" result="effect1_innerShadow_126_9017"/>
</filter>
<filter id="filter12_i_126_9017" x="590.659" y="190.355" width="51.1908" height="51.1903" filterUnits="userSpaceOnUse" color-interpolation-filters="sRGB">
<feFlood flood-opacity="0" result="BackgroundImageFix"/>
<feBlend mode="normal" in="SourceGraphic" in2="BackgroundImageFix" result="shape"/>
<feColorMatrix in="SourceAlpha" type="matrix" values="0 0 0 0 0 0 0 0 0 0 0 0 0 0 0 0 0 0 127 0" result="hardAlpha"/>
<feOffset dx="6.08167" dy="-5.57486"/>
<feGaussianBlur stdDeviation="1.01361"/>
<feComposite in2="hardAlpha" operator="arithmetic" k2="-1" k3="1"/>
<feColorMatrix type="matrix" values="0 0 0 0 0 0 0 0 0 0 0 0 0 0 0 0 0 0 0.04 0"/>
<feBlend mode="normal" in2="shape" result="effect1_innerShadow_126_9017"/>
</filter>
<filter id="filter13_i_126_9017" x="493.295" y="193.902" width="51.1952" height="51.1952" filterUnits="userSpaceOnUse" color-interpolation-filters="sRGB">
<feFlood flood-opacity="0" result="BackgroundImageFix"/>
<feBlend mode="normal" in="SourceGraphic" in2="BackgroundImageFix" result="shape"/>
<feColorMatrix in="SourceAlpha" type="matrix" values="0 0 0 0 0 0 0 0 0 0 0 0 0 0 0 0 0 0 127 0" result="hardAlpha"/>
<feOffset dx="6.08167" dy="-5.57486"/>
<feGaussianBlur stdDeviation="1.01361"/>
<feComposite in2="hardAlpha" operator="arithmetic" k2="-1" k3="1"/>
<feColorMatrix type="matrix" values="0 0 0 0 0 0 0 0 0 0 0 0 0 0 0 0 0 0 0.04 0"/>
<feBlend mode="normal" in2="shape" result="effect1_innerShadow_126_9017"/>
</filter>
<filter id="filter14_i_126_9017" x="400.52" y="222.26" width="51.1993" height="51.1991" filterUnits="userSpaceOnUse" color-interpolation-filters="sRGB">
<feFlood flood-opacity="0" result="BackgroundImageFix"/>
<feBlend mode="normal" in="SourceGraphic" in2="BackgroundImageFix" result="shape"/>
<feColorMatrix in="SourceAlpha" type="matrix" values="0 0 0 0 0 0 0 0 0 0 0 0 0 0 0 0 0 0 127 0" result="hardAlpha"/>
<feOffset dx="6.08167" dy="-5.57486"/>
<feGaussianBlur stdDeviation="1.01361"/>
<feComposite in2="hardAlpha" operator="arithmetic" k2="-1" k3="1"/>
<feColorMatrix type="matrix" values="0 0 0 0 0 0 0 0 0 0 0 0 0 0 0 0 0 0 0.04 0"/>
<feBlend mode="normal" in2="shape" result="effect1_innerShadow_126_9017"/>
</filter>
<filter id="filter15_i_126_9017" x="318.458" y="273.434" width="51.1888" height="51.1884" filterUnits="userSpaceOnUse" color-interpolation-filters="sRGB">
<feFlood flood-opacity="0" result="BackgroundImageFix"/>
<feBlend mode="normal" in="SourceGraphic" in2="BackgroundImageFix" result="shape"/>
<feColorMatrix in="SourceAlpha" type="matrix" values="0 0 0 0 0 0 0 0 0 0 0 0 0 0 0 0 0 0 127 0" result="hardAlpha"/>
<feOffset dx="6.08167" dy="-5.57486"/>
<feGaussianBlur stdDeviation="1.01361"/>
<feComposite in2="hardAlpha" operator="arithmetic" k2="-1" k3="1"/>
<feColorMatrix type="matrix" values="0 0 0 0 0 0 0 0 0 0 0 0 0 0 0 0 0 0 0.04 0"/>
<feBlend mode="normal" in2="shape" result="effect1_innerShadow_126_9017"/>
</filter>
<filter id="filter16_i_126_9017" x="250.593" y="346.595" width="51.1915" height="51.1913" filterUnits="userSpaceOnUse" color-interpolation-filters="sRGB">
<feFlood flood-opacity="0" result="BackgroundImageFix"/>
<feBlend mode="normal" in="SourceGraphic" in2="BackgroundImageFix" result="shape"/>
<feColorMatrix in="SourceAlpha" type="matrix" values="0 0 0 0 0 0 0 0 0 0 0 0 0 0 0 0 0 0 127 0" result="hardAlpha"/>
<feOffset dx="6.08167" dy="-5.57486"/>
<feGaussianBlur stdDeviation="1.01361"/>
<feComposite in2="hardAlpha" operator="arithmetic" k2="-1" k3="1"/>
<feColorMatrix type="matrix" values="0 0 0 0 0 0 0 0 0 0 0 0 0 0 0 0 0 0 0.04 0"/>
<feBlend mode="normal" in2="shape" result="effect1_innerShadow_126_9017"/>
</filter>
<filter id="filter17_i_126_9017" x="205.353" y="432.425" width="51.2007" height="51.2001" filterUnits="userSpaceOnUse" color-interpolation-filters="sRGB">
<feFlood flood-opacity="0" result="BackgroundImageFix"/>
<feBlend mode="normal" in="SourceGraphic" in2="BackgroundImageFix" result="shape"/>
<feColorMatrix in="SourceAlpha" type="matrix" values="0 0 0 0 0 0 0 0 0 0 0 0 0 0 0 0 0 0 127 0" result="hardAlpha"/>
<feOffset dx="6.08167" dy="-5.57486"/>
<feGaussianBlur stdDeviation="1.01361"/>
<feComposite in2="hardAlpha" operator="arithmetic" k2="-1" k3="1"/>
<feColorMatrix type="matrix" values="0 0 0 0 0 0 0 0 0 0 0 0 0 0 0 0 0 0 0.04 0"/>
<feBlend mode="normal" in2="shape" result="effect1_innerShadow_126_9017"/>
</filter>
<filter id="filter18_i_126_9017" x="183.989" y="526.296" width="51.1906" height="51.1913" filterUnits="userSpaceOnUse" color-interpolation-filters="sRGB">
<feFlood flood-opacity="0" result="BackgroundImageFix"/>
<feBlend mode="normal" in="SourceGraphic" in2="BackgroundImageFix" result="shape"/>
<feColorMatrix in="SourceAlpha" type="matrix" values="0 0 0 0 0 0 0 0 0 0 0 0 0 0 0 0 0 0 127 0" result="hardAlpha"/>
<feOffset dx="6.08167" dy="-5.57486"/>
<feGaussianBlur stdDeviation="1.01361"/>
<feComposite in2="hardAlpha" operator="arithmetic" k2="-1" k3="1"/>
<feColorMatrix type="matrix" values="0 0 0 0 0 0 0 0 0 0 0 0 0 0 0 0 0 0 0.04 0"/>
<feBlend mode="normal" in2="shape" result="effect1_innerShadow_126_9017"/>
</filter>
<filter id="filter19_i_126_9017" x="187.745" y="624.596" width="51.1953" height="51.1952" filterUnits="userSpaceOnUse" color-interpolation-filters="sRGB">
<feFlood flood-opacity="0" result="BackgroundImageFix"/>
<feBlend mode="normal" in="SourceGraphic" in2="BackgroundImageFix" result="shape"/>
<feColorMatrix in="SourceAlpha" type="matrix" values="0 0 0 0 0 0 0 0 0 0 0 0 0 0 0 0 0 0 127 0" result="hardAlpha"/>
<feOffset dx="6.08167" dy="-5.57486"/>
<feGaussianBlur stdDeviation="1.01361"/>
<feComposite in2="hardAlpha" operator="arithmetic" k2="-1" k3="1"/>
<feColorMatrix type="matrix" values="0 0 0 0 0 0 0 0 0 0 0 0 0 0 0 0 0 0 0.04 0"/>
<feBlend mode="normal" in2="shape" result="effect1_innerShadow_126_9017"/>
</filter>
<filter id="filter20_d_126_9017" x="516.883" y="232.385" width="139.2" height="103.506" filterUnits="userSpaceOnUse" color-interpolation-filters="sRGB">
<feFlood flood-opacity="0" result="BackgroundImageFix"/>
<feColorMatrix in="SourceAlpha" type="matrix" values="0 0 0 0 0 0 0 0 0 0 0 0 0 0 0 0 0 0 127 0" result="hardAlpha"/>
<feOffset dy="7.16337"/>
<feGaussianBlur stdDeviation="9.7031"/>
<feComposite in2="hardAlpha" operator="out"/>
<feColorMatrix type="matrix" values="0 0 0 0 0 0 0 0 0 0 0 0 0 0 0 0 0 0 0.72 0"/>
<feBlend mode="normal" in2="BackgroundImageFix" result="effect1_dropShadow_126_9017"/>
<feBlend mode="normal" in="SourceGraphic" in2="effect1_dropShadow_126_9017" result="shape"/>
</filter>
<linearGradient id="paint0_linear_126_9017" x1="248.24" y1="576.583" x2="918.014" y2="588.305" gradientUnits="userSpaceOnUse">
<stop stop-color="#F4401C"/>
<stop offset="0.320525" stop-color="#B40E01"/>
<stop offset="0.53889" stop-color="#D11608"/>
<stop offset="0.660293" stop-color="#AD0808"/>
<stop offset="1" stop-color="#9F0A04"/>
</linearGradient>
<linearGradient id="paint1_linear_126_9017" x1="845.577" y1="403.912" x2="584.429" y2="583.819" gradientUnits="userSpaceOnUse">
<stop stop-color="#DB0D00"/>
<stop offset="1" stop-color="#F92A02"/>
</linearGradient>
<linearGradient id="paint2_linear_126_9017" x1="845.577" y1="403.912" x2="584.429" y2="583.819" gradientUnits="userSpaceOnUse">
<stop stop-color="#DB0D00"/>
<stop offset="1" stop-color="#F92A02"/>
</linearGradient>
<linearGradient id="paint3_linear_126_9017" x1="845.577" y1="403.912" x2="584.429" y2="583.819" gradientUnits="userSpaceOnUse">
<stop stop-color="#DB0D00"/>
<stop offset="1" stop-color="#F92A02"/>
</linearGradient>
<linearGradient id="paint4_linear_126_9017" x1="845.577" y1="403.912" x2="584.429" y2="583.819" gradientUnits="userSpaceOnUse">
<stop stop-color="#DB0D00"/>
<stop offset="1" stop-color="#F92A02"/>
</linearGradient>
<linearGradient id="paint5_linear_126_9017" x1="845.577" y1="403.912" x2="584.429" y2="583.819" gradientUnits="userSpaceOnUse">
<stop stop-color="#DB0D00"/>
<stop offset="1" stop-color="#F92A02"/>
</linearGradient>
<linearGradient id="paint6_linear_126_9017" x1="845.577" y1="403.912" x2="584.429" y2="583.819" gradientUnits="userSpaceOnUse">
<stop stop-color="#DB0D00"/>
<stop offset="1" stop-color="#F92A02"/>
</linearGradient>
<linearGradient id="paint7_linear_126_9017" x1="845.577" y1="403.912" x2="584.429" y2="583.819" gradientUnits="userSpaceOnUse">
<stop stop-color="#DB0D00"/>
<stop offset="1" stop-color="#F92A02"/>
</linearGradient>
<linearGradient id="paint8_linear_126_9017" x1="845.577" y1="403.912" x2="584.429" y2="583.819" gradientUnits="userSpaceOnUse">
<stop stop-color="#DB0D00"/>
<stop offset="1" stop-color="#F92A02"/>
</linearGradient>
<radialGradient id="paint9_radial_126_9017" cx="0" cy="0" r="1" gradientUnits="userSpaceOnUse" gradientTransform="translate(950.613 625.056) rotate(90) scale(42.5717)">
<stop stop-color="#FFD873"/>
<stop offset="1" stop-color="#FFD873" stop-opacity="0.08"/>
</radialGradient>
<radialGradient id="paint10_radial_126_9017" cx="0" cy="0" r="1" gradientUnits="userSpaceOnUse" gradientTransform="translate(950.84 625.332) rotate(90) scale(24.5801)">
<stop offset="0.109375" stop-color="white"/>
<stop offset="0.479167" stop-color="#F8D0A7"/>
<stop offset="1" stop-color="#EE8C29"/>
</radialGradient>
<radialGradient id="paint11_radial_126_9017" cx="0" cy="0" r="1" gradientUnits="userSpaceOnUse" gradientTransform="translate(947.402 527.464) rotate(90) scale(42.5717)">
<stop stop-color="#FFD873"/>
<stop offset="1" stop-color="#FFD873" stop-opacity="0.08"/>
</radialGradient>
<radialGradient id="paint12_radial_126_9017" cx="0" cy="0" r="1" gradientUnits="userSpaceOnUse" gradientTransform="translate(947.694 527.673) rotate(90) scale(24.5801)">
<stop offset="0.109375" stop-color="white"/>
<stop offset="0.479167" stop-color="#F8D0A7"/>
<stop offset="1" stop-color="#EE8C29"/>
</radialGradient>
<radialGradient id="paint13_radial_126_9017" cx="0" cy="0" r="1" gradientUnits="userSpaceOnUse" gradientTransform="translate(919.251 434.436) rotate(90) scale(42.5717)">
<stop stop-color="#FFD873"/>
<stop offset="1" stop-color="#FFD873" stop-opacity="0.08"/>
</radialGradient>
<radialGradient id="paint14_radial_126_9017" cx="0" cy="0" r="1" gradientUnits="userSpaceOnUse" gradientTransform="translate(919.586 434.563) rotate(90) scale(24.5801)">
<stop offset="0.109375" stop-color="white"/>
<stop offset="0.479167" stop-color="#F8D0A7"/>
<stop offset="1" stop-color="#EE8C29"/>
</radialGradient>
<radialGradient id="paint15_radial_126_9017" cx="0" cy="0" r="1" gradientUnits="userSpaceOnUse" gradientTransform="translate(867.898 351.772) rotate(90) scale(42.5717)">
<stop stop-color="#FFD873"/>
<stop offset="1" stop-color="#FFD873" stop-opacity="0.08"/>
</radialGradient>
<radialGradient id="paint16_radial_126_9017" cx="0" cy="0" r="1" gradientUnits="userSpaceOnUse" gradientTransform="translate(868.255 351.808) rotate(90) scale(24.5801)">
<stop offset="0.109375" stop-color="white"/>
<stop offset="0.479167" stop-color="#F8D0A7"/>
<stop offset="1" stop-color="#EE8C29"/>
</radialGradient>
<radialGradient id="paint17_radial_126_9017" cx="0" cy="0" r="1" gradientUnits="userSpaceOnUse" gradientTransform="translate(659.866 537.865) rotate(90) scale(7.72232)">
<stop offset="0.109375" stop-color="white"/>
<stop offset="0.479167" stop-color="#F8D0A7"/>
<stop offset="1" stop-color="#EE8C29"/>
</radialGradient>
<radialGradient id="paint18_radial_126_9017" cx="0" cy="0" r="1" gradientUnits="userSpaceOnUse" gradientTransform="translate(665.866 608.865) rotate(90) scale(7.72232)">
<stop offset="0.109375" stop-color="white"/>
<stop offset="0.479167" stop-color="#F8D0A7"/>
<stop offset="1" stop-color="#EE8C29"/>
</radialGradient>
<radialGradient id="paint19_radial_126_9017" cx="0" cy="0" r="1" gradientUnits="userSpaceOnUse" gradientTransform="translate(512.809 629.733) rotate(90) scale(7.72232)">
<stop offset="0.109375" stop-color="white"/>
<stop offset="0.479167" stop-color="#F8D0A7"/>
<stop offset="1" stop-color="#EE8C29"/>
</radialGradient>
<radialGradient id="paint20_radial_126_9017" cx="0" cy="0" r="1" gradientUnits="userSpaceOnUse" gradientTransform="translate(502.148 570.821) rotate(90) scale(7.72232)">
<stop offset="0.109375" stop-color="white"/>
<stop offset="0.479167" stop-color="#F8D0A7"/>
<stop offset="1" stop-color="#EE8C29"/>
</radialGradient>
<radialGradient id="paint21_radial_126_9017" cx="0" cy="0" r="1" gradientUnits="userSpaceOnUse" gradientTransform="translate(532.287 513.105) rotate(90) scale(7.72232)">
<stop offset="0.109375" stop-color="white"/>
<stop offset="0.479167" stop-color="#F8D0A7"/>
<stop offset="1" stop-color="#EE8C29"/>
</radialGradient>
<radialGradient id="paint22_radial_126_9017" cx="0" cy="0" r="1" gradientUnits="userSpaceOnUse" gradientTransform="translate(598.867 501.865) rotate(90) scale(7.72232)">
<stop offset="0.109375" stop-color="white"/>
<stop offset="0.479167" stop-color="#F8D0A7"/>
<stop offset="1" stop-color="#EE8C29"/>
</radialGradient>
<radialGradient id="paint23_radial_126_9017" cx="0" cy="0" r="1" gradientUnits="userSpaceOnUse" gradientTransform="translate(795.609 284.456) rotate(90) scale(42.5717)">
<stop stop-color="#FFD873"/>
<stop offset="1" stop-color="#FFD873" stop-opacity="0.08"/>
</radialGradient>
<radialGradient id="paint24_radial_126_9017" cx="0" cy="0" r="1" gradientUnits="userSpaceOnUse" gradientTransform="translate(795.962 284.396) rotate(90) scale(24.5801)">
<stop offset="0.109375" stop-color="white"/>
<stop offset="0.479167" stop-color="#F8D0A7"/>
<stop offset="1" stop-color="#EE8C29"/>
</radialGradient>
<radialGradient id="paint25_radial_126_9017" cx="0" cy="0" r="1" gradientUnits="userSpaceOnUse" gradientTransform="translate(709.685 238.864) rotate(90) scale(42.5717)">
<stop stop-color="#FFD873"/>
<stop offset="1" stop-color="#FFD873" stop-opacity="0.08"/>
</radialGradient>
<radialGradient id="paint26_radial_126_9017" cx="0" cy="0" r="1" gradientUnits="userSpaceOnUse" gradientTransform="translate(710.012 238.714) rotate(90) scale(24.5801)">
<stop offset="0.109375" stop-color="white"/>
<stop offset="0.479167" stop-color="#F8D0A7"/>
<stop offset="1" stop-color="#EE8C29"/>
</radialGradient>
<radialGradient id="paint27_radial_126_9017" cx="0" cy="0" r="1" gradientUnits="userSpaceOnUse" gradientTransform="translate(614.964 217.191) rotate(90) scale(42.5717)">
<stop stop-color="#FFD873"/>
<stop offset="1" stop-color="#FFD873" stop-opacity="0.08"/>
</radialGradient>
<radialGradient id="paint28_radial_126_9017" cx="0" cy="0" r="1" gradientUnits="userSpaceOnUse" gradientTransform="translate(615.24 216.963) rotate(90) scale(24.5801)">
<stop offset="0.109375" stop-color="white"/>
<stop offset="0.479167" stop-color="#F8D0A7"/>
<stop offset="1" stop-color="#EE8C29"/>
</radialGradient>
<radialGradient id="paint29_radial_126_9017" cx="0" cy="0" r="1" gradientUnits="userSpaceOnUse" gradientTransform="translate(517.671 220.805) rotate(90) scale(42.5717)">
<stop stop-color="#FFD873"/>
<stop offset="1" stop-color="#FFD873" stop-opacity="0.08"/>
</radialGradient>
<radialGradient id="paint30_radial_126_9017" cx="0" cy="0" r="1" gradientUnits="userSpaceOnUse" gradientTransform="translate(517.879 220.513) rotate(90) scale(24.5801)">
<stop offset="0.109375" stop-color="white"/>
<stop offset="0.479167" stop-color="#F8D0A7"/>
<stop offset="1" stop-color="#EE8C29"/>
</radialGradient>
<radialGradient id="paint31_radial_126_9017" cx="0" cy="0" r="1" gradientUnits="userSpaceOnUse" gradientTransform="translate(424.981 249.209) rotate(90) scale(42.5717)">
<stop stop-color="#FFD873"/>
<stop offset="1" stop-color="#FFD873" stop-opacity="0.08"/>
</radialGradient>
<radialGradient id="paint32_radial_126_9017" cx="0" cy="0" r="1" gradientUnits="userSpaceOnUse" gradientTransform="translate(425.106 248.873) rotate(90) scale(24.5801)">
<stop offset="0.109375" stop-color="white"/>
<stop offset="0.479167" stop-color="#F8D0A7"/>
<stop offset="1" stop-color="#EE8C29"/>
</radialGradient>
<radialGradient id="paint33_radial_126_9017" cx="0" cy="0" r="1" gradientUnits="userSpaceOnUse" gradientTransform="translate(343.003 300.398) rotate(90) scale(42.5717)">
<stop stop-color="#FFD873"/>
<stop offset="1" stop-color="#FFD873" stop-opacity="0.08"/>
</radialGradient>
<radialGradient id="paint34_radial_126_9017" cx="0" cy="0" r="1" gradientUnits="userSpaceOnUse" gradientTransform="translate(343.038 300.041) rotate(90) scale(24.5801)">
<stop offset="0.109375" stop-color="white"/>
<stop offset="0.479167" stop-color="#F8D0A7"/>
<stop offset="1" stop-color="#EE8C29"/>
</radialGradient>
<radialGradient id="paint35_radial_126_9017" cx="0" cy="0" r="1" gradientUnits="userSpaceOnUse" gradientTransform="translate(275.235 373.557) rotate(90) scale(42.5717)">
<stop stop-color="#FFD873"/>
<stop offset="1" stop-color="#FFD873" stop-opacity="0.08"/>
</radialGradient>
<radialGradient id="paint36_radial_126_9017" cx="0" cy="0" r="1" gradientUnits="userSpaceOnUse" gradientTransform="translate(275.175 373.204) rotate(90) scale(24.5801)">
<stop offset="0.109375" stop-color="white"/>
<stop offset="0.479167" stop-color="#F8D0A7"/>
<stop offset="1" stop-color="#EE8C29"/>
</radialGradient>
<radialGradient id="paint37_radial_126_9017" cx="0" cy="0" r="1" gradientUnits="userSpaceOnUse" gradientTransform="translate(230.09 459.364) rotate(90) scale(42.5717)">
<stop stop-color="#FFD873"/>
<stop offset="1" stop-color="#FFD873" stop-opacity="0.08"/>
</radialGradient>
<radialGradient id="paint38_radial_126_9017" cx="0" cy="0" r="1" gradientUnits="userSpaceOnUse" gradientTransform="translate(229.939 459.039) rotate(90) scale(24.5801)">
<stop offset="0.109375" stop-color="white"/>
<stop offset="0.479167" stop-color="#F8D0A7"/>
<stop offset="1" stop-color="#EE8C29"/>
</radialGradient>
<radialGradient id="paint39_radial_126_9017" cx="0" cy="0" r="1" gradientUnits="userSpaceOnUse" gradientTransform="translate(208.8 553.181) rotate(90) scale(42.5717)">
<stop stop-color="#FFD873"/>
<stop offset="1" stop-color="#FFD873" stop-opacity="0.08"/>
</radialGradient>
<radialGradient id="paint40_radial_126_9017" cx="0" cy="0" r="1" gradientUnits="userSpaceOnUse" gradientTransform="translate(208.57 552.905) rotate(90) scale(24.5801)">
<stop offset="0.109375" stop-color="white"/>
<stop offset="0.479167" stop-color="#F8D0A7"/>
<stop offset="1" stop-color="#EE8C29"/>
</radialGradient>
<radialGradient id="paint41_radial_126_9017" cx="0" cy="0" r="1" gradientUnits="userSpaceOnUse" gradientTransform="translate(212.622 651.413) rotate(90) scale(42.5717)">
<stop stop-color="#FFD873"/>
<stop offset="1" stop-color="#FFD873" stop-opacity="0.08"/>
</radialGradient>
<radialGradient id="paint42_radial_126_9017" cx="0" cy="0" r="1" gradientUnits="userSpaceOnUse" gradientTransform="translate(212.329 651.207) rotate(90) scale(24.5801)">
<stop offset="0.109375" stop-color="white"/>
<stop offset="0.479167" stop-color="#F8D0A7"/>
<stop offset="1" stop-color="#EE8C29"/>
</radialGradient>
<linearGradient id="paint43_linear_126_9017" x1="586.664" y1="244.536" x2="586.074" y2="310.957" gradientUnits="userSpaceOnUse">
<stop stop-color="#FF5D4D"/>
<stop offset="1" stop-color="#CF100C"/>
</linearGradient>
</defs>
</svg>
